G04 #@! TF.GenerationSoftware,KiCad,Pcbnew,(5.1.5)-3*
G04 #@! TF.CreationDate,2020-05-19T14:28:27+02:00*
G04 #@! TF.ProjectId,40 with arrows,34302520-7769-4746-9820-6172726f7773,rev?*
G04 #@! TF.SameCoordinates,Original*
G04 #@! TF.FileFunction,Paste,Top*
G04 #@! TF.FilePolarity,Positive*
%FSLAX46Y46*%
G04 Gerber Fmt 4.6, Leading zero omitted, Abs format (unit mm)*
G04 Created by KiCad (PCBNEW (5.1.5)-3) date 2020-05-19 14:28:27*
%MOMM*%
%LPD*%
G04 APERTURE LIST*
%ADD10C,0.100000*%
G04 APERTURE END LIST*
D10*
G36*
X137236958Y-105210710D02*
G01*
X137251276Y-105212834D01*
X137265317Y-105216351D01*
X137278946Y-105221228D01*
X137292031Y-105227417D01*
X137304447Y-105234858D01*
X137316073Y-105243481D01*
X137326798Y-105253202D01*
X137336519Y-105263927D01*
X137345142Y-105275553D01*
X137352583Y-105287969D01*
X137358772Y-105301054D01*
X137363649Y-105314683D01*
X137367166Y-105328724D01*
X137369290Y-105343042D01*
X137370000Y-105357500D01*
X137370000Y-105652500D01*
X137369290Y-105666958D01*
X137367166Y-105681276D01*
X137363649Y-105695317D01*
X137358772Y-105708946D01*
X137352583Y-105722031D01*
X137345142Y-105734447D01*
X137336519Y-105746073D01*
X137326798Y-105756798D01*
X137316073Y-105766519D01*
X137304447Y-105775142D01*
X137292031Y-105782583D01*
X137278946Y-105788772D01*
X137265317Y-105793649D01*
X137251276Y-105797166D01*
X137236958Y-105799290D01*
X137222500Y-105800000D01*
X136877500Y-105800000D01*
X136863042Y-105799290D01*
X136848724Y-105797166D01*
X136834683Y-105793649D01*
X136821054Y-105788772D01*
X136807969Y-105782583D01*
X136795553Y-105775142D01*
X136783927Y-105766519D01*
X136773202Y-105756798D01*
X136763481Y-105746073D01*
X136754858Y-105734447D01*
X136747417Y-105722031D01*
X136741228Y-105708946D01*
X136736351Y-105695317D01*
X136732834Y-105681276D01*
X136730710Y-105666958D01*
X136730000Y-105652500D01*
X136730000Y-105357500D01*
X136730710Y-105343042D01*
X136732834Y-105328724D01*
X136736351Y-105314683D01*
X136741228Y-105301054D01*
X136747417Y-105287969D01*
X136754858Y-105275553D01*
X136763481Y-105263927D01*
X136773202Y-105253202D01*
X136783927Y-105243481D01*
X136795553Y-105234858D01*
X136807969Y-105227417D01*
X136821054Y-105221228D01*
X136834683Y-105216351D01*
X136848724Y-105212834D01*
X136863042Y-105210710D01*
X136877500Y-105210000D01*
X137222500Y-105210000D01*
X137236958Y-105210710D01*
G37*
G36*
X137236958Y-106180710D02*
G01*
X137251276Y-106182834D01*
X137265317Y-106186351D01*
X137278946Y-106191228D01*
X137292031Y-106197417D01*
X137304447Y-106204858D01*
X137316073Y-106213481D01*
X137326798Y-106223202D01*
X137336519Y-106233927D01*
X137345142Y-106245553D01*
X137352583Y-106257969D01*
X137358772Y-106271054D01*
X137363649Y-106284683D01*
X137367166Y-106298724D01*
X137369290Y-106313042D01*
X137370000Y-106327500D01*
X137370000Y-106622500D01*
X137369290Y-106636958D01*
X137367166Y-106651276D01*
X137363649Y-106665317D01*
X137358772Y-106678946D01*
X137352583Y-106692031D01*
X137345142Y-106704447D01*
X137336519Y-106716073D01*
X137326798Y-106726798D01*
X137316073Y-106736519D01*
X137304447Y-106745142D01*
X137292031Y-106752583D01*
X137278946Y-106758772D01*
X137265317Y-106763649D01*
X137251276Y-106767166D01*
X137236958Y-106769290D01*
X137222500Y-106770000D01*
X136877500Y-106770000D01*
X136863042Y-106769290D01*
X136848724Y-106767166D01*
X136834683Y-106763649D01*
X136821054Y-106758772D01*
X136807969Y-106752583D01*
X136795553Y-106745142D01*
X136783927Y-106736519D01*
X136773202Y-106726798D01*
X136763481Y-106716073D01*
X136754858Y-106704447D01*
X136747417Y-106692031D01*
X136741228Y-106678946D01*
X136736351Y-106665317D01*
X136732834Y-106651276D01*
X136730710Y-106636958D01*
X136730000Y-106622500D01*
X136730000Y-106327500D01*
X136730710Y-106313042D01*
X136732834Y-106298724D01*
X136736351Y-106284683D01*
X136741228Y-106271054D01*
X136747417Y-106257969D01*
X136754858Y-106245553D01*
X136763481Y-106233927D01*
X136773202Y-106223202D01*
X136783927Y-106213481D01*
X136795553Y-106204858D01*
X136807969Y-106197417D01*
X136821054Y-106191228D01*
X136834683Y-106186351D01*
X136848724Y-106182834D01*
X136863042Y-106180710D01*
X136877500Y-106180000D01*
X137222500Y-106180000D01*
X137236958Y-106180710D01*
G37*
G36*
X129986958Y-106130710D02*
G01*
X130001276Y-106132834D01*
X130015317Y-106136351D01*
X130028946Y-106141228D01*
X130042031Y-106147417D01*
X130054447Y-106154858D01*
X130066073Y-106163481D01*
X130076798Y-106173202D01*
X130086519Y-106183927D01*
X130095142Y-106195553D01*
X130102583Y-106207969D01*
X130108772Y-106221054D01*
X130113649Y-106234683D01*
X130117166Y-106248724D01*
X130119290Y-106263042D01*
X130120000Y-106277500D01*
X130120000Y-106622500D01*
X130119290Y-106636958D01*
X130117166Y-106651276D01*
X130113649Y-106665317D01*
X130108772Y-106678946D01*
X130102583Y-106692031D01*
X130095142Y-106704447D01*
X130086519Y-106716073D01*
X130076798Y-106726798D01*
X130066073Y-106736519D01*
X130054447Y-106745142D01*
X130042031Y-106752583D01*
X130028946Y-106758772D01*
X130015317Y-106763649D01*
X130001276Y-106767166D01*
X129986958Y-106769290D01*
X129972500Y-106770000D01*
X129677500Y-106770000D01*
X129663042Y-106769290D01*
X129648724Y-106767166D01*
X129634683Y-106763649D01*
X129621054Y-106758772D01*
X129607969Y-106752583D01*
X129595553Y-106745142D01*
X129583927Y-106736519D01*
X129573202Y-106726798D01*
X129563481Y-106716073D01*
X129554858Y-106704447D01*
X129547417Y-106692031D01*
X129541228Y-106678946D01*
X129536351Y-106665317D01*
X129532834Y-106651276D01*
X129530710Y-106636958D01*
X129530000Y-106622500D01*
X129530000Y-106277500D01*
X129530710Y-106263042D01*
X129532834Y-106248724D01*
X129536351Y-106234683D01*
X129541228Y-106221054D01*
X129547417Y-106207969D01*
X129554858Y-106195553D01*
X129563481Y-106183927D01*
X129573202Y-106173202D01*
X129583927Y-106163481D01*
X129595553Y-106154858D01*
X129607969Y-106147417D01*
X129621054Y-106141228D01*
X129634683Y-106136351D01*
X129648724Y-106132834D01*
X129663042Y-106130710D01*
X129677500Y-106130000D01*
X129972500Y-106130000D01*
X129986958Y-106130710D01*
G37*
G36*
X130956958Y-106130710D02*
G01*
X130971276Y-106132834D01*
X130985317Y-106136351D01*
X130998946Y-106141228D01*
X131012031Y-106147417D01*
X131024447Y-106154858D01*
X131036073Y-106163481D01*
X131046798Y-106173202D01*
X131056519Y-106183927D01*
X131065142Y-106195553D01*
X131072583Y-106207969D01*
X131078772Y-106221054D01*
X131083649Y-106234683D01*
X131087166Y-106248724D01*
X131089290Y-106263042D01*
X131090000Y-106277500D01*
X131090000Y-106622500D01*
X131089290Y-106636958D01*
X131087166Y-106651276D01*
X131083649Y-106665317D01*
X131078772Y-106678946D01*
X131072583Y-106692031D01*
X131065142Y-106704447D01*
X131056519Y-106716073D01*
X131046798Y-106726798D01*
X131036073Y-106736519D01*
X131024447Y-106745142D01*
X131012031Y-106752583D01*
X130998946Y-106758772D01*
X130985317Y-106763649D01*
X130971276Y-106767166D01*
X130956958Y-106769290D01*
X130942500Y-106770000D01*
X130647500Y-106770000D01*
X130633042Y-106769290D01*
X130618724Y-106767166D01*
X130604683Y-106763649D01*
X130591054Y-106758772D01*
X130577969Y-106752583D01*
X130565553Y-106745142D01*
X130553927Y-106736519D01*
X130543202Y-106726798D01*
X130533481Y-106716073D01*
X130524858Y-106704447D01*
X130517417Y-106692031D01*
X130511228Y-106678946D01*
X130506351Y-106665317D01*
X130502834Y-106651276D01*
X130500710Y-106636958D01*
X130500000Y-106622500D01*
X130500000Y-106277500D01*
X130500710Y-106263042D01*
X130502834Y-106248724D01*
X130506351Y-106234683D01*
X130511228Y-106221054D01*
X130517417Y-106207969D01*
X130524858Y-106195553D01*
X130533481Y-106183927D01*
X130543202Y-106173202D01*
X130553927Y-106163481D01*
X130565553Y-106154858D01*
X130577969Y-106147417D01*
X130591054Y-106141228D01*
X130604683Y-106136351D01*
X130618724Y-106132834D01*
X130633042Y-106130710D01*
X130647500Y-106130000D01*
X130942500Y-106130000D01*
X130956958Y-106130710D01*
G37*
G36*
X130946958Y-99740710D02*
G01*
X130961276Y-99742834D01*
X130975317Y-99746351D01*
X130988946Y-99751228D01*
X131002031Y-99757417D01*
X131014447Y-99764858D01*
X131026073Y-99773481D01*
X131036798Y-99783202D01*
X131046519Y-99793927D01*
X131055142Y-99805553D01*
X131062583Y-99817969D01*
X131068772Y-99831054D01*
X131073649Y-99844683D01*
X131077166Y-99858724D01*
X131079290Y-99873042D01*
X131080000Y-99887500D01*
X131080000Y-100232500D01*
X131079290Y-100246958D01*
X131077166Y-100261276D01*
X131073649Y-100275317D01*
X131068772Y-100288946D01*
X131062583Y-100302031D01*
X131055142Y-100314447D01*
X131046519Y-100326073D01*
X131036798Y-100336798D01*
X131026073Y-100346519D01*
X131014447Y-100355142D01*
X131002031Y-100362583D01*
X130988946Y-100368772D01*
X130975317Y-100373649D01*
X130961276Y-100377166D01*
X130946958Y-100379290D01*
X130932500Y-100380000D01*
X130637500Y-100380000D01*
X130623042Y-100379290D01*
X130608724Y-100377166D01*
X130594683Y-100373649D01*
X130581054Y-100368772D01*
X130567969Y-100362583D01*
X130555553Y-100355142D01*
X130543927Y-100346519D01*
X130533202Y-100336798D01*
X130523481Y-100326073D01*
X130514858Y-100314447D01*
X130507417Y-100302031D01*
X130501228Y-100288946D01*
X130496351Y-100275317D01*
X130492834Y-100261276D01*
X130490710Y-100246958D01*
X130490000Y-100232500D01*
X130490000Y-99887500D01*
X130490710Y-99873042D01*
X130492834Y-99858724D01*
X130496351Y-99844683D01*
X130501228Y-99831054D01*
X130507417Y-99817969D01*
X130514858Y-99805553D01*
X130523481Y-99793927D01*
X130533202Y-99783202D01*
X130543927Y-99773481D01*
X130555553Y-99764858D01*
X130567969Y-99757417D01*
X130581054Y-99751228D01*
X130594683Y-99746351D01*
X130608724Y-99742834D01*
X130623042Y-99740710D01*
X130637500Y-99740000D01*
X130932500Y-99740000D01*
X130946958Y-99740710D01*
G37*
G36*
X129976958Y-99740710D02*
G01*
X129991276Y-99742834D01*
X130005317Y-99746351D01*
X130018946Y-99751228D01*
X130032031Y-99757417D01*
X130044447Y-99764858D01*
X130056073Y-99773481D01*
X130066798Y-99783202D01*
X130076519Y-99793927D01*
X130085142Y-99805553D01*
X130092583Y-99817969D01*
X130098772Y-99831054D01*
X130103649Y-99844683D01*
X130107166Y-99858724D01*
X130109290Y-99873042D01*
X130110000Y-99887500D01*
X130110000Y-100232500D01*
X130109290Y-100246958D01*
X130107166Y-100261276D01*
X130103649Y-100275317D01*
X130098772Y-100288946D01*
X130092583Y-100302031D01*
X130085142Y-100314447D01*
X130076519Y-100326073D01*
X130066798Y-100336798D01*
X130056073Y-100346519D01*
X130044447Y-100355142D01*
X130032031Y-100362583D01*
X130018946Y-100368772D01*
X130005317Y-100373649D01*
X129991276Y-100377166D01*
X129976958Y-100379290D01*
X129962500Y-100380000D01*
X129667500Y-100380000D01*
X129653042Y-100379290D01*
X129638724Y-100377166D01*
X129624683Y-100373649D01*
X129611054Y-100368772D01*
X129597969Y-100362583D01*
X129585553Y-100355142D01*
X129573927Y-100346519D01*
X129563202Y-100336798D01*
X129553481Y-100326073D01*
X129544858Y-100314447D01*
X129537417Y-100302031D01*
X129531228Y-100288946D01*
X129526351Y-100275317D01*
X129522834Y-100261276D01*
X129520710Y-100246958D01*
X129520000Y-100232500D01*
X129520000Y-99887500D01*
X129520710Y-99873042D01*
X129522834Y-99858724D01*
X129526351Y-99844683D01*
X129531228Y-99831054D01*
X129537417Y-99817969D01*
X129544858Y-99805553D01*
X129553481Y-99793927D01*
X129563202Y-99783202D01*
X129573927Y-99773481D01*
X129585553Y-99764858D01*
X129597969Y-99757417D01*
X129611054Y-99751228D01*
X129624683Y-99746351D01*
X129638724Y-99742834D01*
X129653042Y-99740710D01*
X129667500Y-99740000D01*
X129962500Y-99740000D01*
X129976958Y-99740710D01*
G37*
G36*
X136436958Y-101330710D02*
G01*
X136451276Y-101332834D01*
X136465317Y-101336351D01*
X136478946Y-101341228D01*
X136492031Y-101347417D01*
X136504447Y-101354858D01*
X136516073Y-101363481D01*
X136526798Y-101373202D01*
X136536519Y-101383927D01*
X136545142Y-101395553D01*
X136552583Y-101407969D01*
X136558772Y-101421054D01*
X136563649Y-101434683D01*
X136567166Y-101448724D01*
X136569290Y-101463042D01*
X136570000Y-101477500D01*
X136570000Y-101822500D01*
X136569290Y-101836958D01*
X136567166Y-101851276D01*
X136563649Y-101865317D01*
X136558772Y-101878946D01*
X136552583Y-101892031D01*
X136545142Y-101904447D01*
X136536519Y-101916073D01*
X136526798Y-101926798D01*
X136516073Y-101936519D01*
X136504447Y-101945142D01*
X136492031Y-101952583D01*
X136478946Y-101958772D01*
X136465317Y-101963649D01*
X136451276Y-101967166D01*
X136436958Y-101969290D01*
X136422500Y-101970000D01*
X136127500Y-101970000D01*
X136113042Y-101969290D01*
X136098724Y-101967166D01*
X136084683Y-101963649D01*
X136071054Y-101958772D01*
X136057969Y-101952583D01*
X136045553Y-101945142D01*
X136033927Y-101936519D01*
X136023202Y-101926798D01*
X136013481Y-101916073D01*
X136004858Y-101904447D01*
X135997417Y-101892031D01*
X135991228Y-101878946D01*
X135986351Y-101865317D01*
X135982834Y-101851276D01*
X135980710Y-101836958D01*
X135980000Y-101822500D01*
X135980000Y-101477500D01*
X135980710Y-101463042D01*
X135982834Y-101448724D01*
X135986351Y-101434683D01*
X135991228Y-101421054D01*
X135997417Y-101407969D01*
X136004858Y-101395553D01*
X136013481Y-101383927D01*
X136023202Y-101373202D01*
X136033927Y-101363481D01*
X136045553Y-101354858D01*
X136057969Y-101347417D01*
X136071054Y-101341228D01*
X136084683Y-101336351D01*
X136098724Y-101332834D01*
X136113042Y-101330710D01*
X136127500Y-101330000D01*
X136422500Y-101330000D01*
X136436958Y-101330710D01*
G37*
G36*
X135466958Y-101330710D02*
G01*
X135481276Y-101332834D01*
X135495317Y-101336351D01*
X135508946Y-101341228D01*
X135522031Y-101347417D01*
X135534447Y-101354858D01*
X135546073Y-101363481D01*
X135556798Y-101373202D01*
X135566519Y-101383927D01*
X135575142Y-101395553D01*
X135582583Y-101407969D01*
X135588772Y-101421054D01*
X135593649Y-101434683D01*
X135597166Y-101448724D01*
X135599290Y-101463042D01*
X135600000Y-101477500D01*
X135600000Y-101822500D01*
X135599290Y-101836958D01*
X135597166Y-101851276D01*
X135593649Y-101865317D01*
X135588772Y-101878946D01*
X135582583Y-101892031D01*
X135575142Y-101904447D01*
X135566519Y-101916073D01*
X135556798Y-101926798D01*
X135546073Y-101936519D01*
X135534447Y-101945142D01*
X135522031Y-101952583D01*
X135508946Y-101958772D01*
X135495317Y-101963649D01*
X135481276Y-101967166D01*
X135466958Y-101969290D01*
X135452500Y-101970000D01*
X135157500Y-101970000D01*
X135143042Y-101969290D01*
X135128724Y-101967166D01*
X135114683Y-101963649D01*
X135101054Y-101958772D01*
X135087969Y-101952583D01*
X135075553Y-101945142D01*
X135063927Y-101936519D01*
X135053202Y-101926798D01*
X135043481Y-101916073D01*
X135034858Y-101904447D01*
X135027417Y-101892031D01*
X135021228Y-101878946D01*
X135016351Y-101865317D01*
X135012834Y-101851276D01*
X135010710Y-101836958D01*
X135010000Y-101822500D01*
X135010000Y-101477500D01*
X135010710Y-101463042D01*
X135012834Y-101448724D01*
X135016351Y-101434683D01*
X135021228Y-101421054D01*
X135027417Y-101407969D01*
X135034858Y-101395553D01*
X135043481Y-101383927D01*
X135053202Y-101373202D01*
X135063927Y-101363481D01*
X135075553Y-101354858D01*
X135087969Y-101347417D01*
X135101054Y-101341228D01*
X135114683Y-101336351D01*
X135128724Y-101332834D01*
X135143042Y-101330710D01*
X135157500Y-101330000D01*
X135452500Y-101330000D01*
X135466958Y-101330710D01*
G37*
G36*
X132426958Y-100710710D02*
G01*
X132441276Y-100712834D01*
X132455317Y-100716351D01*
X132468946Y-100721228D01*
X132482031Y-100727417D01*
X132494447Y-100734858D01*
X132506073Y-100743481D01*
X132516798Y-100753202D01*
X132526519Y-100763927D01*
X132535142Y-100775553D01*
X132542583Y-100787969D01*
X132548772Y-100801054D01*
X132553649Y-100814683D01*
X132557166Y-100828724D01*
X132559290Y-100843042D01*
X132560000Y-100857500D01*
X132560000Y-101152500D01*
X132559290Y-101166958D01*
X132557166Y-101181276D01*
X132553649Y-101195317D01*
X132548772Y-101208946D01*
X132542583Y-101222031D01*
X132535142Y-101234447D01*
X132526519Y-101246073D01*
X132516798Y-101256798D01*
X132506073Y-101266519D01*
X132494447Y-101275142D01*
X132482031Y-101282583D01*
X132468946Y-101288772D01*
X132455317Y-101293649D01*
X132441276Y-101297166D01*
X132426958Y-101299290D01*
X132412500Y-101300000D01*
X132067500Y-101300000D01*
X132053042Y-101299290D01*
X132038724Y-101297166D01*
X132024683Y-101293649D01*
X132011054Y-101288772D01*
X131997969Y-101282583D01*
X131985553Y-101275142D01*
X131973927Y-101266519D01*
X131963202Y-101256798D01*
X131953481Y-101246073D01*
X131944858Y-101234447D01*
X131937417Y-101222031D01*
X131931228Y-101208946D01*
X131926351Y-101195317D01*
X131922834Y-101181276D01*
X131920710Y-101166958D01*
X131920000Y-101152500D01*
X131920000Y-100857500D01*
X131920710Y-100843042D01*
X131922834Y-100828724D01*
X131926351Y-100814683D01*
X131931228Y-100801054D01*
X131937417Y-100787969D01*
X131944858Y-100775553D01*
X131953481Y-100763927D01*
X131963202Y-100753202D01*
X131973927Y-100743481D01*
X131985553Y-100734858D01*
X131997969Y-100727417D01*
X132011054Y-100721228D01*
X132024683Y-100716351D01*
X132038724Y-100712834D01*
X132053042Y-100710710D01*
X132067500Y-100710000D01*
X132412500Y-100710000D01*
X132426958Y-100710710D01*
G37*
G36*
X132426958Y-99740710D02*
G01*
X132441276Y-99742834D01*
X132455317Y-99746351D01*
X132468946Y-99751228D01*
X132482031Y-99757417D01*
X132494447Y-99764858D01*
X132506073Y-99773481D01*
X132516798Y-99783202D01*
X132526519Y-99793927D01*
X132535142Y-99805553D01*
X132542583Y-99817969D01*
X132548772Y-99831054D01*
X132553649Y-99844683D01*
X132557166Y-99858724D01*
X132559290Y-99873042D01*
X132560000Y-99887500D01*
X132560000Y-100182500D01*
X132559290Y-100196958D01*
X132557166Y-100211276D01*
X132553649Y-100225317D01*
X132548772Y-100238946D01*
X132542583Y-100252031D01*
X132535142Y-100264447D01*
X132526519Y-100276073D01*
X132516798Y-100286798D01*
X132506073Y-100296519D01*
X132494447Y-100305142D01*
X132482031Y-100312583D01*
X132468946Y-100318772D01*
X132455317Y-100323649D01*
X132441276Y-100327166D01*
X132426958Y-100329290D01*
X132412500Y-100330000D01*
X132067500Y-100330000D01*
X132053042Y-100329290D01*
X132038724Y-100327166D01*
X132024683Y-100323649D01*
X132011054Y-100318772D01*
X131997969Y-100312583D01*
X131985553Y-100305142D01*
X131973927Y-100296519D01*
X131963202Y-100286798D01*
X131953481Y-100276073D01*
X131944858Y-100264447D01*
X131937417Y-100252031D01*
X131931228Y-100238946D01*
X131926351Y-100225317D01*
X131922834Y-100211276D01*
X131920710Y-100196958D01*
X131920000Y-100182500D01*
X131920000Y-99887500D01*
X131920710Y-99873042D01*
X131922834Y-99858724D01*
X131926351Y-99844683D01*
X131931228Y-99831054D01*
X131937417Y-99817969D01*
X131944858Y-99805553D01*
X131953481Y-99793927D01*
X131963202Y-99783202D01*
X131973927Y-99773481D01*
X131985553Y-99764858D01*
X131997969Y-99757417D01*
X132011054Y-99751228D01*
X132024683Y-99746351D01*
X132038724Y-99742834D01*
X132053042Y-99740710D01*
X132067500Y-99740000D01*
X132412500Y-99740000D01*
X132426958Y-99740710D01*
G37*
M02*
