G04 #@! TF.GenerationSoftware,KiCad,Pcbnew,(5.1.5)-3*
G04 #@! TF.CreationDate,2020-05-19T14:28:27+02:00*
G04 #@! TF.ProjectId,40 with arrows,34302520-7769-4746-9820-6172726f7773,rev?*
G04 #@! TF.SameCoordinates,Original*
G04 #@! TF.FileFunction,Copper,L1,Top*
G04 #@! TF.FilePolarity,Positive*
%FSLAX46Y46*%
G04 Gerber Fmt 4.6, Leading zero omitted, Abs format (unit mm)*
G04 Created by KiCad (PCBNEW (5.1.5)-3) date 2020-05-19 14:28:27*
%MOMM*%
%LPD*%
G04 APERTURE LIST*
%ADD10O,0.900000X1.700000*%
%ADD11O,0.900000X2.000000*%
%ADD12C,2.250000*%
%ADD13C,0.100000*%
%ADD14C,0.800000*%
%ADD15C,0.250000*%
G04 APERTURE END LIST*
D10*
X254240000Y-37130000D03*
X245600000Y-37130000D03*
D11*
X254240000Y-41300000D03*
X245600000Y-41300000D03*
D12*
X160800000Y-99670000D03*
X154450000Y-102210000D03*
G04 #@! TA.AperFunction,SMDPad,CuDef*
D13*
G36*
X137236958Y-105210710D02*
G01*
X137251276Y-105212834D01*
X137265317Y-105216351D01*
X137278946Y-105221228D01*
X137292031Y-105227417D01*
X137304447Y-105234858D01*
X137316073Y-105243481D01*
X137326798Y-105253202D01*
X137336519Y-105263927D01*
X137345142Y-105275553D01*
X137352583Y-105287969D01*
X137358772Y-105301054D01*
X137363649Y-105314683D01*
X137367166Y-105328724D01*
X137369290Y-105343042D01*
X137370000Y-105357500D01*
X137370000Y-105652500D01*
X137369290Y-105666958D01*
X137367166Y-105681276D01*
X137363649Y-105695317D01*
X137358772Y-105708946D01*
X137352583Y-105722031D01*
X137345142Y-105734447D01*
X137336519Y-105746073D01*
X137326798Y-105756798D01*
X137316073Y-105766519D01*
X137304447Y-105775142D01*
X137292031Y-105782583D01*
X137278946Y-105788772D01*
X137265317Y-105793649D01*
X137251276Y-105797166D01*
X137236958Y-105799290D01*
X137222500Y-105800000D01*
X136877500Y-105800000D01*
X136863042Y-105799290D01*
X136848724Y-105797166D01*
X136834683Y-105793649D01*
X136821054Y-105788772D01*
X136807969Y-105782583D01*
X136795553Y-105775142D01*
X136783927Y-105766519D01*
X136773202Y-105756798D01*
X136763481Y-105746073D01*
X136754858Y-105734447D01*
X136747417Y-105722031D01*
X136741228Y-105708946D01*
X136736351Y-105695317D01*
X136732834Y-105681276D01*
X136730710Y-105666958D01*
X136730000Y-105652500D01*
X136730000Y-105357500D01*
X136730710Y-105343042D01*
X136732834Y-105328724D01*
X136736351Y-105314683D01*
X136741228Y-105301054D01*
X136747417Y-105287969D01*
X136754858Y-105275553D01*
X136763481Y-105263927D01*
X136773202Y-105253202D01*
X136783927Y-105243481D01*
X136795553Y-105234858D01*
X136807969Y-105227417D01*
X136821054Y-105221228D01*
X136834683Y-105216351D01*
X136848724Y-105212834D01*
X136863042Y-105210710D01*
X136877500Y-105210000D01*
X137222500Y-105210000D01*
X137236958Y-105210710D01*
G37*
G04 #@! TD.AperFunction*
G04 #@! TA.AperFunction,SMDPad,CuDef*
G36*
X137236958Y-106180710D02*
G01*
X137251276Y-106182834D01*
X137265317Y-106186351D01*
X137278946Y-106191228D01*
X137292031Y-106197417D01*
X137304447Y-106204858D01*
X137316073Y-106213481D01*
X137326798Y-106223202D01*
X137336519Y-106233927D01*
X137345142Y-106245553D01*
X137352583Y-106257969D01*
X137358772Y-106271054D01*
X137363649Y-106284683D01*
X137367166Y-106298724D01*
X137369290Y-106313042D01*
X137370000Y-106327500D01*
X137370000Y-106622500D01*
X137369290Y-106636958D01*
X137367166Y-106651276D01*
X137363649Y-106665317D01*
X137358772Y-106678946D01*
X137352583Y-106692031D01*
X137345142Y-106704447D01*
X137336519Y-106716073D01*
X137326798Y-106726798D01*
X137316073Y-106736519D01*
X137304447Y-106745142D01*
X137292031Y-106752583D01*
X137278946Y-106758772D01*
X137265317Y-106763649D01*
X137251276Y-106767166D01*
X137236958Y-106769290D01*
X137222500Y-106770000D01*
X136877500Y-106770000D01*
X136863042Y-106769290D01*
X136848724Y-106767166D01*
X136834683Y-106763649D01*
X136821054Y-106758772D01*
X136807969Y-106752583D01*
X136795553Y-106745142D01*
X136783927Y-106736519D01*
X136773202Y-106726798D01*
X136763481Y-106716073D01*
X136754858Y-106704447D01*
X136747417Y-106692031D01*
X136741228Y-106678946D01*
X136736351Y-106665317D01*
X136732834Y-106651276D01*
X136730710Y-106636958D01*
X136730000Y-106622500D01*
X136730000Y-106327500D01*
X136730710Y-106313042D01*
X136732834Y-106298724D01*
X136736351Y-106284683D01*
X136741228Y-106271054D01*
X136747417Y-106257969D01*
X136754858Y-106245553D01*
X136763481Y-106233927D01*
X136773202Y-106223202D01*
X136783927Y-106213481D01*
X136795553Y-106204858D01*
X136807969Y-106197417D01*
X136821054Y-106191228D01*
X136834683Y-106186351D01*
X136848724Y-106182834D01*
X136863042Y-106180710D01*
X136877500Y-106180000D01*
X137222500Y-106180000D01*
X137236958Y-106180710D01*
G37*
G04 #@! TD.AperFunction*
D12*
X113170000Y-99650000D03*
X106820000Y-102190000D03*
G04 #@! TA.AperFunction,SMDPad,CuDef*
D13*
G36*
X129986958Y-106130710D02*
G01*
X130001276Y-106132834D01*
X130015317Y-106136351D01*
X130028946Y-106141228D01*
X130042031Y-106147417D01*
X130054447Y-106154858D01*
X130066073Y-106163481D01*
X130076798Y-106173202D01*
X130086519Y-106183927D01*
X130095142Y-106195553D01*
X130102583Y-106207969D01*
X130108772Y-106221054D01*
X130113649Y-106234683D01*
X130117166Y-106248724D01*
X130119290Y-106263042D01*
X130120000Y-106277500D01*
X130120000Y-106622500D01*
X130119290Y-106636958D01*
X130117166Y-106651276D01*
X130113649Y-106665317D01*
X130108772Y-106678946D01*
X130102583Y-106692031D01*
X130095142Y-106704447D01*
X130086519Y-106716073D01*
X130076798Y-106726798D01*
X130066073Y-106736519D01*
X130054447Y-106745142D01*
X130042031Y-106752583D01*
X130028946Y-106758772D01*
X130015317Y-106763649D01*
X130001276Y-106767166D01*
X129986958Y-106769290D01*
X129972500Y-106770000D01*
X129677500Y-106770000D01*
X129663042Y-106769290D01*
X129648724Y-106767166D01*
X129634683Y-106763649D01*
X129621054Y-106758772D01*
X129607969Y-106752583D01*
X129595553Y-106745142D01*
X129583927Y-106736519D01*
X129573202Y-106726798D01*
X129563481Y-106716073D01*
X129554858Y-106704447D01*
X129547417Y-106692031D01*
X129541228Y-106678946D01*
X129536351Y-106665317D01*
X129532834Y-106651276D01*
X129530710Y-106636958D01*
X129530000Y-106622500D01*
X129530000Y-106277500D01*
X129530710Y-106263042D01*
X129532834Y-106248724D01*
X129536351Y-106234683D01*
X129541228Y-106221054D01*
X129547417Y-106207969D01*
X129554858Y-106195553D01*
X129563481Y-106183927D01*
X129573202Y-106173202D01*
X129583927Y-106163481D01*
X129595553Y-106154858D01*
X129607969Y-106147417D01*
X129621054Y-106141228D01*
X129634683Y-106136351D01*
X129648724Y-106132834D01*
X129663042Y-106130710D01*
X129677500Y-106130000D01*
X129972500Y-106130000D01*
X129986958Y-106130710D01*
G37*
G04 #@! TD.AperFunction*
G04 #@! TA.AperFunction,SMDPad,CuDef*
G36*
X130956958Y-106130710D02*
G01*
X130971276Y-106132834D01*
X130985317Y-106136351D01*
X130998946Y-106141228D01*
X131012031Y-106147417D01*
X131024447Y-106154858D01*
X131036073Y-106163481D01*
X131046798Y-106173202D01*
X131056519Y-106183927D01*
X131065142Y-106195553D01*
X131072583Y-106207969D01*
X131078772Y-106221054D01*
X131083649Y-106234683D01*
X131087166Y-106248724D01*
X131089290Y-106263042D01*
X131090000Y-106277500D01*
X131090000Y-106622500D01*
X131089290Y-106636958D01*
X131087166Y-106651276D01*
X131083649Y-106665317D01*
X131078772Y-106678946D01*
X131072583Y-106692031D01*
X131065142Y-106704447D01*
X131056519Y-106716073D01*
X131046798Y-106726798D01*
X131036073Y-106736519D01*
X131024447Y-106745142D01*
X131012031Y-106752583D01*
X130998946Y-106758772D01*
X130985317Y-106763649D01*
X130971276Y-106767166D01*
X130956958Y-106769290D01*
X130942500Y-106770000D01*
X130647500Y-106770000D01*
X130633042Y-106769290D01*
X130618724Y-106767166D01*
X130604683Y-106763649D01*
X130591054Y-106758772D01*
X130577969Y-106752583D01*
X130565553Y-106745142D01*
X130553927Y-106736519D01*
X130543202Y-106726798D01*
X130533481Y-106716073D01*
X130524858Y-106704447D01*
X130517417Y-106692031D01*
X130511228Y-106678946D01*
X130506351Y-106665317D01*
X130502834Y-106651276D01*
X130500710Y-106636958D01*
X130500000Y-106622500D01*
X130500000Y-106277500D01*
X130500710Y-106263042D01*
X130502834Y-106248724D01*
X130506351Y-106234683D01*
X130511228Y-106221054D01*
X130517417Y-106207969D01*
X130524858Y-106195553D01*
X130533481Y-106183927D01*
X130543202Y-106173202D01*
X130553927Y-106163481D01*
X130565553Y-106154858D01*
X130577969Y-106147417D01*
X130591054Y-106141228D01*
X130604683Y-106136351D01*
X130618724Y-106132834D01*
X130633042Y-106130710D01*
X130647500Y-106130000D01*
X130942500Y-106130000D01*
X130956958Y-106130710D01*
G37*
G04 #@! TD.AperFunction*
G04 #@! TA.AperFunction,SMDPad,CuDef*
G36*
X130946958Y-99740710D02*
G01*
X130961276Y-99742834D01*
X130975317Y-99746351D01*
X130988946Y-99751228D01*
X131002031Y-99757417D01*
X131014447Y-99764858D01*
X131026073Y-99773481D01*
X131036798Y-99783202D01*
X131046519Y-99793927D01*
X131055142Y-99805553D01*
X131062583Y-99817969D01*
X131068772Y-99831054D01*
X131073649Y-99844683D01*
X131077166Y-99858724D01*
X131079290Y-99873042D01*
X131080000Y-99887500D01*
X131080000Y-100232500D01*
X131079290Y-100246958D01*
X131077166Y-100261276D01*
X131073649Y-100275317D01*
X131068772Y-100288946D01*
X131062583Y-100302031D01*
X131055142Y-100314447D01*
X131046519Y-100326073D01*
X131036798Y-100336798D01*
X131026073Y-100346519D01*
X131014447Y-100355142D01*
X131002031Y-100362583D01*
X130988946Y-100368772D01*
X130975317Y-100373649D01*
X130961276Y-100377166D01*
X130946958Y-100379290D01*
X130932500Y-100380000D01*
X130637500Y-100380000D01*
X130623042Y-100379290D01*
X130608724Y-100377166D01*
X130594683Y-100373649D01*
X130581054Y-100368772D01*
X130567969Y-100362583D01*
X130555553Y-100355142D01*
X130543927Y-100346519D01*
X130533202Y-100336798D01*
X130523481Y-100326073D01*
X130514858Y-100314447D01*
X130507417Y-100302031D01*
X130501228Y-100288946D01*
X130496351Y-100275317D01*
X130492834Y-100261276D01*
X130490710Y-100246958D01*
X130490000Y-100232500D01*
X130490000Y-99887500D01*
X130490710Y-99873042D01*
X130492834Y-99858724D01*
X130496351Y-99844683D01*
X130501228Y-99831054D01*
X130507417Y-99817969D01*
X130514858Y-99805553D01*
X130523481Y-99793927D01*
X130533202Y-99783202D01*
X130543927Y-99773481D01*
X130555553Y-99764858D01*
X130567969Y-99757417D01*
X130581054Y-99751228D01*
X130594683Y-99746351D01*
X130608724Y-99742834D01*
X130623042Y-99740710D01*
X130637500Y-99740000D01*
X130932500Y-99740000D01*
X130946958Y-99740710D01*
G37*
G04 #@! TD.AperFunction*
G04 #@! TA.AperFunction,SMDPad,CuDef*
G36*
X129976958Y-99740710D02*
G01*
X129991276Y-99742834D01*
X130005317Y-99746351D01*
X130018946Y-99751228D01*
X130032031Y-99757417D01*
X130044447Y-99764858D01*
X130056073Y-99773481D01*
X130066798Y-99783202D01*
X130076519Y-99793927D01*
X130085142Y-99805553D01*
X130092583Y-99817969D01*
X130098772Y-99831054D01*
X130103649Y-99844683D01*
X130107166Y-99858724D01*
X130109290Y-99873042D01*
X130110000Y-99887500D01*
X130110000Y-100232500D01*
X130109290Y-100246958D01*
X130107166Y-100261276D01*
X130103649Y-100275317D01*
X130098772Y-100288946D01*
X130092583Y-100302031D01*
X130085142Y-100314447D01*
X130076519Y-100326073D01*
X130066798Y-100336798D01*
X130056073Y-100346519D01*
X130044447Y-100355142D01*
X130032031Y-100362583D01*
X130018946Y-100368772D01*
X130005317Y-100373649D01*
X129991276Y-100377166D01*
X129976958Y-100379290D01*
X129962500Y-100380000D01*
X129667500Y-100380000D01*
X129653042Y-100379290D01*
X129638724Y-100377166D01*
X129624683Y-100373649D01*
X129611054Y-100368772D01*
X129597969Y-100362583D01*
X129585553Y-100355142D01*
X129573927Y-100346519D01*
X129563202Y-100336798D01*
X129553481Y-100326073D01*
X129544858Y-100314447D01*
X129537417Y-100302031D01*
X129531228Y-100288946D01*
X129526351Y-100275317D01*
X129522834Y-100261276D01*
X129520710Y-100246958D01*
X129520000Y-100232500D01*
X129520000Y-99887500D01*
X129520710Y-99873042D01*
X129522834Y-99858724D01*
X129526351Y-99844683D01*
X129531228Y-99831054D01*
X129537417Y-99817969D01*
X129544858Y-99805553D01*
X129553481Y-99793927D01*
X129563202Y-99783202D01*
X129573927Y-99773481D01*
X129585553Y-99764858D01*
X129597969Y-99757417D01*
X129611054Y-99751228D01*
X129624683Y-99746351D01*
X129638724Y-99742834D01*
X129653042Y-99740710D01*
X129667500Y-99740000D01*
X129962500Y-99740000D01*
X129976958Y-99740710D01*
G37*
G04 #@! TD.AperFunction*
G04 #@! TA.AperFunction,SMDPad,CuDef*
G36*
X136436958Y-101330710D02*
G01*
X136451276Y-101332834D01*
X136465317Y-101336351D01*
X136478946Y-101341228D01*
X136492031Y-101347417D01*
X136504447Y-101354858D01*
X136516073Y-101363481D01*
X136526798Y-101373202D01*
X136536519Y-101383927D01*
X136545142Y-101395553D01*
X136552583Y-101407969D01*
X136558772Y-101421054D01*
X136563649Y-101434683D01*
X136567166Y-101448724D01*
X136569290Y-101463042D01*
X136570000Y-101477500D01*
X136570000Y-101822500D01*
X136569290Y-101836958D01*
X136567166Y-101851276D01*
X136563649Y-101865317D01*
X136558772Y-101878946D01*
X136552583Y-101892031D01*
X136545142Y-101904447D01*
X136536519Y-101916073D01*
X136526798Y-101926798D01*
X136516073Y-101936519D01*
X136504447Y-101945142D01*
X136492031Y-101952583D01*
X136478946Y-101958772D01*
X136465317Y-101963649D01*
X136451276Y-101967166D01*
X136436958Y-101969290D01*
X136422500Y-101970000D01*
X136127500Y-101970000D01*
X136113042Y-101969290D01*
X136098724Y-101967166D01*
X136084683Y-101963649D01*
X136071054Y-101958772D01*
X136057969Y-101952583D01*
X136045553Y-101945142D01*
X136033927Y-101936519D01*
X136023202Y-101926798D01*
X136013481Y-101916073D01*
X136004858Y-101904447D01*
X135997417Y-101892031D01*
X135991228Y-101878946D01*
X135986351Y-101865317D01*
X135982834Y-101851276D01*
X135980710Y-101836958D01*
X135980000Y-101822500D01*
X135980000Y-101477500D01*
X135980710Y-101463042D01*
X135982834Y-101448724D01*
X135986351Y-101434683D01*
X135991228Y-101421054D01*
X135997417Y-101407969D01*
X136004858Y-101395553D01*
X136013481Y-101383927D01*
X136023202Y-101373202D01*
X136033927Y-101363481D01*
X136045553Y-101354858D01*
X136057969Y-101347417D01*
X136071054Y-101341228D01*
X136084683Y-101336351D01*
X136098724Y-101332834D01*
X136113042Y-101330710D01*
X136127500Y-101330000D01*
X136422500Y-101330000D01*
X136436958Y-101330710D01*
G37*
G04 #@! TD.AperFunction*
G04 #@! TA.AperFunction,SMDPad,CuDef*
G36*
X135466958Y-101330710D02*
G01*
X135481276Y-101332834D01*
X135495317Y-101336351D01*
X135508946Y-101341228D01*
X135522031Y-101347417D01*
X135534447Y-101354858D01*
X135546073Y-101363481D01*
X135556798Y-101373202D01*
X135566519Y-101383927D01*
X135575142Y-101395553D01*
X135582583Y-101407969D01*
X135588772Y-101421054D01*
X135593649Y-101434683D01*
X135597166Y-101448724D01*
X135599290Y-101463042D01*
X135600000Y-101477500D01*
X135600000Y-101822500D01*
X135599290Y-101836958D01*
X135597166Y-101851276D01*
X135593649Y-101865317D01*
X135588772Y-101878946D01*
X135582583Y-101892031D01*
X135575142Y-101904447D01*
X135566519Y-101916073D01*
X135556798Y-101926798D01*
X135546073Y-101936519D01*
X135534447Y-101945142D01*
X135522031Y-101952583D01*
X135508946Y-101958772D01*
X135495317Y-101963649D01*
X135481276Y-101967166D01*
X135466958Y-101969290D01*
X135452500Y-101970000D01*
X135157500Y-101970000D01*
X135143042Y-101969290D01*
X135128724Y-101967166D01*
X135114683Y-101963649D01*
X135101054Y-101958772D01*
X135087969Y-101952583D01*
X135075553Y-101945142D01*
X135063927Y-101936519D01*
X135053202Y-101926798D01*
X135043481Y-101916073D01*
X135034858Y-101904447D01*
X135027417Y-101892031D01*
X135021228Y-101878946D01*
X135016351Y-101865317D01*
X135012834Y-101851276D01*
X135010710Y-101836958D01*
X135010000Y-101822500D01*
X135010000Y-101477500D01*
X135010710Y-101463042D01*
X135012834Y-101448724D01*
X135016351Y-101434683D01*
X135021228Y-101421054D01*
X135027417Y-101407969D01*
X135034858Y-101395553D01*
X135043481Y-101383927D01*
X135053202Y-101373202D01*
X135063927Y-101363481D01*
X135075553Y-101354858D01*
X135087969Y-101347417D01*
X135101054Y-101341228D01*
X135114683Y-101336351D01*
X135128724Y-101332834D01*
X135143042Y-101330710D01*
X135157500Y-101330000D01*
X135452500Y-101330000D01*
X135466958Y-101330710D01*
G37*
G04 #@! TD.AperFunction*
G04 #@! TA.AperFunction,SMDPad,CuDef*
G36*
X132426958Y-100710710D02*
G01*
X132441276Y-100712834D01*
X132455317Y-100716351D01*
X132468946Y-100721228D01*
X132482031Y-100727417D01*
X132494447Y-100734858D01*
X132506073Y-100743481D01*
X132516798Y-100753202D01*
X132526519Y-100763927D01*
X132535142Y-100775553D01*
X132542583Y-100787969D01*
X132548772Y-100801054D01*
X132553649Y-100814683D01*
X132557166Y-100828724D01*
X132559290Y-100843042D01*
X132560000Y-100857500D01*
X132560000Y-101152500D01*
X132559290Y-101166958D01*
X132557166Y-101181276D01*
X132553649Y-101195317D01*
X132548772Y-101208946D01*
X132542583Y-101222031D01*
X132535142Y-101234447D01*
X132526519Y-101246073D01*
X132516798Y-101256798D01*
X132506073Y-101266519D01*
X132494447Y-101275142D01*
X132482031Y-101282583D01*
X132468946Y-101288772D01*
X132455317Y-101293649D01*
X132441276Y-101297166D01*
X132426958Y-101299290D01*
X132412500Y-101300000D01*
X132067500Y-101300000D01*
X132053042Y-101299290D01*
X132038724Y-101297166D01*
X132024683Y-101293649D01*
X132011054Y-101288772D01*
X131997969Y-101282583D01*
X131985553Y-101275142D01*
X131973927Y-101266519D01*
X131963202Y-101256798D01*
X131953481Y-101246073D01*
X131944858Y-101234447D01*
X131937417Y-101222031D01*
X131931228Y-101208946D01*
X131926351Y-101195317D01*
X131922834Y-101181276D01*
X131920710Y-101166958D01*
X131920000Y-101152500D01*
X131920000Y-100857500D01*
X131920710Y-100843042D01*
X131922834Y-100828724D01*
X131926351Y-100814683D01*
X131931228Y-100801054D01*
X131937417Y-100787969D01*
X131944858Y-100775553D01*
X131953481Y-100763927D01*
X131963202Y-100753202D01*
X131973927Y-100743481D01*
X131985553Y-100734858D01*
X131997969Y-100727417D01*
X132011054Y-100721228D01*
X132024683Y-100716351D01*
X132038724Y-100712834D01*
X132053042Y-100710710D01*
X132067500Y-100710000D01*
X132412500Y-100710000D01*
X132426958Y-100710710D01*
G37*
G04 #@! TD.AperFunction*
G04 #@! TA.AperFunction,SMDPad,CuDef*
G36*
X132426958Y-99740710D02*
G01*
X132441276Y-99742834D01*
X132455317Y-99746351D01*
X132468946Y-99751228D01*
X132482031Y-99757417D01*
X132494447Y-99764858D01*
X132506073Y-99773481D01*
X132516798Y-99783202D01*
X132526519Y-99793927D01*
X132535142Y-99805553D01*
X132542583Y-99817969D01*
X132548772Y-99831054D01*
X132553649Y-99844683D01*
X132557166Y-99858724D01*
X132559290Y-99873042D01*
X132560000Y-99887500D01*
X132560000Y-100182500D01*
X132559290Y-100196958D01*
X132557166Y-100211276D01*
X132553649Y-100225317D01*
X132548772Y-100238946D01*
X132542583Y-100252031D01*
X132535142Y-100264447D01*
X132526519Y-100276073D01*
X132516798Y-100286798D01*
X132506073Y-100296519D01*
X132494447Y-100305142D01*
X132482031Y-100312583D01*
X132468946Y-100318772D01*
X132455317Y-100323649D01*
X132441276Y-100327166D01*
X132426958Y-100329290D01*
X132412500Y-100330000D01*
X132067500Y-100330000D01*
X132053042Y-100329290D01*
X132038724Y-100327166D01*
X132024683Y-100323649D01*
X132011054Y-100318772D01*
X131997969Y-100312583D01*
X131985553Y-100305142D01*
X131973927Y-100296519D01*
X131963202Y-100286798D01*
X131953481Y-100276073D01*
X131944858Y-100264447D01*
X131937417Y-100252031D01*
X131931228Y-100238946D01*
X131926351Y-100225317D01*
X131922834Y-100211276D01*
X131920710Y-100196958D01*
X131920000Y-100182500D01*
X131920000Y-99887500D01*
X131920710Y-99873042D01*
X131922834Y-99858724D01*
X131926351Y-99844683D01*
X131931228Y-99831054D01*
X131937417Y-99817969D01*
X131944858Y-99805553D01*
X131953481Y-99793927D01*
X131963202Y-99783202D01*
X131973927Y-99773481D01*
X131985553Y-99764858D01*
X131997969Y-99757417D01*
X132011054Y-99751228D01*
X132024683Y-99746351D01*
X132038724Y-99742834D01*
X132053042Y-99740710D01*
X132067500Y-99740000D01*
X132412500Y-99740000D01*
X132426958Y-99740710D01*
G37*
G04 #@! TD.AperFunction*
D12*
X29840000Y-42510000D03*
X23490000Y-45050000D03*
X42540000Y-45050000D03*
X48890000Y-42510000D03*
X67940000Y-42510000D03*
X61590000Y-45050000D03*
X80640000Y-45050000D03*
X86990000Y-42510000D03*
X106090000Y-42510000D03*
X99740000Y-45050000D03*
X118790000Y-45050000D03*
X125140000Y-42510000D03*
X137840000Y-45050000D03*
X144190000Y-42510000D03*
X156890000Y-45050000D03*
X163240000Y-42510000D03*
X182290000Y-42510000D03*
X175940000Y-45050000D03*
X194990000Y-45050000D03*
X201340000Y-42510000D03*
X220390000Y-42510000D03*
X214040000Y-45050000D03*
X233090000Y-45050000D03*
X239440000Y-42510000D03*
X265640000Y-42510000D03*
X259290000Y-45050000D03*
X32220000Y-61560000D03*
X25870000Y-64100000D03*
X47300000Y-64100000D03*
X53650000Y-61560000D03*
X72720000Y-61560000D03*
X66370000Y-64100000D03*
X85420000Y-64100000D03*
X91770000Y-61560000D03*
X104480000Y-64100000D03*
X110830000Y-61560000D03*
X129880000Y-61560000D03*
X123530000Y-64100000D03*
X148940000Y-61570000D03*
X142590000Y-64110000D03*
X168010000Y-61570000D03*
X161660000Y-64110000D03*
X180710000Y-64120000D03*
X187060000Y-61580000D03*
X206100000Y-61580000D03*
X199750000Y-64120000D03*
X218800000Y-64110000D03*
X225150000Y-61570000D03*
X244210000Y-61570000D03*
X237860000Y-64110000D03*
X261680000Y-64120000D03*
X268030000Y-61580000D03*
X30630000Y-83150000D03*
X36980000Y-80610000D03*
X56830000Y-83150000D03*
X63180000Y-80610000D03*
X82240000Y-80610000D03*
X75890000Y-83150000D03*
X94940000Y-83150000D03*
X101290000Y-80610000D03*
X120340000Y-80610000D03*
X113990000Y-83150000D03*
X133040000Y-83170000D03*
X139390000Y-80630000D03*
X158460000Y-80620000D03*
X152110000Y-83160000D03*
X171200000Y-83170000D03*
X177550000Y-80630000D03*
X196600000Y-80630000D03*
X190250000Y-83170000D03*
X209310000Y-83170000D03*
X215660000Y-80630000D03*
X228360000Y-83170000D03*
X234710000Y-80630000D03*
X253760000Y-80640000D03*
X247410000Y-83180000D03*
X266450000Y-83180000D03*
X272800000Y-80640000D03*
X32210000Y-99650000D03*
X25860000Y-102190000D03*
X49670000Y-102190000D03*
X56020000Y-99650000D03*
X73480000Y-102210000D03*
X79830000Y-99670000D03*
X196520000Y-99680000D03*
X190170000Y-102220000D03*
X215610000Y-99680000D03*
X209260000Y-102220000D03*
X234670000Y-99670000D03*
X228320000Y-102210000D03*
X247380000Y-102220000D03*
X253730000Y-99680000D03*
X272780000Y-99700000D03*
X266430000Y-102240000D03*
D14*
X114189994Y-52885000D03*
X132680006Y-92485000D03*
X251680000Y-50970000D03*
X248445000Y-50940000D03*
X128890000Y-100050000D03*
X132250000Y-99110000D03*
X137190000Y-101640000D03*
X137050000Y-107390000D03*
X128910000Y-106450000D03*
X131900000Y-106440000D03*
X137050000Y-104400000D03*
X134200000Y-101650000D03*
X132240000Y-102140000D03*
X130790000Y-101210000D03*
X132440549Y-112025066D03*
X131440566Y-112018817D03*
X130440566Y-112020693D03*
X129440645Y-112007973D03*
X116190000Y-52885000D03*
X130680000Y-92485000D03*
X115189997Y-52885000D03*
X131680003Y-92485000D03*
X122440814Y-101546120D03*
X123610000Y-101690000D03*
X135440000Y-112030000D03*
X134440092Y-112016303D03*
X133440228Y-111999672D03*
X113189991Y-52885000D03*
X128779989Y-92485000D03*
D15*
X114189994Y-52885000D02*
X114189994Y-53378223D01*
X115289982Y-62718804D02*
X122743980Y-70172802D01*
X114189994Y-53378223D02*
X115289982Y-54478211D01*
X115289982Y-54478211D02*
X115289982Y-62718804D01*
X123671071Y-71099893D02*
X123671071Y-76723891D01*
X122743980Y-70172802D02*
X123671071Y-71099893D01*
X132680006Y-92557999D02*
X132680006Y-92485000D01*
X129504989Y-82557809D02*
X129504990Y-93019402D01*
X123671071Y-76723891D02*
X129504989Y-82557809D01*
X129504990Y-93019402D02*
X130145599Y-93660011D01*
X131577994Y-93660011D02*
X132680006Y-92557999D01*
X130145599Y-93660011D02*
X131577994Y-93660011D01*
X251680000Y-50970000D02*
X248475000Y-50970000D01*
X248475000Y-50970000D02*
X248445000Y-50940000D01*
X132247134Y-99957866D02*
X132240000Y-99965000D01*
X137050000Y-107390000D02*
X137050000Y-106475000D01*
X128910000Y-106450000D02*
X129825000Y-106450000D01*
X129805000Y-100050000D02*
X129815000Y-100060000D01*
X128890000Y-100050000D02*
X129805000Y-100050000D01*
X132250000Y-100025000D02*
X132240000Y-100035000D01*
X132250000Y-99110000D02*
X132250000Y-100025000D01*
X136285000Y-101640000D02*
X136275000Y-101650000D01*
X137190000Y-101640000D02*
X136285000Y-101640000D01*
X128910000Y-107380000D02*
X128910000Y-106450000D01*
X137050000Y-107390000D02*
X128920000Y-107390000D01*
X128920000Y-107390000D02*
X128910000Y-107380000D01*
X128910000Y-100070000D02*
X128890000Y-100050000D01*
X128910000Y-106450000D02*
X128910000Y-100070000D01*
X128900000Y-99110000D02*
X132250000Y-99110000D01*
X128890000Y-100050000D02*
X128890000Y-99120000D01*
X128890000Y-99120000D02*
X128900000Y-99110000D01*
X137190000Y-99110000D02*
X137190000Y-101640000D01*
X132250000Y-99110000D02*
X137190000Y-99110000D01*
X130795000Y-106450000D02*
X131890000Y-106450000D01*
X131890000Y-106450000D02*
X131900000Y-106440000D01*
X137050000Y-105505000D02*
X137050000Y-104400000D01*
X135305000Y-101650000D02*
X134200000Y-101650000D01*
X132240000Y-101005000D02*
X132240000Y-102140000D01*
X130785000Y-100060000D02*
X130785000Y-101205000D01*
X130785000Y-101205000D02*
X130790000Y-101210000D01*
X24745001Y-62975001D02*
X25870000Y-64100000D01*
X24614999Y-46174999D02*
X24614999Y-62844999D01*
X24614999Y-62844999D02*
X24745001Y-62975001D01*
X23490000Y-45050000D02*
X24614999Y-46174999D01*
X29505001Y-82025001D02*
X30630000Y-83150000D01*
X27361099Y-65591099D02*
X27361099Y-79881099D01*
X27361099Y-79881099D02*
X29505001Y-82025001D01*
X25870000Y-64100000D02*
X27361099Y-65591099D01*
X30630000Y-97420000D02*
X25860000Y-102190000D01*
X30630000Y-83150000D02*
X30630000Y-97420000D01*
X194990000Y-59360000D02*
X199750000Y-64120000D01*
X194990000Y-45050000D02*
X194990000Y-59360000D01*
X208185001Y-82045001D02*
X209310000Y-83170000D01*
X201241099Y-75101099D02*
X208185001Y-82045001D01*
X201241099Y-65611099D02*
X201241099Y-75101099D01*
X199750000Y-64120000D02*
X201241099Y-65611099D01*
X209310000Y-102170000D02*
X209260000Y-102220000D01*
X209310000Y-83170000D02*
X209310000Y-102170000D01*
X209260000Y-105266002D02*
X199591971Y-114934031D01*
X209260000Y-102220000D02*
X209260000Y-105266002D01*
X199591971Y-114934031D02*
X135301585Y-114934031D01*
X135301585Y-114934031D02*
X132440549Y-112072995D01*
X132440549Y-112072995D02*
X132440549Y-112025066D01*
X214040000Y-59350000D02*
X218800000Y-64110000D01*
X214040000Y-45050000D02*
X214040000Y-59350000D01*
X220291099Y-75101099D02*
X227235001Y-82045001D01*
X220291099Y-67192089D02*
X220291099Y-75101099D01*
X227235001Y-82045001D02*
X228360000Y-83170000D01*
X218800000Y-65700990D02*
X220291099Y-67192089D01*
X218800000Y-64110000D02*
X218800000Y-65700990D01*
X228360000Y-102170000D02*
X228320000Y-102210000D01*
X228360000Y-83170000D02*
X228360000Y-102170000D01*
X226729010Y-102210000D02*
X213554969Y-115384041D01*
X213554969Y-115384041D02*
X134726522Y-115384041D01*
X228320000Y-102210000D02*
X226729010Y-102210000D01*
X131440566Y-112098085D02*
X131440566Y-112018817D01*
X134726522Y-115384041D02*
X131440566Y-112098085D01*
X236735001Y-62985001D02*
X237860000Y-64110000D01*
X234214999Y-60464999D02*
X236735001Y-62985001D01*
X234214999Y-46174999D02*
X234214999Y-60464999D01*
X233090000Y-45050000D02*
X234214999Y-46174999D01*
X237860000Y-73630000D02*
X247410000Y-83180000D01*
X237860000Y-64110000D02*
X237860000Y-73630000D01*
X247410000Y-102190000D02*
X247380000Y-102220000D01*
X247410000Y-83180000D02*
X247410000Y-102190000D01*
X247380000Y-102220000D02*
X247380000Y-105266002D01*
X247380000Y-105266002D02*
X236811951Y-115834051D01*
X236811951Y-115834051D02*
X134182798Y-115834051D01*
X130440566Y-112091819D02*
X130440566Y-112020693D01*
X134182798Y-115834051D02*
X130440566Y-112091819D01*
X259290000Y-61730000D02*
X261680000Y-64120000D01*
X259290000Y-45050000D02*
X259290000Y-61730000D01*
X261680000Y-78410000D02*
X266450000Y-83180000D01*
X261680000Y-64120000D02*
X261680000Y-78410000D01*
X266450000Y-102220000D02*
X266430000Y-102240000D01*
X266450000Y-83180000D02*
X266450000Y-102220000D01*
X264839010Y-102240000D02*
X250794949Y-116284061D01*
X266430000Y-102240000D02*
X264839010Y-102240000D01*
X129440645Y-112093774D02*
X129440645Y-112007973D01*
X250794949Y-116284061D02*
X133630932Y-116284061D01*
X133630932Y-116284061D02*
X129440645Y-112093774D01*
X116190000Y-52885000D02*
X116190000Y-58250000D01*
X116190000Y-62346002D02*
X123643998Y-69800000D01*
X116190000Y-58250000D02*
X116190000Y-62346002D01*
X124571089Y-70727091D02*
X124571089Y-76351089D01*
X123643998Y-69800000D02*
X124571089Y-70727091D01*
X124571089Y-76351089D02*
X130660000Y-82440000D01*
X130569999Y-92374999D02*
X130680000Y-92485000D01*
X130660000Y-82440000D02*
X130569999Y-82530001D01*
X130569999Y-82530001D02*
X130569999Y-92374999D01*
X115189997Y-52885000D02*
X115189997Y-53720007D01*
X115739991Y-62532403D02*
X123193989Y-69986401D01*
X115189997Y-53720007D02*
X115739990Y-54270000D01*
X115739990Y-54270000D02*
X115739991Y-62532403D01*
X124121079Y-70913491D02*
X124121080Y-76537490D01*
X123193989Y-69986401D02*
X124121079Y-70913491D01*
X124121080Y-76537490D02*
X130119989Y-82536399D01*
X131405001Y-92833001D02*
X131405001Y-92760002D01*
X129954999Y-82701389D02*
X129954999Y-92833001D01*
X130331999Y-93210001D02*
X131028001Y-93210001D01*
X130119989Y-82536399D02*
X129954999Y-82701389D01*
X131405001Y-92760002D02*
X131680003Y-92485000D01*
X129954999Y-92833001D02*
X130331999Y-93210001D01*
X131028001Y-93210001D02*
X131405001Y-92833001D01*
X46175001Y-62975001D02*
X47300000Y-64100000D01*
X44031099Y-46541099D02*
X44031099Y-60831099D01*
X44031099Y-60831099D02*
X46175001Y-62975001D01*
X42540000Y-45050000D02*
X44031099Y-46541099D01*
X55705001Y-82025001D02*
X56830000Y-83150000D01*
X48424999Y-74744999D02*
X55705001Y-82025001D01*
X48424999Y-65224999D02*
X48424999Y-74744999D01*
X47300000Y-64100000D02*
X48424999Y-65224999D01*
X50794999Y-101065001D02*
X49670000Y-102190000D01*
X57954999Y-93905001D02*
X50794999Y-101065001D01*
X57954999Y-84274999D02*
X57954999Y-93905001D01*
X56830000Y-83150000D02*
X57954999Y-84274999D01*
X61590000Y-59320000D02*
X66370000Y-64100000D01*
X61590000Y-45050000D02*
X61590000Y-59320000D01*
X66370000Y-73630000D02*
X75890000Y-83150000D01*
X66370000Y-64100000D02*
X66370000Y-73630000D01*
X75890000Y-99800000D02*
X73480000Y-102210000D01*
X75890000Y-83150000D02*
X75890000Y-99800000D01*
X80640000Y-59320000D02*
X85420000Y-64100000D01*
X80640000Y-45050000D02*
X80640000Y-59320000D01*
X85420000Y-73630000D02*
X94940000Y-83150000D01*
X85420000Y-64100000D02*
X85420000Y-73630000D01*
X105695001Y-101065001D02*
X106820000Y-102190000D01*
X94940000Y-89259276D02*
X105695001Y-100014277D01*
X105695001Y-100014277D02*
X105695001Y-101065001D01*
X94940000Y-83150000D02*
X94940000Y-89259276D01*
X101231099Y-60851099D02*
X103355001Y-62975001D01*
X101231099Y-46541099D02*
X101231099Y-60851099D01*
X103355001Y-62975001D02*
X104480000Y-64100000D01*
X99740000Y-45050000D02*
X101231099Y-46541099D01*
X105604999Y-74764999D02*
X112865001Y-82025001D01*
X112865001Y-82025001D02*
X113990000Y-83150000D01*
X105604999Y-65224999D02*
X105604999Y-74764999D01*
X104480000Y-64100000D02*
X105604999Y-65224999D01*
X113990000Y-83150000D02*
X113990000Y-93145131D01*
X113990000Y-93145131D02*
X114039825Y-93145131D01*
X114039825Y-93145131D02*
X122440814Y-101546120D01*
X118790000Y-59360000D02*
X123530000Y-64100000D01*
X118790000Y-45050000D02*
X118790000Y-59360000D01*
X125021099Y-75151099D02*
X131915001Y-82045001D01*
X123530000Y-65690990D02*
X125021099Y-67182089D01*
X131915001Y-82045001D02*
X133040000Y-83170000D01*
X125021099Y-67182089D02*
X125021099Y-75151099D01*
X123530000Y-64100000D02*
X123530000Y-65690990D01*
X134164999Y-84294999D02*
X134164999Y-92073009D01*
X134164999Y-92073009D02*
X132127987Y-94110021D01*
X133040000Y-83170000D02*
X134164999Y-84294999D01*
X120217349Y-95361927D02*
X120217349Y-98297349D01*
X121469255Y-94110021D02*
X120217349Y-95361927D01*
X120217349Y-98297349D02*
X123610000Y-101690000D01*
X132127987Y-94110021D02*
X121469255Y-94110021D01*
X138964999Y-60484999D02*
X141465001Y-62985001D01*
X141465001Y-62985001D02*
X142590000Y-64110000D01*
X138964999Y-46174999D02*
X138964999Y-60484999D01*
X137840000Y-45050000D02*
X138964999Y-46174999D01*
X142590000Y-73640000D02*
X150820000Y-81870000D01*
X142590000Y-64110000D02*
X142590000Y-73640000D01*
X150820000Y-81870000D02*
X152110000Y-83160000D01*
X153234999Y-100994999D02*
X153325001Y-101085001D01*
X153234999Y-84284999D02*
X153234999Y-100994999D01*
X153325001Y-101085001D02*
X154450000Y-102210000D01*
X152110000Y-83160000D02*
X153234999Y-84284999D01*
X136994001Y-113584001D02*
X135440000Y-112030000D01*
X154450000Y-102210000D02*
X154450000Y-106375272D01*
X147241271Y-113584001D02*
X136994001Y-113584001D01*
X154450000Y-106375272D02*
X147241271Y-113584001D01*
X156890000Y-59340000D02*
X161660000Y-64110000D01*
X156890000Y-45050000D02*
X156890000Y-59340000D01*
X161660000Y-73630000D02*
X171200000Y-83170000D01*
X161660000Y-64110000D02*
X161660000Y-73630000D01*
X134440092Y-112103094D02*
X134440092Y-112016303D01*
X136371009Y-114034011D02*
X134440092Y-112103094D01*
X169609010Y-83170000D02*
X155900001Y-96879009D01*
X147427671Y-114034011D02*
X136371009Y-114034011D01*
X171200000Y-83170000D02*
X169609010Y-83170000D01*
X155900001Y-96879009D02*
X155900001Y-105561681D01*
X155900001Y-105561681D02*
X147427671Y-114034011D01*
X175940000Y-59350000D02*
X180710000Y-64120000D01*
X175940000Y-45050000D02*
X175940000Y-59350000D01*
X180710000Y-73630000D02*
X190250000Y-83170000D01*
X180710000Y-64120000D02*
X180710000Y-73630000D01*
X190250000Y-102140000D02*
X190170000Y-102220000D01*
X190250000Y-83170000D02*
X190250000Y-102140000D01*
X188579010Y-102220000D02*
X176314989Y-114484021D01*
X176314989Y-114484021D02*
X135834808Y-114484021D01*
X190170000Y-102220000D02*
X188579010Y-102220000D01*
X135834808Y-114484021D02*
X133440228Y-112089441D01*
X133440228Y-112089441D02*
X133440228Y-111999672D01*
X114839972Y-54689972D02*
X114839972Y-62905204D01*
X113189991Y-52885000D02*
X113189991Y-53039991D01*
X113189991Y-53039991D02*
X114839972Y-54689972D01*
X114839972Y-62909972D02*
X123221061Y-71291061D01*
X114839972Y-62905204D02*
X114839972Y-62909972D01*
X123221061Y-71291061D02*
X123221062Y-76910292D01*
X129054981Y-82744211D02*
X129054981Y-91055019D01*
X123221062Y-76910292D02*
X129054981Y-82744211D01*
X129054981Y-91055019D02*
X128779989Y-91330011D01*
X128779989Y-91330011D02*
X128779989Y-92485000D01*
M02*
