G04 #@! TF.GenerationSoftware,KiCad,Pcbnew,(5.1.5)-3*
G04 #@! TF.CreationDate,2020-05-19T14:28:27+02:00*
G04 #@! TF.ProjectId,40 with arrows,34302520-7769-4746-9820-6172726f7773,rev?*
G04 #@! TF.SameCoordinates,Original*
G04 #@! TF.FileFunction,Soldermask,Top*
G04 #@! TF.FilePolarity,Negative*
%FSLAX46Y46*%
G04 Gerber Fmt 4.6, Leading zero omitted, Abs format (unit mm)*
G04 Created by KiCad (PCBNEW (5.1.5)-3) date 2020-05-19 14:28:27*
%MOMM*%
%LPD*%
G04 APERTURE LIST*
%ADD10C,0.100000*%
G04 APERTURE END LIST*
D10*
G36*
X170473517Y-110190263D02*
G01*
X170625661Y-110220526D01*
X170744387Y-110269704D01*
X170912291Y-110339252D01*
X170912292Y-110339253D01*
X171170254Y-110511617D01*
X171389633Y-110730996D01*
X171504803Y-110903361D01*
X171561998Y-110988959D01*
X171631546Y-111156863D01*
X171672440Y-111255589D01*
X171680724Y-111275590D01*
X171741250Y-111579875D01*
X171741250Y-111890125D01*
X171680724Y-112194410D01*
X171561998Y-112481041D01*
X171561997Y-112481042D01*
X171389633Y-112739004D01*
X171170254Y-112958383D01*
X170997889Y-113073553D01*
X170912291Y-113130748D01*
X170744387Y-113200296D01*
X170625661Y-113249474D01*
X170321375Y-113310000D01*
X170011125Y-113310000D01*
X169706839Y-113249474D01*
X169588113Y-113200296D01*
X169420209Y-113130748D01*
X169334611Y-113073553D01*
X169162246Y-112958383D01*
X168942867Y-112739004D01*
X168770503Y-112481042D01*
X168770502Y-112481041D01*
X168651776Y-112194410D01*
X168591250Y-111890125D01*
X168591250Y-111579875D01*
X168651776Y-111275590D01*
X168660061Y-111255589D01*
X168700954Y-111156863D01*
X168770502Y-110988959D01*
X168827697Y-110903361D01*
X168942867Y-110730996D01*
X169162246Y-110511617D01*
X169420208Y-110339253D01*
X169420209Y-110339252D01*
X169588113Y-110269704D01*
X169706839Y-110220526D01*
X169858983Y-110190263D01*
X170011125Y-110160000D01*
X170321375Y-110160000D01*
X170473517Y-110190263D01*
G37*
G36*
X146661017Y-110190263D02*
G01*
X146813161Y-110220526D01*
X146931887Y-110269704D01*
X147099791Y-110339252D01*
X147099792Y-110339253D01*
X147357754Y-110511617D01*
X147577133Y-110730996D01*
X147692303Y-110903361D01*
X147749498Y-110988959D01*
X147819046Y-111156863D01*
X147859940Y-111255589D01*
X147868224Y-111275590D01*
X147928750Y-111579875D01*
X147928750Y-111890125D01*
X147868224Y-112194410D01*
X147749498Y-112481041D01*
X147749497Y-112481042D01*
X147577133Y-112739004D01*
X147357754Y-112958383D01*
X147185389Y-113073553D01*
X147099791Y-113130748D01*
X146931887Y-113200296D01*
X146813161Y-113249474D01*
X146508875Y-113310000D01*
X146198625Y-113310000D01*
X145894339Y-113249474D01*
X145775613Y-113200296D01*
X145607709Y-113130748D01*
X145522111Y-113073553D01*
X145349746Y-112958383D01*
X145130367Y-112739004D01*
X144958003Y-112481042D01*
X144958002Y-112481041D01*
X144839276Y-112194410D01*
X144778750Y-111890125D01*
X144778750Y-111579875D01*
X144839276Y-111275590D01*
X144847561Y-111255589D01*
X144888454Y-111156863D01*
X144958002Y-110988959D01*
X145015197Y-110903361D01*
X145130367Y-110730996D01*
X145349746Y-110511617D01*
X145607708Y-110339253D01*
X145607709Y-110339252D01*
X145775613Y-110269704D01*
X145894339Y-110220526D01*
X146046483Y-110190263D01*
X146198625Y-110160000D01*
X146508875Y-110160000D01*
X146661017Y-110190263D01*
G37*
G36*
X98979422Y-110160000D02*
G01*
X99183161Y-110200526D01*
X99301887Y-110249704D01*
X99469791Y-110319252D01*
X99555389Y-110376447D01*
X99727754Y-110491617D01*
X99947133Y-110710996D01*
X99960497Y-110730997D01*
X100119498Y-110968959D01*
X100127782Y-110988959D01*
X100238224Y-111255589D01*
X100298750Y-111559876D01*
X100298750Y-111870124D01*
X100238224Y-112174411D01*
X100189046Y-112293137D01*
X100119498Y-112461041D01*
X100062303Y-112546639D01*
X99947133Y-112719004D01*
X99727754Y-112938383D01*
X99555389Y-113053553D01*
X99469791Y-113110748D01*
X99301887Y-113180296D01*
X99183161Y-113229474D01*
X99082613Y-113249474D01*
X98878875Y-113290000D01*
X98568625Y-113290000D01*
X98364887Y-113249474D01*
X98264339Y-113229474D01*
X98145613Y-113180296D01*
X97977709Y-113110748D01*
X97892111Y-113053553D01*
X97719746Y-112938383D01*
X97500367Y-112719004D01*
X97385197Y-112546639D01*
X97328002Y-112461041D01*
X97258454Y-112293137D01*
X97209276Y-112174411D01*
X97148750Y-111870124D01*
X97148750Y-111559876D01*
X97209276Y-111255589D01*
X97319718Y-110988959D01*
X97328002Y-110968959D01*
X97487003Y-110730997D01*
X97500367Y-110710996D01*
X97719746Y-110491617D01*
X97892111Y-110376447D01*
X97977709Y-110319252D01*
X98145613Y-110249704D01*
X98264339Y-110200526D01*
X98468078Y-110160000D01*
X98568625Y-110140000D01*
X98878875Y-110140000D01*
X98979422Y-110160000D01*
G37*
G36*
X122791922Y-110160000D02*
G01*
X122995661Y-110200526D01*
X123114387Y-110249704D01*
X123282291Y-110319252D01*
X123367889Y-110376447D01*
X123540254Y-110491617D01*
X123759633Y-110710996D01*
X123772997Y-110730997D01*
X123931998Y-110968959D01*
X123940282Y-110988959D01*
X124050724Y-111255589D01*
X124111250Y-111559876D01*
X124111250Y-111870124D01*
X124050724Y-112174411D01*
X124001546Y-112293137D01*
X123931998Y-112461041D01*
X123874803Y-112546639D01*
X123759633Y-112719004D01*
X123540254Y-112938383D01*
X123367889Y-113053553D01*
X123282291Y-113110748D01*
X123114387Y-113180296D01*
X122995661Y-113229474D01*
X122895113Y-113249474D01*
X122691375Y-113290000D01*
X122381125Y-113290000D01*
X122177387Y-113249474D01*
X122076839Y-113229474D01*
X121958113Y-113180296D01*
X121790209Y-113110748D01*
X121704611Y-113053553D01*
X121532246Y-112938383D01*
X121312867Y-112719004D01*
X121197697Y-112546639D01*
X121140502Y-112461041D01*
X121070954Y-112293137D01*
X121021776Y-112174411D01*
X120961250Y-111870124D01*
X120961250Y-111559876D01*
X121021776Y-111255589D01*
X121132218Y-110988959D01*
X121140502Y-110968959D01*
X121299503Y-110730997D01*
X121312867Y-110710996D01*
X121532246Y-110491617D01*
X121704611Y-110376447D01*
X121790209Y-110319252D01*
X121958113Y-110249704D01*
X122076839Y-110200526D01*
X122280578Y-110160000D01*
X122381125Y-110140000D01*
X122691375Y-110140000D01*
X122791922Y-110160000D01*
G37*
G36*
X270836474Y-102813684D02*
G01*
X271054474Y-102903983D01*
X271208623Y-102967833D01*
X271543548Y-103191623D01*
X271828377Y-103476452D01*
X272052167Y-103811377D01*
X272084562Y-103889586D01*
X272206316Y-104183526D01*
X272284900Y-104578594D01*
X272284900Y-104981406D01*
X272206316Y-105376474D01*
X272155451Y-105499272D01*
X272052167Y-105748623D01*
X271828377Y-106083548D01*
X271543548Y-106368377D01*
X271208623Y-106592167D01*
X271054474Y-106656017D01*
X270836474Y-106746316D01*
X270441406Y-106824900D01*
X270038594Y-106824900D01*
X269643526Y-106746316D01*
X269425526Y-106656017D01*
X269271377Y-106592167D01*
X268936452Y-106368377D01*
X268651623Y-106083548D01*
X268427833Y-105748623D01*
X268324549Y-105499272D01*
X268273684Y-105376474D01*
X268195100Y-104981406D01*
X268195100Y-104578594D01*
X268273684Y-104183526D01*
X268395438Y-103889586D01*
X268427833Y-103811377D01*
X268651623Y-103476452D01*
X268936452Y-103191623D01*
X269271377Y-102967833D01*
X269425526Y-102903983D01*
X269643526Y-102813684D01*
X270038594Y-102735100D01*
X270441406Y-102735100D01*
X270836474Y-102813684D01*
G37*
G36*
X137331938Y-106131716D02*
G01*
X137352557Y-106137971D01*
X137371553Y-106148124D01*
X137388208Y-106161792D01*
X137401876Y-106178447D01*
X137412029Y-106197443D01*
X137418284Y-106218062D01*
X137421000Y-106245640D01*
X137421000Y-106704360D01*
X137418284Y-106731938D01*
X137412029Y-106752557D01*
X137401876Y-106771553D01*
X137388208Y-106788208D01*
X137371553Y-106801876D01*
X137352557Y-106812029D01*
X137331938Y-106818284D01*
X137304360Y-106821000D01*
X136795640Y-106821000D01*
X136768062Y-106818284D01*
X136747443Y-106812029D01*
X136728447Y-106801876D01*
X136711792Y-106788208D01*
X136698124Y-106771553D01*
X136687971Y-106752557D01*
X136681716Y-106731938D01*
X136679000Y-106704360D01*
X136679000Y-106245640D01*
X136681716Y-106218062D01*
X136687971Y-106197443D01*
X136698124Y-106178447D01*
X136711792Y-106161792D01*
X136728447Y-106148124D01*
X136747443Y-106137971D01*
X136768062Y-106131716D01*
X136795640Y-106129000D01*
X137304360Y-106129000D01*
X137331938Y-106131716D01*
G37*
G36*
X131051938Y-106081716D02*
G01*
X131072557Y-106087971D01*
X131091553Y-106098124D01*
X131108208Y-106111792D01*
X131121876Y-106128447D01*
X131132029Y-106147443D01*
X131138284Y-106168062D01*
X131141000Y-106195640D01*
X131141000Y-106704360D01*
X131138284Y-106731938D01*
X131132029Y-106752557D01*
X131121876Y-106771553D01*
X131108208Y-106788208D01*
X131091553Y-106801876D01*
X131072557Y-106812029D01*
X131051938Y-106818284D01*
X131024360Y-106821000D01*
X130565640Y-106821000D01*
X130538062Y-106818284D01*
X130517443Y-106812029D01*
X130498447Y-106801876D01*
X130481792Y-106788208D01*
X130468124Y-106771553D01*
X130457971Y-106752557D01*
X130451716Y-106731938D01*
X130449000Y-106704360D01*
X130449000Y-106195640D01*
X130451716Y-106168062D01*
X130457971Y-106147443D01*
X130468124Y-106128447D01*
X130481792Y-106111792D01*
X130498447Y-106098124D01*
X130517443Y-106087971D01*
X130538062Y-106081716D01*
X130565640Y-106079000D01*
X131024360Y-106079000D01*
X131051938Y-106081716D01*
G37*
G36*
X130081938Y-106081716D02*
G01*
X130102557Y-106087971D01*
X130121553Y-106098124D01*
X130138208Y-106111792D01*
X130151876Y-106128447D01*
X130162029Y-106147443D01*
X130168284Y-106168062D01*
X130171000Y-106195640D01*
X130171000Y-106704360D01*
X130168284Y-106731938D01*
X130162029Y-106752557D01*
X130151876Y-106771553D01*
X130138208Y-106788208D01*
X130121553Y-106801876D01*
X130102557Y-106812029D01*
X130081938Y-106818284D01*
X130054360Y-106821000D01*
X129595640Y-106821000D01*
X129568062Y-106818284D01*
X129547443Y-106812029D01*
X129528447Y-106801876D01*
X129511792Y-106788208D01*
X129498124Y-106771553D01*
X129487971Y-106752557D01*
X129481716Y-106731938D01*
X129479000Y-106704360D01*
X129479000Y-106195640D01*
X129481716Y-106168062D01*
X129487971Y-106147443D01*
X129498124Y-106128447D01*
X129511792Y-106111792D01*
X129528447Y-106098124D01*
X129547443Y-106087971D01*
X129568062Y-106081716D01*
X129595640Y-106079000D01*
X130054360Y-106079000D01*
X130081938Y-106081716D01*
G37*
G36*
X194576474Y-102793684D02*
G01*
X194794474Y-102883983D01*
X194948623Y-102947833D01*
X195283548Y-103171623D01*
X195568377Y-103456452D01*
X195792167Y-103791377D01*
X195824562Y-103869586D01*
X195946316Y-104163526D01*
X196024900Y-104558594D01*
X196024900Y-104961406D01*
X195946316Y-105356474D01*
X195895451Y-105479272D01*
X195792167Y-105728623D01*
X195568377Y-106063548D01*
X195283548Y-106348377D01*
X194948623Y-106572167D01*
X194900338Y-106592167D01*
X194576474Y-106726316D01*
X194181406Y-106804900D01*
X193778594Y-106804900D01*
X193383526Y-106726316D01*
X193059662Y-106592167D01*
X193011377Y-106572167D01*
X192676452Y-106348377D01*
X192391623Y-106063548D01*
X192167833Y-105728623D01*
X192064549Y-105479272D01*
X192013684Y-105356474D01*
X191935100Y-104961406D01*
X191935100Y-104558594D01*
X192013684Y-104163526D01*
X192135438Y-103869586D01*
X192167833Y-103791377D01*
X192391623Y-103456452D01*
X192676452Y-103171623D01*
X193011377Y-102947833D01*
X193165526Y-102883983D01*
X193383526Y-102793684D01*
X193778594Y-102715100D01*
X194181406Y-102715100D01*
X194576474Y-102793684D01*
G37*
G36*
X213666474Y-102793684D02*
G01*
X213884474Y-102883983D01*
X214038623Y-102947833D01*
X214373548Y-103171623D01*
X214658377Y-103456452D01*
X214882167Y-103791377D01*
X214914562Y-103869586D01*
X215036316Y-104163526D01*
X215114900Y-104558594D01*
X215114900Y-104961406D01*
X215036316Y-105356474D01*
X214985451Y-105479272D01*
X214882167Y-105728623D01*
X214658377Y-106063548D01*
X214373548Y-106348377D01*
X214038623Y-106572167D01*
X213990338Y-106592167D01*
X213666474Y-106726316D01*
X213271406Y-106804900D01*
X212868594Y-106804900D01*
X212473526Y-106726316D01*
X212149662Y-106592167D01*
X212101377Y-106572167D01*
X211766452Y-106348377D01*
X211481623Y-106063548D01*
X211257833Y-105728623D01*
X211154549Y-105479272D01*
X211103684Y-105356474D01*
X211025100Y-104961406D01*
X211025100Y-104558594D01*
X211103684Y-104163526D01*
X211225438Y-103869586D01*
X211257833Y-103791377D01*
X211481623Y-103456452D01*
X211766452Y-103171623D01*
X212101377Y-102947833D01*
X212255526Y-102883983D01*
X212473526Y-102793684D01*
X212868594Y-102715100D01*
X213271406Y-102715100D01*
X213666474Y-102793684D01*
G37*
G36*
X251786474Y-102793684D02*
G01*
X252004474Y-102883983D01*
X252158623Y-102947833D01*
X252493548Y-103171623D01*
X252778377Y-103456452D01*
X253002167Y-103791377D01*
X253034562Y-103869586D01*
X253156316Y-104163526D01*
X253234900Y-104558594D01*
X253234900Y-104961406D01*
X253156316Y-105356474D01*
X253105451Y-105479272D01*
X253002167Y-105728623D01*
X252778377Y-106063548D01*
X252493548Y-106348377D01*
X252158623Y-106572167D01*
X252110338Y-106592167D01*
X251786474Y-106726316D01*
X251391406Y-106804900D01*
X250988594Y-106804900D01*
X250593526Y-106726316D01*
X250269662Y-106592167D01*
X250221377Y-106572167D01*
X249886452Y-106348377D01*
X249601623Y-106063548D01*
X249377833Y-105728623D01*
X249274549Y-105479272D01*
X249223684Y-105356474D01*
X249145100Y-104961406D01*
X249145100Y-104558594D01*
X249223684Y-104163526D01*
X249345438Y-103869586D01*
X249377833Y-103791377D01*
X249601623Y-103456452D01*
X249886452Y-103171623D01*
X250221377Y-102947833D01*
X250375526Y-102883983D01*
X250593526Y-102793684D01*
X250988594Y-102715100D01*
X251391406Y-102715100D01*
X251786474Y-102793684D01*
G37*
G36*
X232726474Y-102783684D02*
G01*
X232944474Y-102873983D01*
X233098623Y-102937833D01*
X233433548Y-103161623D01*
X233718377Y-103446452D01*
X233942167Y-103781377D01*
X233974562Y-103859586D01*
X234096316Y-104153526D01*
X234174900Y-104548594D01*
X234174900Y-104951406D01*
X234096316Y-105346474D01*
X234041309Y-105479272D01*
X233942167Y-105718623D01*
X233718377Y-106053548D01*
X233433548Y-106338377D01*
X233098623Y-106562167D01*
X233026196Y-106592167D01*
X232726474Y-106716316D01*
X232331406Y-106794900D01*
X231928594Y-106794900D01*
X231533526Y-106716316D01*
X231233804Y-106592167D01*
X231161377Y-106562167D01*
X230826452Y-106338377D01*
X230541623Y-106053548D01*
X230317833Y-105718623D01*
X230218691Y-105479272D01*
X230163684Y-105346474D01*
X230085100Y-104951406D01*
X230085100Y-104548594D01*
X230163684Y-104153526D01*
X230285438Y-103859586D01*
X230317833Y-103781377D01*
X230541623Y-103446452D01*
X230826452Y-103161623D01*
X231161377Y-102937833D01*
X231315526Y-102873983D01*
X231533526Y-102783684D01*
X231928594Y-102705100D01*
X232331406Y-102705100D01*
X232726474Y-102783684D01*
G37*
G36*
X77886474Y-102783684D02*
G01*
X78104474Y-102873983D01*
X78258623Y-102937833D01*
X78593548Y-103161623D01*
X78878377Y-103446452D01*
X79102167Y-103781377D01*
X79134562Y-103859586D01*
X79256316Y-104153526D01*
X79334900Y-104548594D01*
X79334900Y-104951406D01*
X79256316Y-105346474D01*
X79201309Y-105479272D01*
X79102167Y-105718623D01*
X78878377Y-106053548D01*
X78593548Y-106338377D01*
X78258623Y-106562167D01*
X78186196Y-106592167D01*
X77886474Y-106716316D01*
X77491406Y-106794900D01*
X77088594Y-106794900D01*
X76693526Y-106716316D01*
X76393804Y-106592167D01*
X76321377Y-106562167D01*
X75986452Y-106338377D01*
X75701623Y-106053548D01*
X75477833Y-105718623D01*
X75378691Y-105479272D01*
X75323684Y-105346474D01*
X75245100Y-104951406D01*
X75245100Y-104548594D01*
X75323684Y-104153526D01*
X75445438Y-103859586D01*
X75477833Y-103781377D01*
X75701623Y-103446452D01*
X75986452Y-103161623D01*
X76321377Y-102937833D01*
X76475526Y-102873983D01*
X76693526Y-102783684D01*
X77088594Y-102705100D01*
X77491406Y-102705100D01*
X77886474Y-102783684D01*
G37*
G36*
X158856474Y-102783684D02*
G01*
X159074474Y-102873983D01*
X159228623Y-102937833D01*
X159563548Y-103161623D01*
X159848377Y-103446452D01*
X160072167Y-103781377D01*
X160104562Y-103859586D01*
X160226316Y-104153526D01*
X160304900Y-104548594D01*
X160304900Y-104951406D01*
X160226316Y-105346474D01*
X160171309Y-105479272D01*
X160072167Y-105718623D01*
X159848377Y-106053548D01*
X159563548Y-106338377D01*
X159228623Y-106562167D01*
X159156196Y-106592167D01*
X158856474Y-106716316D01*
X158461406Y-106794900D01*
X158058594Y-106794900D01*
X157663526Y-106716316D01*
X157363804Y-106592167D01*
X157291377Y-106562167D01*
X156956452Y-106338377D01*
X156671623Y-106053548D01*
X156447833Y-105718623D01*
X156348691Y-105479272D01*
X156293684Y-105346474D01*
X156215100Y-104951406D01*
X156215100Y-104548594D01*
X156293684Y-104153526D01*
X156415438Y-103859586D01*
X156447833Y-103781377D01*
X156671623Y-103446452D01*
X156956452Y-103161623D01*
X157291377Y-102937833D01*
X157445526Y-102873983D01*
X157663526Y-102783684D01*
X158058594Y-102705100D01*
X158461406Y-102705100D01*
X158856474Y-102783684D01*
G37*
G36*
X54076474Y-102763684D02*
G01*
X54294474Y-102853983D01*
X54448623Y-102917833D01*
X54783548Y-103141623D01*
X55068377Y-103426452D01*
X55292167Y-103761377D01*
X55332846Y-103859585D01*
X55446316Y-104133526D01*
X55524900Y-104528594D01*
X55524900Y-104931406D01*
X55446316Y-105326474D01*
X55356017Y-105544474D01*
X55292167Y-105698623D01*
X55068377Y-106033548D01*
X54783548Y-106318377D01*
X54448623Y-106542167D01*
X54400338Y-106562167D01*
X54076474Y-106696316D01*
X53681406Y-106774900D01*
X53278594Y-106774900D01*
X52883526Y-106696316D01*
X52559662Y-106562167D01*
X52511377Y-106542167D01*
X52176452Y-106318377D01*
X51891623Y-106033548D01*
X51667833Y-105698623D01*
X51603983Y-105544474D01*
X51513684Y-105326474D01*
X51435100Y-104931406D01*
X51435100Y-104528594D01*
X51513684Y-104133526D01*
X51627154Y-103859585D01*
X51667833Y-103761377D01*
X51891623Y-103426452D01*
X52176452Y-103141623D01*
X52511377Y-102917833D01*
X52665526Y-102853983D01*
X52883526Y-102763684D01*
X53278594Y-102685100D01*
X53681406Y-102685100D01*
X54076474Y-102763684D01*
G37*
G36*
X30266474Y-102763684D02*
G01*
X30484474Y-102853983D01*
X30638623Y-102917833D01*
X30973548Y-103141623D01*
X31258377Y-103426452D01*
X31482167Y-103761377D01*
X31522846Y-103859585D01*
X31636316Y-104133526D01*
X31714900Y-104528594D01*
X31714900Y-104931406D01*
X31636316Y-105326474D01*
X31546017Y-105544474D01*
X31482167Y-105698623D01*
X31258377Y-106033548D01*
X30973548Y-106318377D01*
X30638623Y-106542167D01*
X30590338Y-106562167D01*
X30266474Y-106696316D01*
X29871406Y-106774900D01*
X29468594Y-106774900D01*
X29073526Y-106696316D01*
X28749662Y-106562167D01*
X28701377Y-106542167D01*
X28366452Y-106318377D01*
X28081623Y-106033548D01*
X27857833Y-105698623D01*
X27793983Y-105544474D01*
X27703684Y-105326474D01*
X27625100Y-104931406D01*
X27625100Y-104528594D01*
X27703684Y-104133526D01*
X27817154Y-103859585D01*
X27857833Y-103761377D01*
X28081623Y-103426452D01*
X28366452Y-103141623D01*
X28701377Y-102917833D01*
X28855526Y-102853983D01*
X29073526Y-102763684D01*
X29468594Y-102685100D01*
X29871406Y-102685100D01*
X30266474Y-102763684D01*
G37*
G36*
X111226474Y-102763684D02*
G01*
X111444474Y-102853983D01*
X111598623Y-102917833D01*
X111933548Y-103141623D01*
X112218377Y-103426452D01*
X112442167Y-103761377D01*
X112482846Y-103859585D01*
X112596316Y-104133526D01*
X112674900Y-104528594D01*
X112674900Y-104931406D01*
X112596316Y-105326474D01*
X112506017Y-105544474D01*
X112442167Y-105698623D01*
X112218377Y-106033548D01*
X111933548Y-106318377D01*
X111598623Y-106542167D01*
X111550338Y-106562167D01*
X111226474Y-106696316D01*
X110831406Y-106774900D01*
X110428594Y-106774900D01*
X110033526Y-106696316D01*
X109709662Y-106562167D01*
X109661377Y-106542167D01*
X109326452Y-106318377D01*
X109041623Y-106033548D01*
X108817833Y-105698623D01*
X108753983Y-105544474D01*
X108663684Y-105326474D01*
X108585100Y-104931406D01*
X108585100Y-104528594D01*
X108663684Y-104133526D01*
X108777154Y-103859585D01*
X108817833Y-103761377D01*
X109041623Y-103426452D01*
X109326452Y-103141623D01*
X109661377Y-102917833D01*
X109815526Y-102853983D01*
X110033526Y-102763684D01*
X110428594Y-102685100D01*
X110831406Y-102685100D01*
X111226474Y-102763684D01*
G37*
G36*
X137331938Y-105161716D02*
G01*
X137352557Y-105167971D01*
X137371553Y-105178124D01*
X137388208Y-105191792D01*
X137401876Y-105208447D01*
X137412029Y-105227443D01*
X137418284Y-105248062D01*
X137421000Y-105275640D01*
X137421000Y-105734360D01*
X137418284Y-105761938D01*
X137412029Y-105782557D01*
X137401876Y-105801553D01*
X137388208Y-105818208D01*
X137371553Y-105831876D01*
X137352557Y-105842029D01*
X137331938Y-105848284D01*
X137304360Y-105851000D01*
X136795640Y-105851000D01*
X136768062Y-105848284D01*
X136747443Y-105842029D01*
X136728447Y-105831876D01*
X136711792Y-105818208D01*
X136698124Y-105801553D01*
X136687971Y-105782557D01*
X136681716Y-105761938D01*
X136679000Y-105734360D01*
X136679000Y-105275640D01*
X136681716Y-105248062D01*
X136687971Y-105227443D01*
X136698124Y-105208447D01*
X136711792Y-105191792D01*
X136728447Y-105178124D01*
X136747443Y-105167971D01*
X136768062Y-105161716D01*
X136795640Y-105159000D01*
X137304360Y-105159000D01*
X137331938Y-105161716D01*
G37*
G36*
X265430104Y-103889585D02*
G01*
X265598626Y-103959389D01*
X265750291Y-104060728D01*
X265879272Y-104189709D01*
X265980611Y-104341374D01*
X266050415Y-104509896D01*
X266086000Y-104688797D01*
X266086000Y-104871203D01*
X266050415Y-105050104D01*
X265980611Y-105218626D01*
X265879272Y-105370291D01*
X265750291Y-105499272D01*
X265598626Y-105600611D01*
X265430104Y-105670415D01*
X265251203Y-105706000D01*
X265068797Y-105706000D01*
X264889896Y-105670415D01*
X264721374Y-105600611D01*
X264569709Y-105499272D01*
X264440728Y-105370291D01*
X264339389Y-105218626D01*
X264269585Y-105050104D01*
X264234000Y-104871203D01*
X264234000Y-104688797D01*
X264269585Y-104509896D01*
X264339389Y-104341374D01*
X264440728Y-104189709D01*
X264569709Y-104060728D01*
X264721374Y-103959389D01*
X264889896Y-103889585D01*
X265068797Y-103854000D01*
X265251203Y-103854000D01*
X265430104Y-103889585D01*
G37*
G36*
X275590104Y-103889585D02*
G01*
X275758626Y-103959389D01*
X275910291Y-104060728D01*
X276039272Y-104189709D01*
X276140611Y-104341374D01*
X276210415Y-104509896D01*
X276246000Y-104688797D01*
X276246000Y-104871203D01*
X276210415Y-105050104D01*
X276140611Y-105218626D01*
X276039272Y-105370291D01*
X275910291Y-105499272D01*
X275758626Y-105600611D01*
X275590104Y-105670415D01*
X275411203Y-105706000D01*
X275228797Y-105706000D01*
X275049896Y-105670415D01*
X274881374Y-105600611D01*
X274729709Y-105499272D01*
X274600728Y-105370291D01*
X274499389Y-105218626D01*
X274429585Y-105050104D01*
X274394000Y-104871203D01*
X274394000Y-104688797D01*
X274429585Y-104509896D01*
X274499389Y-104341374D01*
X274600728Y-104189709D01*
X274729709Y-104060728D01*
X274881374Y-103959389D01*
X275049896Y-103889585D01*
X275228797Y-103854000D01*
X275411203Y-103854000D01*
X275590104Y-103889585D01*
G37*
G36*
X246380104Y-103869585D02*
G01*
X246548626Y-103939389D01*
X246700291Y-104040728D01*
X246829272Y-104169709D01*
X246930611Y-104321374D01*
X247000415Y-104489896D01*
X247036000Y-104668797D01*
X247036000Y-104851203D01*
X247000415Y-105030104D01*
X246930611Y-105198626D01*
X246829272Y-105350291D01*
X246700291Y-105479272D01*
X246548626Y-105580611D01*
X246380104Y-105650415D01*
X246201203Y-105686000D01*
X246018797Y-105686000D01*
X245839896Y-105650415D01*
X245671374Y-105580611D01*
X245519709Y-105479272D01*
X245390728Y-105350291D01*
X245289389Y-105198626D01*
X245219585Y-105030104D01*
X245184000Y-104851203D01*
X245184000Y-104668797D01*
X245219585Y-104489896D01*
X245289389Y-104321374D01*
X245390728Y-104169709D01*
X245519709Y-104040728D01*
X245671374Y-103939389D01*
X245839896Y-103869585D01*
X246018797Y-103834000D01*
X246201203Y-103834000D01*
X246380104Y-103869585D01*
G37*
G36*
X256540104Y-103869585D02*
G01*
X256708626Y-103939389D01*
X256860291Y-104040728D01*
X256989272Y-104169709D01*
X257090611Y-104321374D01*
X257160415Y-104489896D01*
X257196000Y-104668797D01*
X257196000Y-104851203D01*
X257160415Y-105030104D01*
X257090611Y-105198626D01*
X256989272Y-105350291D01*
X256860291Y-105479272D01*
X256708626Y-105580611D01*
X256540104Y-105650415D01*
X256361203Y-105686000D01*
X256178797Y-105686000D01*
X255999896Y-105650415D01*
X255831374Y-105580611D01*
X255679709Y-105479272D01*
X255550728Y-105350291D01*
X255449389Y-105198626D01*
X255379585Y-105030104D01*
X255344000Y-104851203D01*
X255344000Y-104668797D01*
X255379585Y-104489896D01*
X255449389Y-104321374D01*
X255550728Y-104169709D01*
X255679709Y-104040728D01*
X255831374Y-103939389D01*
X255999896Y-103869585D01*
X256178797Y-103834000D01*
X256361203Y-103834000D01*
X256540104Y-103869585D01*
G37*
G36*
X208260104Y-103869585D02*
G01*
X208428626Y-103939389D01*
X208580291Y-104040728D01*
X208709272Y-104169709D01*
X208810611Y-104321374D01*
X208880415Y-104489896D01*
X208916000Y-104668797D01*
X208916000Y-104851203D01*
X208880415Y-105030104D01*
X208810611Y-105198626D01*
X208709272Y-105350291D01*
X208580291Y-105479272D01*
X208428626Y-105580611D01*
X208260104Y-105650415D01*
X208081203Y-105686000D01*
X207898797Y-105686000D01*
X207719896Y-105650415D01*
X207551374Y-105580611D01*
X207399709Y-105479272D01*
X207270728Y-105350291D01*
X207169389Y-105198626D01*
X207099585Y-105030104D01*
X207064000Y-104851203D01*
X207064000Y-104668797D01*
X207099585Y-104489896D01*
X207169389Y-104321374D01*
X207270728Y-104169709D01*
X207399709Y-104040728D01*
X207551374Y-103939389D01*
X207719896Y-103869585D01*
X207898797Y-103834000D01*
X208081203Y-103834000D01*
X208260104Y-103869585D01*
G37*
G36*
X189170104Y-103869585D02*
G01*
X189338626Y-103939389D01*
X189490291Y-104040728D01*
X189619272Y-104169709D01*
X189720611Y-104321374D01*
X189790415Y-104489896D01*
X189826000Y-104668797D01*
X189826000Y-104851203D01*
X189790415Y-105030104D01*
X189720611Y-105198626D01*
X189619272Y-105350291D01*
X189490291Y-105479272D01*
X189338626Y-105580611D01*
X189170104Y-105650415D01*
X188991203Y-105686000D01*
X188808797Y-105686000D01*
X188629896Y-105650415D01*
X188461374Y-105580611D01*
X188309709Y-105479272D01*
X188180728Y-105350291D01*
X188079389Y-105198626D01*
X188009585Y-105030104D01*
X187974000Y-104851203D01*
X187974000Y-104668797D01*
X188009585Y-104489896D01*
X188079389Y-104321374D01*
X188180728Y-104169709D01*
X188309709Y-104040728D01*
X188461374Y-103939389D01*
X188629896Y-103869585D01*
X188808797Y-103834000D01*
X188991203Y-103834000D01*
X189170104Y-103869585D01*
G37*
G36*
X199330104Y-103869585D02*
G01*
X199498626Y-103939389D01*
X199650291Y-104040728D01*
X199779272Y-104169709D01*
X199880611Y-104321374D01*
X199950415Y-104489896D01*
X199986000Y-104668797D01*
X199986000Y-104851203D01*
X199950415Y-105030104D01*
X199880611Y-105198626D01*
X199779272Y-105350291D01*
X199650291Y-105479272D01*
X199498626Y-105580611D01*
X199330104Y-105650415D01*
X199151203Y-105686000D01*
X198968797Y-105686000D01*
X198789896Y-105650415D01*
X198621374Y-105580611D01*
X198469709Y-105479272D01*
X198340728Y-105350291D01*
X198239389Y-105198626D01*
X198169585Y-105030104D01*
X198134000Y-104851203D01*
X198134000Y-104668797D01*
X198169585Y-104489896D01*
X198239389Y-104321374D01*
X198340728Y-104169709D01*
X198469709Y-104040728D01*
X198621374Y-103939389D01*
X198789896Y-103869585D01*
X198968797Y-103834000D01*
X199151203Y-103834000D01*
X199330104Y-103869585D01*
G37*
G36*
X218420104Y-103869585D02*
G01*
X218588626Y-103939389D01*
X218740291Y-104040728D01*
X218869272Y-104169709D01*
X218970611Y-104321374D01*
X219040415Y-104489896D01*
X219076000Y-104668797D01*
X219076000Y-104851203D01*
X219040415Y-105030104D01*
X218970611Y-105198626D01*
X218869272Y-105350291D01*
X218740291Y-105479272D01*
X218588626Y-105580611D01*
X218420104Y-105650415D01*
X218241203Y-105686000D01*
X218058797Y-105686000D01*
X217879896Y-105650415D01*
X217711374Y-105580611D01*
X217559709Y-105479272D01*
X217430728Y-105350291D01*
X217329389Y-105198626D01*
X217259585Y-105030104D01*
X217224000Y-104851203D01*
X217224000Y-104668797D01*
X217259585Y-104489896D01*
X217329389Y-104321374D01*
X217430728Y-104169709D01*
X217559709Y-104040728D01*
X217711374Y-103939389D01*
X217879896Y-103869585D01*
X218058797Y-103834000D01*
X218241203Y-103834000D01*
X218420104Y-103869585D01*
G37*
G36*
X72480104Y-103859585D02*
G01*
X72648626Y-103929389D01*
X72800291Y-104030728D01*
X72929272Y-104159709D01*
X73030611Y-104311374D01*
X73100415Y-104479896D01*
X73136000Y-104658797D01*
X73136000Y-104841203D01*
X73100415Y-105020104D01*
X73030611Y-105188626D01*
X72929272Y-105340291D01*
X72800291Y-105469272D01*
X72648626Y-105570611D01*
X72480104Y-105640415D01*
X72301203Y-105676000D01*
X72118797Y-105676000D01*
X71939896Y-105640415D01*
X71771374Y-105570611D01*
X71619709Y-105469272D01*
X71490728Y-105340291D01*
X71389389Y-105188626D01*
X71319585Y-105020104D01*
X71284000Y-104841203D01*
X71284000Y-104658797D01*
X71319585Y-104479896D01*
X71389389Y-104311374D01*
X71490728Y-104159709D01*
X71619709Y-104030728D01*
X71771374Y-103929389D01*
X71939896Y-103859585D01*
X72118797Y-103824000D01*
X72301203Y-103824000D01*
X72480104Y-103859585D01*
G37*
G36*
X153450104Y-103859585D02*
G01*
X153618626Y-103929389D01*
X153770291Y-104030728D01*
X153899272Y-104159709D01*
X154000611Y-104311374D01*
X154070415Y-104479896D01*
X154106000Y-104658797D01*
X154106000Y-104841203D01*
X154070415Y-105020104D01*
X154000611Y-105188626D01*
X153899272Y-105340291D01*
X153770291Y-105469272D01*
X153618626Y-105570611D01*
X153450104Y-105640415D01*
X153271203Y-105676000D01*
X153088797Y-105676000D01*
X152909896Y-105640415D01*
X152741374Y-105570611D01*
X152589709Y-105469272D01*
X152460728Y-105340291D01*
X152359389Y-105188626D01*
X152289585Y-105020104D01*
X152254000Y-104841203D01*
X152254000Y-104658797D01*
X152289585Y-104479896D01*
X152359389Y-104311374D01*
X152460728Y-104159709D01*
X152589709Y-104030728D01*
X152741374Y-103929389D01*
X152909896Y-103859585D01*
X153088797Y-103824000D01*
X153271203Y-103824000D01*
X153450104Y-103859585D01*
G37*
G36*
X163610104Y-103859585D02*
G01*
X163778626Y-103929389D01*
X163930291Y-104030728D01*
X164059272Y-104159709D01*
X164160611Y-104311374D01*
X164230415Y-104479896D01*
X164266000Y-104658797D01*
X164266000Y-104841203D01*
X164230415Y-105020104D01*
X164160611Y-105188626D01*
X164059272Y-105340291D01*
X163930291Y-105469272D01*
X163778626Y-105570611D01*
X163610104Y-105640415D01*
X163431203Y-105676000D01*
X163248797Y-105676000D01*
X163069896Y-105640415D01*
X162901374Y-105570611D01*
X162749709Y-105469272D01*
X162620728Y-105340291D01*
X162519389Y-105188626D01*
X162449585Y-105020104D01*
X162414000Y-104841203D01*
X162414000Y-104658797D01*
X162449585Y-104479896D01*
X162519389Y-104311374D01*
X162620728Y-104159709D01*
X162749709Y-104030728D01*
X162901374Y-103929389D01*
X163069896Y-103859585D01*
X163248797Y-103824000D01*
X163431203Y-103824000D01*
X163610104Y-103859585D01*
G37*
G36*
X227320104Y-103859585D02*
G01*
X227488626Y-103929389D01*
X227640291Y-104030728D01*
X227769272Y-104159709D01*
X227870611Y-104311374D01*
X227940415Y-104479896D01*
X227976000Y-104658797D01*
X227976000Y-104841203D01*
X227940415Y-105020104D01*
X227870611Y-105188626D01*
X227769272Y-105340291D01*
X227640291Y-105469272D01*
X227488626Y-105570611D01*
X227320104Y-105640415D01*
X227141203Y-105676000D01*
X226958797Y-105676000D01*
X226779896Y-105640415D01*
X226611374Y-105570611D01*
X226459709Y-105469272D01*
X226330728Y-105340291D01*
X226229389Y-105188626D01*
X226159585Y-105020104D01*
X226124000Y-104841203D01*
X226124000Y-104658797D01*
X226159585Y-104479896D01*
X226229389Y-104311374D01*
X226330728Y-104159709D01*
X226459709Y-104030728D01*
X226611374Y-103929389D01*
X226779896Y-103859585D01*
X226958797Y-103824000D01*
X227141203Y-103824000D01*
X227320104Y-103859585D01*
G37*
G36*
X237480104Y-103859585D02*
G01*
X237648626Y-103929389D01*
X237800291Y-104030728D01*
X237929272Y-104159709D01*
X238030611Y-104311374D01*
X238100415Y-104479896D01*
X238136000Y-104658797D01*
X238136000Y-104841203D01*
X238100415Y-105020104D01*
X238030611Y-105188626D01*
X237929272Y-105340291D01*
X237800291Y-105469272D01*
X237648626Y-105570611D01*
X237480104Y-105640415D01*
X237301203Y-105676000D01*
X237118797Y-105676000D01*
X236939896Y-105640415D01*
X236771374Y-105570611D01*
X236619709Y-105469272D01*
X236490728Y-105340291D01*
X236389389Y-105188626D01*
X236319585Y-105020104D01*
X236284000Y-104841203D01*
X236284000Y-104658797D01*
X236319585Y-104479896D01*
X236389389Y-104311374D01*
X236490728Y-104159709D01*
X236619709Y-104030728D01*
X236771374Y-103929389D01*
X236939896Y-103859585D01*
X237118797Y-103824000D01*
X237301203Y-103824000D01*
X237480104Y-103859585D01*
G37*
G36*
X82640104Y-103859585D02*
G01*
X82808626Y-103929389D01*
X82960291Y-104030728D01*
X83089272Y-104159709D01*
X83190611Y-104311374D01*
X83260415Y-104479896D01*
X83296000Y-104658797D01*
X83296000Y-104841203D01*
X83260415Y-105020104D01*
X83190611Y-105188626D01*
X83089272Y-105340291D01*
X82960291Y-105469272D01*
X82808626Y-105570611D01*
X82640104Y-105640415D01*
X82461203Y-105676000D01*
X82278797Y-105676000D01*
X82099896Y-105640415D01*
X81931374Y-105570611D01*
X81779709Y-105469272D01*
X81650728Y-105340291D01*
X81549389Y-105188626D01*
X81479585Y-105020104D01*
X81444000Y-104841203D01*
X81444000Y-104658797D01*
X81479585Y-104479896D01*
X81549389Y-104311374D01*
X81650728Y-104159709D01*
X81779709Y-104030728D01*
X81931374Y-103929389D01*
X82099896Y-103859585D01*
X82278797Y-103824000D01*
X82461203Y-103824000D01*
X82640104Y-103859585D01*
G37*
G36*
X24860104Y-103839585D02*
G01*
X25028626Y-103909389D01*
X25180291Y-104010728D01*
X25309272Y-104139709D01*
X25410611Y-104291374D01*
X25480415Y-104459896D01*
X25516000Y-104638797D01*
X25516000Y-104821203D01*
X25480415Y-105000104D01*
X25410611Y-105168626D01*
X25309272Y-105320291D01*
X25180291Y-105449272D01*
X25028626Y-105550611D01*
X24860104Y-105620415D01*
X24681203Y-105656000D01*
X24498797Y-105656000D01*
X24319896Y-105620415D01*
X24151374Y-105550611D01*
X23999709Y-105449272D01*
X23870728Y-105320291D01*
X23769389Y-105168626D01*
X23699585Y-105000104D01*
X23664000Y-104821203D01*
X23664000Y-104638797D01*
X23699585Y-104459896D01*
X23769389Y-104291374D01*
X23870728Y-104139709D01*
X23999709Y-104010728D01*
X24151374Y-103909389D01*
X24319896Y-103839585D01*
X24498797Y-103804000D01*
X24681203Y-103804000D01*
X24860104Y-103839585D01*
G37*
G36*
X115980104Y-103839585D02*
G01*
X116148626Y-103909389D01*
X116300291Y-104010728D01*
X116429272Y-104139709D01*
X116530611Y-104291374D01*
X116600415Y-104459896D01*
X116636000Y-104638797D01*
X116636000Y-104821203D01*
X116600415Y-105000104D01*
X116530611Y-105168626D01*
X116429272Y-105320291D01*
X116300291Y-105449272D01*
X116148626Y-105550611D01*
X115980104Y-105620415D01*
X115801203Y-105656000D01*
X115618797Y-105656000D01*
X115439896Y-105620415D01*
X115271374Y-105550611D01*
X115119709Y-105449272D01*
X114990728Y-105320291D01*
X114889389Y-105168626D01*
X114819585Y-105000104D01*
X114784000Y-104821203D01*
X114784000Y-104638797D01*
X114819585Y-104459896D01*
X114889389Y-104291374D01*
X114990728Y-104139709D01*
X115119709Y-104010728D01*
X115271374Y-103909389D01*
X115439896Y-103839585D01*
X115618797Y-103804000D01*
X115801203Y-103804000D01*
X115980104Y-103839585D01*
G37*
G36*
X105820104Y-103839585D02*
G01*
X105988626Y-103909389D01*
X106140291Y-104010728D01*
X106269272Y-104139709D01*
X106370611Y-104291374D01*
X106440415Y-104459896D01*
X106476000Y-104638797D01*
X106476000Y-104821203D01*
X106440415Y-105000104D01*
X106370611Y-105168626D01*
X106269272Y-105320291D01*
X106140291Y-105449272D01*
X105988626Y-105550611D01*
X105820104Y-105620415D01*
X105641203Y-105656000D01*
X105458797Y-105656000D01*
X105279896Y-105620415D01*
X105111374Y-105550611D01*
X104959709Y-105449272D01*
X104830728Y-105320291D01*
X104729389Y-105168626D01*
X104659585Y-105000104D01*
X104624000Y-104821203D01*
X104624000Y-104638797D01*
X104659585Y-104459896D01*
X104729389Y-104291374D01*
X104830728Y-104139709D01*
X104959709Y-104010728D01*
X105111374Y-103909389D01*
X105279896Y-103839585D01*
X105458797Y-103804000D01*
X105641203Y-103804000D01*
X105820104Y-103839585D01*
G37*
G36*
X58830104Y-103839585D02*
G01*
X58998626Y-103909389D01*
X59150291Y-104010728D01*
X59279272Y-104139709D01*
X59380611Y-104291374D01*
X59450415Y-104459896D01*
X59486000Y-104638797D01*
X59486000Y-104821203D01*
X59450415Y-105000104D01*
X59380611Y-105168626D01*
X59279272Y-105320291D01*
X59150291Y-105449272D01*
X58998626Y-105550611D01*
X58830104Y-105620415D01*
X58651203Y-105656000D01*
X58468797Y-105656000D01*
X58289896Y-105620415D01*
X58121374Y-105550611D01*
X57969709Y-105449272D01*
X57840728Y-105320291D01*
X57739389Y-105168626D01*
X57669585Y-105000104D01*
X57634000Y-104821203D01*
X57634000Y-104638797D01*
X57669585Y-104459896D01*
X57739389Y-104291374D01*
X57840728Y-104139709D01*
X57969709Y-104010728D01*
X58121374Y-103909389D01*
X58289896Y-103839585D01*
X58468797Y-103804000D01*
X58651203Y-103804000D01*
X58830104Y-103839585D01*
G37*
G36*
X48670104Y-103839585D02*
G01*
X48838626Y-103909389D01*
X48990291Y-104010728D01*
X49119272Y-104139709D01*
X49220611Y-104291374D01*
X49290415Y-104459896D01*
X49326000Y-104638797D01*
X49326000Y-104821203D01*
X49290415Y-105000104D01*
X49220611Y-105168626D01*
X49119272Y-105320291D01*
X48990291Y-105449272D01*
X48838626Y-105550611D01*
X48670104Y-105620415D01*
X48491203Y-105656000D01*
X48308797Y-105656000D01*
X48129896Y-105620415D01*
X47961374Y-105550611D01*
X47809709Y-105449272D01*
X47680728Y-105320291D01*
X47579389Y-105168626D01*
X47509585Y-105000104D01*
X47474000Y-104821203D01*
X47474000Y-104638797D01*
X47509585Y-104459896D01*
X47579389Y-104291374D01*
X47680728Y-104139709D01*
X47809709Y-104010728D01*
X47961374Y-103909389D01*
X48129896Y-103839585D01*
X48308797Y-103804000D01*
X48491203Y-103804000D01*
X48670104Y-103839585D01*
G37*
G36*
X35020104Y-103839585D02*
G01*
X35188626Y-103909389D01*
X35340291Y-104010728D01*
X35469272Y-104139709D01*
X35570611Y-104291374D01*
X35640415Y-104459896D01*
X35676000Y-104638797D01*
X35676000Y-104821203D01*
X35640415Y-105000104D01*
X35570611Y-105168626D01*
X35469272Y-105320291D01*
X35340291Y-105449272D01*
X35188626Y-105550611D01*
X35020104Y-105620415D01*
X34841203Y-105656000D01*
X34658797Y-105656000D01*
X34479896Y-105620415D01*
X34311374Y-105550611D01*
X34159709Y-105449272D01*
X34030728Y-105320291D01*
X33929389Y-105168626D01*
X33859585Y-105000104D01*
X33824000Y-104821203D01*
X33824000Y-104638797D01*
X33859585Y-104459896D01*
X33929389Y-104291374D01*
X34030728Y-104139709D01*
X34159709Y-104010728D01*
X34311374Y-103909389D01*
X34479896Y-103839585D01*
X34658797Y-103804000D01*
X34841203Y-103804000D01*
X35020104Y-103839585D01*
G37*
G36*
X135561938Y-101281716D02*
G01*
X135582557Y-101287971D01*
X135601553Y-101298124D01*
X135618208Y-101311792D01*
X135631876Y-101328447D01*
X135642029Y-101347443D01*
X135648284Y-101368062D01*
X135651000Y-101395640D01*
X135651000Y-101904360D01*
X135648284Y-101931938D01*
X135642029Y-101952557D01*
X135631876Y-101971553D01*
X135618208Y-101988208D01*
X135601553Y-102001876D01*
X135582557Y-102012029D01*
X135561938Y-102018284D01*
X135534360Y-102021000D01*
X135075640Y-102021000D01*
X135048062Y-102018284D01*
X135027443Y-102012029D01*
X135008447Y-102001876D01*
X134991792Y-101988208D01*
X134978124Y-101971553D01*
X134967971Y-101952557D01*
X134961716Y-101931938D01*
X134959000Y-101904360D01*
X134959000Y-101395640D01*
X134961716Y-101368062D01*
X134967971Y-101347443D01*
X134978124Y-101328447D01*
X134991792Y-101311792D01*
X135008447Y-101298124D01*
X135027443Y-101287971D01*
X135048062Y-101281716D01*
X135075640Y-101279000D01*
X135534360Y-101279000D01*
X135561938Y-101281716D01*
G37*
G36*
X136531938Y-101281716D02*
G01*
X136552557Y-101287971D01*
X136571553Y-101298124D01*
X136588208Y-101311792D01*
X136601876Y-101328447D01*
X136612029Y-101347443D01*
X136618284Y-101368062D01*
X136621000Y-101395640D01*
X136621000Y-101904360D01*
X136618284Y-101931938D01*
X136612029Y-101952557D01*
X136601876Y-101971553D01*
X136588208Y-101988208D01*
X136571553Y-102001876D01*
X136552557Y-102012029D01*
X136531938Y-102018284D01*
X136504360Y-102021000D01*
X136045640Y-102021000D01*
X136018062Y-102018284D01*
X135997443Y-102012029D01*
X135978447Y-102001876D01*
X135961792Y-101988208D01*
X135948124Y-101971553D01*
X135937971Y-101952557D01*
X135931716Y-101931938D01*
X135929000Y-101904360D01*
X135929000Y-101395640D01*
X135931716Y-101368062D01*
X135937971Y-101347443D01*
X135948124Y-101328447D01*
X135961792Y-101311792D01*
X135978447Y-101298124D01*
X135997443Y-101287971D01*
X136018062Y-101281716D01*
X136045640Y-101279000D01*
X136504360Y-101279000D01*
X136531938Y-101281716D01*
G37*
G36*
X132521938Y-100661716D02*
G01*
X132542557Y-100667971D01*
X132561553Y-100678124D01*
X132578208Y-100691792D01*
X132591876Y-100708447D01*
X132602029Y-100727443D01*
X132608284Y-100748062D01*
X132611000Y-100775640D01*
X132611000Y-101234360D01*
X132608284Y-101261938D01*
X132602029Y-101282557D01*
X132591876Y-101301553D01*
X132578208Y-101318208D01*
X132561553Y-101331876D01*
X132542557Y-101342029D01*
X132521938Y-101348284D01*
X132494360Y-101351000D01*
X131985640Y-101351000D01*
X131958062Y-101348284D01*
X131937443Y-101342029D01*
X131918447Y-101331876D01*
X131901792Y-101318208D01*
X131888124Y-101301553D01*
X131877971Y-101282557D01*
X131871716Y-101261938D01*
X131869000Y-101234360D01*
X131869000Y-100775640D01*
X131871716Y-100748062D01*
X131877971Y-100727443D01*
X131888124Y-100708447D01*
X131901792Y-100691792D01*
X131918447Y-100678124D01*
X131937443Y-100667971D01*
X131958062Y-100661716D01*
X131985640Y-100659000D01*
X132494360Y-100659000D01*
X132521938Y-100661716D01*
G37*
G36*
X130071938Y-99691716D02*
G01*
X130092557Y-99697971D01*
X130111553Y-99708124D01*
X130128208Y-99721792D01*
X130141876Y-99738447D01*
X130152029Y-99757443D01*
X130158284Y-99778062D01*
X130161000Y-99805640D01*
X130161000Y-100314360D01*
X130158284Y-100341938D01*
X130152029Y-100362557D01*
X130141876Y-100381553D01*
X130128208Y-100398208D01*
X130111553Y-100411876D01*
X130092557Y-100422029D01*
X130071938Y-100428284D01*
X130044360Y-100431000D01*
X129585640Y-100431000D01*
X129558062Y-100428284D01*
X129537443Y-100422029D01*
X129518447Y-100411876D01*
X129501792Y-100398208D01*
X129488124Y-100381553D01*
X129477971Y-100362557D01*
X129471716Y-100341938D01*
X129469000Y-100314360D01*
X129469000Y-99805640D01*
X129471716Y-99778062D01*
X129477971Y-99757443D01*
X129488124Y-99738447D01*
X129501792Y-99721792D01*
X129518447Y-99708124D01*
X129537443Y-99697971D01*
X129558062Y-99691716D01*
X129585640Y-99689000D01*
X130044360Y-99689000D01*
X130071938Y-99691716D01*
G37*
G36*
X131041938Y-99691716D02*
G01*
X131062557Y-99697971D01*
X131081553Y-99708124D01*
X131098208Y-99721792D01*
X131111876Y-99738447D01*
X131122029Y-99757443D01*
X131128284Y-99778062D01*
X131131000Y-99805640D01*
X131131000Y-100314360D01*
X131128284Y-100341938D01*
X131122029Y-100362557D01*
X131111876Y-100381553D01*
X131098208Y-100398208D01*
X131081553Y-100411876D01*
X131062557Y-100422029D01*
X131041938Y-100428284D01*
X131014360Y-100431000D01*
X130555640Y-100431000D01*
X130528062Y-100428284D01*
X130507443Y-100422029D01*
X130488447Y-100411876D01*
X130471792Y-100398208D01*
X130458124Y-100381553D01*
X130447971Y-100362557D01*
X130441716Y-100341938D01*
X130439000Y-100314360D01*
X130439000Y-99805640D01*
X130441716Y-99778062D01*
X130447971Y-99757443D01*
X130458124Y-99738447D01*
X130471792Y-99721792D01*
X130488447Y-99708124D01*
X130507443Y-99697971D01*
X130528062Y-99691716D01*
X130555640Y-99689000D01*
X131014360Y-99689000D01*
X131041938Y-99691716D01*
G37*
G36*
X132521938Y-99691716D02*
G01*
X132542557Y-99697971D01*
X132561553Y-99708124D01*
X132578208Y-99721792D01*
X132591876Y-99738447D01*
X132602029Y-99757443D01*
X132608284Y-99778062D01*
X132611000Y-99805640D01*
X132611000Y-100264360D01*
X132608284Y-100291938D01*
X132602029Y-100312557D01*
X132591876Y-100331553D01*
X132578208Y-100348208D01*
X132561553Y-100361876D01*
X132542557Y-100372029D01*
X132521938Y-100378284D01*
X132494360Y-100381000D01*
X131985640Y-100381000D01*
X131958062Y-100378284D01*
X131937443Y-100372029D01*
X131918447Y-100361876D01*
X131901792Y-100348208D01*
X131888124Y-100331553D01*
X131877971Y-100312557D01*
X131871716Y-100291938D01*
X131869000Y-100264360D01*
X131869000Y-99805640D01*
X131871716Y-99778062D01*
X131877971Y-99757443D01*
X131888124Y-99738447D01*
X131901792Y-99721792D01*
X131918447Y-99708124D01*
X131937443Y-99697971D01*
X131958062Y-99691716D01*
X131985640Y-99689000D01*
X132494360Y-99689000D01*
X132521938Y-99691716D01*
G37*
G36*
X146950224Y-94528684D02*
G01*
X147168224Y-94618983D01*
X147322373Y-94682833D01*
X147657298Y-94906623D01*
X147942127Y-95191452D01*
X148165917Y-95526377D01*
X148165917Y-95526378D01*
X148320066Y-95898526D01*
X148398650Y-96293594D01*
X148398650Y-96696406D01*
X148320066Y-97091474D01*
X148229767Y-97309474D01*
X148165917Y-97463623D01*
X147942127Y-97798548D01*
X147657298Y-98083377D01*
X147322373Y-98307167D01*
X147168224Y-98371017D01*
X146950224Y-98461316D01*
X146555156Y-98539900D01*
X146152344Y-98539900D01*
X145757276Y-98461316D01*
X145539276Y-98371017D01*
X145385127Y-98307167D01*
X145050202Y-98083377D01*
X144765373Y-97798548D01*
X144541583Y-97463623D01*
X144477733Y-97309474D01*
X144387434Y-97091474D01*
X144308850Y-96696406D01*
X144308850Y-96293594D01*
X144387434Y-95898526D01*
X144541583Y-95526378D01*
X144541583Y-95526377D01*
X144765373Y-95191452D01*
X145050202Y-94906623D01*
X145385127Y-94682833D01*
X145539276Y-94618983D01*
X145757276Y-94528684D01*
X146152344Y-94450100D01*
X146555156Y-94450100D01*
X146950224Y-94528684D01*
G37*
G36*
X170762724Y-94528684D02*
G01*
X170980724Y-94618983D01*
X171134873Y-94682833D01*
X171469798Y-94906623D01*
X171754627Y-95191452D01*
X171978417Y-95526377D01*
X171978417Y-95526378D01*
X172132566Y-95898526D01*
X172211150Y-96293594D01*
X172211150Y-96696406D01*
X172132566Y-97091474D01*
X172042267Y-97309474D01*
X171978417Y-97463623D01*
X171754627Y-97798548D01*
X171469798Y-98083377D01*
X171134873Y-98307167D01*
X170980724Y-98371017D01*
X170762724Y-98461316D01*
X170367656Y-98539900D01*
X169964844Y-98539900D01*
X169569776Y-98461316D01*
X169351776Y-98371017D01*
X169197627Y-98307167D01*
X168862702Y-98083377D01*
X168577873Y-97798548D01*
X168354083Y-97463623D01*
X168290233Y-97309474D01*
X168199934Y-97091474D01*
X168121350Y-96696406D01*
X168121350Y-96293594D01*
X168199934Y-95898526D01*
X168354083Y-95526378D01*
X168354083Y-95526377D01*
X168577873Y-95191452D01*
X168862702Y-94906623D01*
X169197627Y-94682833D01*
X169351776Y-94618983D01*
X169569776Y-94528684D01*
X169964844Y-94450100D01*
X170367656Y-94450100D01*
X170762724Y-94528684D01*
G37*
G36*
X99320224Y-94508684D02*
G01*
X99538224Y-94598983D01*
X99692373Y-94662833D01*
X100027298Y-94886623D01*
X100312127Y-95171452D01*
X100535917Y-95506377D01*
X100599767Y-95660526D01*
X100690066Y-95878526D01*
X100768650Y-96273594D01*
X100768650Y-96676406D01*
X100690066Y-97071474D01*
X100681781Y-97091475D01*
X100535917Y-97443623D01*
X100312127Y-97778548D01*
X100027298Y-98063377D01*
X99692373Y-98287167D01*
X99644088Y-98307167D01*
X99320224Y-98441316D01*
X98925156Y-98519900D01*
X98522344Y-98519900D01*
X98127276Y-98441316D01*
X97803412Y-98307167D01*
X97755127Y-98287167D01*
X97420202Y-98063377D01*
X97135373Y-97778548D01*
X96911583Y-97443623D01*
X96765719Y-97091475D01*
X96757434Y-97071474D01*
X96678850Y-96676406D01*
X96678850Y-96273594D01*
X96757434Y-95878526D01*
X96847733Y-95660526D01*
X96911583Y-95506377D01*
X97135373Y-95171452D01*
X97420202Y-94886623D01*
X97755127Y-94662833D01*
X97909276Y-94598983D01*
X98127276Y-94508684D01*
X98522344Y-94430100D01*
X98925156Y-94430100D01*
X99320224Y-94508684D01*
G37*
G36*
X123132724Y-94508684D02*
G01*
X123350724Y-94598983D01*
X123504873Y-94662833D01*
X123839798Y-94886623D01*
X124124627Y-95171452D01*
X124348417Y-95506377D01*
X124412267Y-95660526D01*
X124502566Y-95878526D01*
X124581150Y-96273594D01*
X124581150Y-96676406D01*
X124502566Y-97071474D01*
X124494281Y-97091475D01*
X124348417Y-97443623D01*
X124124627Y-97778548D01*
X123839798Y-98063377D01*
X123504873Y-98287167D01*
X123456588Y-98307167D01*
X123132724Y-98441316D01*
X122737656Y-98519900D01*
X122334844Y-98519900D01*
X121939776Y-98441316D01*
X121615912Y-98307167D01*
X121567627Y-98287167D01*
X121232702Y-98063377D01*
X120947873Y-97778548D01*
X120724083Y-97443623D01*
X120578219Y-97091475D01*
X120569934Y-97071474D01*
X120491350Y-96676406D01*
X120491350Y-96273594D01*
X120569934Y-95878526D01*
X120660233Y-95660526D01*
X120724083Y-95506377D01*
X120947873Y-95171452D01*
X121232702Y-94886623D01*
X121567627Y-94662833D01*
X121721776Y-94598983D01*
X121939776Y-94508684D01*
X122334844Y-94430100D01*
X122737656Y-94430100D01*
X123132724Y-94508684D01*
G37*
G36*
X251816474Y-83753684D02*
G01*
X252034474Y-83843983D01*
X252188623Y-83907833D01*
X252523548Y-84131623D01*
X252808377Y-84416452D01*
X253032167Y-84751377D01*
X253064562Y-84829586D01*
X253186316Y-85123526D01*
X253264900Y-85518594D01*
X253264900Y-85921406D01*
X253186316Y-86316474D01*
X253135451Y-86439272D01*
X253032167Y-86688623D01*
X252808377Y-87023548D01*
X252523548Y-87308377D01*
X252188623Y-87532167D01*
X252034474Y-87596017D01*
X251816474Y-87686316D01*
X251421406Y-87764900D01*
X251018594Y-87764900D01*
X250623526Y-87686316D01*
X250405526Y-87596017D01*
X250251377Y-87532167D01*
X249916452Y-87308377D01*
X249631623Y-87023548D01*
X249407833Y-86688623D01*
X249304549Y-86439272D01*
X249253684Y-86316474D01*
X249175100Y-85921406D01*
X249175100Y-85518594D01*
X249253684Y-85123526D01*
X249375438Y-84829586D01*
X249407833Y-84751377D01*
X249631623Y-84416452D01*
X249916452Y-84131623D01*
X250251377Y-83907833D01*
X250405526Y-83843983D01*
X250623526Y-83753684D01*
X251018594Y-83675100D01*
X251421406Y-83675100D01*
X251816474Y-83753684D01*
G37*
G36*
X270856474Y-83753684D02*
G01*
X271074474Y-83843983D01*
X271228623Y-83907833D01*
X271563548Y-84131623D01*
X271848377Y-84416452D01*
X272072167Y-84751377D01*
X272104562Y-84829586D01*
X272226316Y-85123526D01*
X272304900Y-85518594D01*
X272304900Y-85921406D01*
X272226316Y-86316474D01*
X272175451Y-86439272D01*
X272072167Y-86688623D01*
X271848377Y-87023548D01*
X271563548Y-87308377D01*
X271228623Y-87532167D01*
X271074474Y-87596017D01*
X270856474Y-87686316D01*
X270461406Y-87764900D01*
X270058594Y-87764900D01*
X269663526Y-87686316D01*
X269445526Y-87596017D01*
X269291377Y-87532167D01*
X268956452Y-87308377D01*
X268671623Y-87023548D01*
X268447833Y-86688623D01*
X268344549Y-86439272D01*
X268293684Y-86316474D01*
X268215100Y-85921406D01*
X268215100Y-85518594D01*
X268293684Y-85123526D01*
X268415438Y-84829586D01*
X268447833Y-84751377D01*
X268671623Y-84416452D01*
X268956452Y-84131623D01*
X269291377Y-83907833D01*
X269445526Y-83843983D01*
X269663526Y-83753684D01*
X270058594Y-83675100D01*
X270461406Y-83675100D01*
X270856474Y-83753684D01*
G37*
G36*
X194656474Y-83743684D02*
G01*
X194874474Y-83833983D01*
X195028623Y-83897833D01*
X195363548Y-84121623D01*
X195648377Y-84406452D01*
X195872167Y-84741377D01*
X195904562Y-84819586D01*
X196026316Y-85113526D01*
X196104900Y-85508594D01*
X196104900Y-85911406D01*
X196026316Y-86306474D01*
X195971309Y-86439272D01*
X195872167Y-86678623D01*
X195648377Y-87013548D01*
X195363548Y-87298377D01*
X195028623Y-87522167D01*
X194874474Y-87586017D01*
X194656474Y-87676316D01*
X194261406Y-87754900D01*
X193858594Y-87754900D01*
X193463526Y-87676316D01*
X193245526Y-87586017D01*
X193091377Y-87522167D01*
X192756452Y-87298377D01*
X192471623Y-87013548D01*
X192247833Y-86678623D01*
X192148691Y-86439272D01*
X192093684Y-86306474D01*
X192015100Y-85911406D01*
X192015100Y-85508594D01*
X192093684Y-85113526D01*
X192215438Y-84819586D01*
X192247833Y-84741377D01*
X192471623Y-84406452D01*
X192756452Y-84121623D01*
X193091377Y-83897833D01*
X193245526Y-83833983D01*
X193463526Y-83743684D01*
X193858594Y-83665100D01*
X194261406Y-83665100D01*
X194656474Y-83743684D01*
G37*
G36*
X137446474Y-83743684D02*
G01*
X137664474Y-83833983D01*
X137818623Y-83897833D01*
X138153548Y-84121623D01*
X138438377Y-84406452D01*
X138662167Y-84741377D01*
X138694562Y-84819586D01*
X138816316Y-85113526D01*
X138894900Y-85508594D01*
X138894900Y-85911406D01*
X138816316Y-86306474D01*
X138761309Y-86439272D01*
X138662167Y-86678623D01*
X138438377Y-87013548D01*
X138153548Y-87298377D01*
X137818623Y-87522167D01*
X137664474Y-87586017D01*
X137446474Y-87676316D01*
X137051406Y-87754900D01*
X136648594Y-87754900D01*
X136253526Y-87676316D01*
X136035526Y-87586017D01*
X135881377Y-87522167D01*
X135546452Y-87298377D01*
X135261623Y-87013548D01*
X135037833Y-86678623D01*
X134938691Y-86439272D01*
X134883684Y-86306474D01*
X134805100Y-85911406D01*
X134805100Y-85508594D01*
X134883684Y-85113526D01*
X135005438Y-84819586D01*
X135037833Y-84741377D01*
X135261623Y-84406452D01*
X135546452Y-84121623D01*
X135881377Y-83897833D01*
X136035526Y-83833983D01*
X136253526Y-83743684D01*
X136648594Y-83665100D01*
X137051406Y-83665100D01*
X137446474Y-83743684D01*
G37*
G36*
X213716474Y-83743684D02*
G01*
X213934474Y-83833983D01*
X214088623Y-83897833D01*
X214423548Y-84121623D01*
X214708377Y-84406452D01*
X214932167Y-84741377D01*
X214964562Y-84819586D01*
X215086316Y-85113526D01*
X215164900Y-85508594D01*
X215164900Y-85911406D01*
X215086316Y-86306474D01*
X215031309Y-86439272D01*
X214932167Y-86678623D01*
X214708377Y-87013548D01*
X214423548Y-87298377D01*
X214088623Y-87522167D01*
X213934474Y-87586017D01*
X213716474Y-87676316D01*
X213321406Y-87754900D01*
X212918594Y-87754900D01*
X212523526Y-87676316D01*
X212305526Y-87586017D01*
X212151377Y-87522167D01*
X211816452Y-87298377D01*
X211531623Y-87013548D01*
X211307833Y-86678623D01*
X211208691Y-86439272D01*
X211153684Y-86306474D01*
X211075100Y-85911406D01*
X211075100Y-85508594D01*
X211153684Y-85113526D01*
X211275438Y-84819586D01*
X211307833Y-84741377D01*
X211531623Y-84406452D01*
X211816452Y-84121623D01*
X212151377Y-83897833D01*
X212305526Y-83833983D01*
X212523526Y-83743684D01*
X212918594Y-83665100D01*
X213321406Y-83665100D01*
X213716474Y-83743684D01*
G37*
G36*
X232766474Y-83743684D02*
G01*
X232984474Y-83833983D01*
X233138623Y-83897833D01*
X233473548Y-84121623D01*
X233758377Y-84406452D01*
X233982167Y-84741377D01*
X234014562Y-84819586D01*
X234136316Y-85113526D01*
X234214900Y-85508594D01*
X234214900Y-85911406D01*
X234136316Y-86306474D01*
X234081309Y-86439272D01*
X233982167Y-86678623D01*
X233758377Y-87013548D01*
X233473548Y-87298377D01*
X233138623Y-87522167D01*
X232984474Y-87586017D01*
X232766474Y-87676316D01*
X232371406Y-87754900D01*
X231968594Y-87754900D01*
X231573526Y-87676316D01*
X231355526Y-87586017D01*
X231201377Y-87522167D01*
X230866452Y-87298377D01*
X230581623Y-87013548D01*
X230357833Y-86678623D01*
X230258691Y-86439272D01*
X230203684Y-86306474D01*
X230125100Y-85911406D01*
X230125100Y-85508594D01*
X230203684Y-85113526D01*
X230325438Y-84819586D01*
X230357833Y-84741377D01*
X230581623Y-84406452D01*
X230866452Y-84121623D01*
X231201377Y-83897833D01*
X231355526Y-83833983D01*
X231573526Y-83743684D01*
X231968594Y-83665100D01*
X232371406Y-83665100D01*
X232766474Y-83743684D01*
G37*
G36*
X175606474Y-83743684D02*
G01*
X175824474Y-83833983D01*
X175978623Y-83897833D01*
X176313548Y-84121623D01*
X176598377Y-84406452D01*
X176822167Y-84741377D01*
X176854562Y-84819586D01*
X176976316Y-85113526D01*
X177054900Y-85508594D01*
X177054900Y-85911406D01*
X176976316Y-86306474D01*
X176921309Y-86439272D01*
X176822167Y-86678623D01*
X176598377Y-87013548D01*
X176313548Y-87298377D01*
X175978623Y-87522167D01*
X175824474Y-87586017D01*
X175606474Y-87676316D01*
X175211406Y-87754900D01*
X174808594Y-87754900D01*
X174413526Y-87676316D01*
X174195526Y-87586017D01*
X174041377Y-87522167D01*
X173706452Y-87298377D01*
X173421623Y-87013548D01*
X173197833Y-86678623D01*
X173098691Y-86439272D01*
X173043684Y-86306474D01*
X172965100Y-85911406D01*
X172965100Y-85508594D01*
X173043684Y-85113526D01*
X173165438Y-84819586D01*
X173197833Y-84741377D01*
X173421623Y-84406452D01*
X173706452Y-84121623D01*
X174041377Y-83897833D01*
X174195526Y-83833983D01*
X174413526Y-83743684D01*
X174808594Y-83665100D01*
X175211406Y-83665100D01*
X175606474Y-83743684D01*
G37*
G36*
X156516474Y-83733684D02*
G01*
X156734474Y-83823983D01*
X156888623Y-83887833D01*
X157223548Y-84111623D01*
X157508377Y-84396452D01*
X157732167Y-84731377D01*
X157764562Y-84809586D01*
X157886316Y-85103526D01*
X157964900Y-85498594D01*
X157964900Y-85901406D01*
X157886316Y-86296474D01*
X157831309Y-86429272D01*
X157732167Y-86668623D01*
X157508377Y-87003548D01*
X157223548Y-87288377D01*
X156888623Y-87512167D01*
X156840338Y-87532167D01*
X156516474Y-87666316D01*
X156121406Y-87744900D01*
X155718594Y-87744900D01*
X155323526Y-87666316D01*
X154999662Y-87532167D01*
X154951377Y-87512167D01*
X154616452Y-87288377D01*
X154331623Y-87003548D01*
X154107833Y-86668623D01*
X154008691Y-86429272D01*
X153953684Y-86296474D01*
X153875100Y-85901406D01*
X153875100Y-85498594D01*
X153953684Y-85103526D01*
X154075438Y-84809586D01*
X154107833Y-84731377D01*
X154331623Y-84396452D01*
X154616452Y-84111623D01*
X154951377Y-83887833D01*
X155105526Y-83823983D01*
X155323526Y-83733684D01*
X155718594Y-83655100D01*
X156121406Y-83655100D01*
X156516474Y-83733684D01*
G37*
G36*
X35036474Y-83723684D02*
G01*
X35254474Y-83813983D01*
X35408623Y-83877833D01*
X35743548Y-84101623D01*
X36028377Y-84386452D01*
X36252167Y-84721377D01*
X36284562Y-84799586D01*
X36406316Y-85093526D01*
X36484900Y-85488594D01*
X36484900Y-85891406D01*
X36406316Y-86286474D01*
X36351309Y-86419272D01*
X36252167Y-86658623D01*
X36028377Y-86993548D01*
X35743548Y-87278377D01*
X35408623Y-87502167D01*
X35360338Y-87522167D01*
X35036474Y-87656316D01*
X34641406Y-87734900D01*
X34238594Y-87734900D01*
X33843526Y-87656316D01*
X33519662Y-87522167D01*
X33471377Y-87502167D01*
X33136452Y-87278377D01*
X32851623Y-86993548D01*
X32627833Y-86658623D01*
X32528691Y-86419272D01*
X32473684Y-86286474D01*
X32395100Y-85891406D01*
X32395100Y-85488594D01*
X32473684Y-85093526D01*
X32595438Y-84799586D01*
X32627833Y-84721377D01*
X32851623Y-84386452D01*
X33136452Y-84101623D01*
X33471377Y-83877833D01*
X33625526Y-83813983D01*
X33843526Y-83723684D01*
X34238594Y-83645100D01*
X34641406Y-83645100D01*
X35036474Y-83723684D01*
G37*
G36*
X118396474Y-83723684D02*
G01*
X118614474Y-83813983D01*
X118768623Y-83877833D01*
X119103548Y-84101623D01*
X119388377Y-84386452D01*
X119612167Y-84721377D01*
X119644562Y-84799586D01*
X119766316Y-85093526D01*
X119844900Y-85488594D01*
X119844900Y-85891406D01*
X119766316Y-86286474D01*
X119711309Y-86419272D01*
X119612167Y-86658623D01*
X119388377Y-86993548D01*
X119103548Y-87278377D01*
X118768623Y-87502167D01*
X118720338Y-87522167D01*
X118396474Y-87656316D01*
X118001406Y-87734900D01*
X117598594Y-87734900D01*
X117203526Y-87656316D01*
X116879662Y-87522167D01*
X116831377Y-87502167D01*
X116496452Y-87278377D01*
X116211623Y-86993548D01*
X115987833Y-86658623D01*
X115888691Y-86419272D01*
X115833684Y-86286474D01*
X115755100Y-85891406D01*
X115755100Y-85488594D01*
X115833684Y-85093526D01*
X115955438Y-84799586D01*
X115987833Y-84721377D01*
X116211623Y-84386452D01*
X116496452Y-84101623D01*
X116831377Y-83877833D01*
X116985526Y-83813983D01*
X117203526Y-83723684D01*
X117598594Y-83645100D01*
X118001406Y-83645100D01*
X118396474Y-83723684D01*
G37*
G36*
X99346474Y-83723684D02*
G01*
X99564474Y-83813983D01*
X99718623Y-83877833D01*
X100053548Y-84101623D01*
X100338377Y-84386452D01*
X100562167Y-84721377D01*
X100594562Y-84799586D01*
X100716316Y-85093526D01*
X100794900Y-85488594D01*
X100794900Y-85891406D01*
X100716316Y-86286474D01*
X100661309Y-86419272D01*
X100562167Y-86658623D01*
X100338377Y-86993548D01*
X100053548Y-87278377D01*
X99718623Y-87502167D01*
X99670338Y-87522167D01*
X99346474Y-87656316D01*
X98951406Y-87734900D01*
X98548594Y-87734900D01*
X98153526Y-87656316D01*
X97829662Y-87522167D01*
X97781377Y-87502167D01*
X97446452Y-87278377D01*
X97161623Y-86993548D01*
X96937833Y-86658623D01*
X96838691Y-86419272D01*
X96783684Y-86286474D01*
X96705100Y-85891406D01*
X96705100Y-85488594D01*
X96783684Y-85093526D01*
X96905438Y-84799586D01*
X96937833Y-84721377D01*
X97161623Y-84386452D01*
X97446452Y-84101623D01*
X97781377Y-83877833D01*
X97935526Y-83813983D01*
X98153526Y-83723684D01*
X98548594Y-83645100D01*
X98951406Y-83645100D01*
X99346474Y-83723684D01*
G37*
G36*
X80296474Y-83723684D02*
G01*
X80514474Y-83813983D01*
X80668623Y-83877833D01*
X81003548Y-84101623D01*
X81288377Y-84386452D01*
X81512167Y-84721377D01*
X81544562Y-84799586D01*
X81666316Y-85093526D01*
X81744900Y-85488594D01*
X81744900Y-85891406D01*
X81666316Y-86286474D01*
X81611309Y-86419272D01*
X81512167Y-86658623D01*
X81288377Y-86993548D01*
X81003548Y-87278377D01*
X80668623Y-87502167D01*
X80620338Y-87522167D01*
X80296474Y-87656316D01*
X79901406Y-87734900D01*
X79498594Y-87734900D01*
X79103526Y-87656316D01*
X78779662Y-87522167D01*
X78731377Y-87502167D01*
X78396452Y-87278377D01*
X78111623Y-86993548D01*
X77887833Y-86658623D01*
X77788691Y-86419272D01*
X77733684Y-86286474D01*
X77655100Y-85891406D01*
X77655100Y-85488594D01*
X77733684Y-85093526D01*
X77855438Y-84799586D01*
X77887833Y-84721377D01*
X78111623Y-84386452D01*
X78396452Y-84101623D01*
X78731377Y-83877833D01*
X78885526Y-83813983D01*
X79103526Y-83723684D01*
X79498594Y-83645100D01*
X79901406Y-83645100D01*
X80296474Y-83723684D01*
G37*
G36*
X61236474Y-83723684D02*
G01*
X61454474Y-83813983D01*
X61608623Y-83877833D01*
X61943548Y-84101623D01*
X62228377Y-84386452D01*
X62452167Y-84721377D01*
X62484562Y-84799586D01*
X62606316Y-85093526D01*
X62684900Y-85488594D01*
X62684900Y-85891406D01*
X62606316Y-86286474D01*
X62551309Y-86419272D01*
X62452167Y-86658623D01*
X62228377Y-86993548D01*
X61943548Y-87278377D01*
X61608623Y-87502167D01*
X61560338Y-87522167D01*
X61236474Y-87656316D01*
X60841406Y-87734900D01*
X60438594Y-87734900D01*
X60043526Y-87656316D01*
X59719662Y-87522167D01*
X59671377Y-87502167D01*
X59336452Y-87278377D01*
X59051623Y-86993548D01*
X58827833Y-86658623D01*
X58728691Y-86419272D01*
X58673684Y-86286474D01*
X58595100Y-85891406D01*
X58595100Y-85488594D01*
X58673684Y-85093526D01*
X58795438Y-84799586D01*
X58827833Y-84721377D01*
X59051623Y-84386452D01*
X59336452Y-84101623D01*
X59671377Y-83877833D01*
X59825526Y-83813983D01*
X60043526Y-83723684D01*
X60438594Y-83645100D01*
X60841406Y-83645100D01*
X61236474Y-83723684D01*
G37*
G36*
X275610104Y-84829585D02*
G01*
X275778626Y-84899389D01*
X275930291Y-85000728D01*
X276059272Y-85129709D01*
X276160611Y-85281374D01*
X276230415Y-85449896D01*
X276266000Y-85628797D01*
X276266000Y-85811203D01*
X276230415Y-85990104D01*
X276160611Y-86158626D01*
X276059272Y-86310291D01*
X275930291Y-86439272D01*
X275778626Y-86540611D01*
X275610104Y-86610415D01*
X275431203Y-86646000D01*
X275248797Y-86646000D01*
X275069896Y-86610415D01*
X274901374Y-86540611D01*
X274749709Y-86439272D01*
X274620728Y-86310291D01*
X274519389Y-86158626D01*
X274449585Y-85990104D01*
X274414000Y-85811203D01*
X274414000Y-85628797D01*
X274449585Y-85449896D01*
X274519389Y-85281374D01*
X274620728Y-85129709D01*
X274749709Y-85000728D01*
X274901374Y-84899389D01*
X275069896Y-84829585D01*
X275248797Y-84794000D01*
X275431203Y-84794000D01*
X275610104Y-84829585D01*
G37*
G36*
X256570104Y-84829585D02*
G01*
X256738626Y-84899389D01*
X256890291Y-85000728D01*
X257019272Y-85129709D01*
X257120611Y-85281374D01*
X257190415Y-85449896D01*
X257226000Y-85628797D01*
X257226000Y-85811203D01*
X257190415Y-85990104D01*
X257120611Y-86158626D01*
X257019272Y-86310291D01*
X256890291Y-86439272D01*
X256738626Y-86540611D01*
X256570104Y-86610415D01*
X256391203Y-86646000D01*
X256208797Y-86646000D01*
X256029896Y-86610415D01*
X255861374Y-86540611D01*
X255709709Y-86439272D01*
X255580728Y-86310291D01*
X255479389Y-86158626D01*
X255409585Y-85990104D01*
X255374000Y-85811203D01*
X255374000Y-85628797D01*
X255409585Y-85449896D01*
X255479389Y-85281374D01*
X255580728Y-85129709D01*
X255709709Y-85000728D01*
X255861374Y-84899389D01*
X256029896Y-84829585D01*
X256208797Y-84794000D01*
X256391203Y-84794000D01*
X256570104Y-84829585D01*
G37*
G36*
X246410104Y-84829585D02*
G01*
X246578626Y-84899389D01*
X246730291Y-85000728D01*
X246859272Y-85129709D01*
X246960611Y-85281374D01*
X247030415Y-85449896D01*
X247066000Y-85628797D01*
X247066000Y-85811203D01*
X247030415Y-85990104D01*
X246960611Y-86158626D01*
X246859272Y-86310291D01*
X246730291Y-86439272D01*
X246578626Y-86540611D01*
X246410104Y-86610415D01*
X246231203Y-86646000D01*
X246048797Y-86646000D01*
X245869896Y-86610415D01*
X245701374Y-86540611D01*
X245549709Y-86439272D01*
X245420728Y-86310291D01*
X245319389Y-86158626D01*
X245249585Y-85990104D01*
X245214000Y-85811203D01*
X245214000Y-85628797D01*
X245249585Y-85449896D01*
X245319389Y-85281374D01*
X245420728Y-85129709D01*
X245549709Y-85000728D01*
X245701374Y-84899389D01*
X245869896Y-84829585D01*
X246048797Y-84794000D01*
X246231203Y-84794000D01*
X246410104Y-84829585D01*
G37*
G36*
X265450104Y-84829585D02*
G01*
X265618626Y-84899389D01*
X265770291Y-85000728D01*
X265899272Y-85129709D01*
X266000611Y-85281374D01*
X266070415Y-85449896D01*
X266106000Y-85628797D01*
X266106000Y-85811203D01*
X266070415Y-85990104D01*
X266000611Y-86158626D01*
X265899272Y-86310291D01*
X265770291Y-86439272D01*
X265618626Y-86540611D01*
X265450104Y-86610415D01*
X265271203Y-86646000D01*
X265088797Y-86646000D01*
X264909896Y-86610415D01*
X264741374Y-86540611D01*
X264589709Y-86439272D01*
X264460728Y-86310291D01*
X264359389Y-86158626D01*
X264289585Y-85990104D01*
X264254000Y-85811203D01*
X264254000Y-85628797D01*
X264289585Y-85449896D01*
X264359389Y-85281374D01*
X264460728Y-85129709D01*
X264589709Y-85000728D01*
X264741374Y-84899389D01*
X264909896Y-84829585D01*
X265088797Y-84794000D01*
X265271203Y-84794000D01*
X265450104Y-84829585D01*
G37*
G36*
X208310104Y-84819585D02*
G01*
X208478626Y-84889389D01*
X208630291Y-84990728D01*
X208759272Y-85119709D01*
X208860611Y-85271374D01*
X208930415Y-85439896D01*
X208966000Y-85618797D01*
X208966000Y-85801203D01*
X208930415Y-85980104D01*
X208860611Y-86148626D01*
X208759272Y-86300291D01*
X208630291Y-86429272D01*
X208478626Y-86530611D01*
X208310104Y-86600415D01*
X208131203Y-86636000D01*
X207948797Y-86636000D01*
X207769896Y-86600415D01*
X207601374Y-86530611D01*
X207449709Y-86429272D01*
X207320728Y-86300291D01*
X207219389Y-86148626D01*
X207149585Y-85980104D01*
X207114000Y-85801203D01*
X207114000Y-85618797D01*
X207149585Y-85439896D01*
X207219389Y-85271374D01*
X207320728Y-85119709D01*
X207449709Y-84990728D01*
X207601374Y-84889389D01*
X207769896Y-84819585D01*
X207948797Y-84784000D01*
X208131203Y-84784000D01*
X208310104Y-84819585D01*
G37*
G36*
X227360104Y-84819585D02*
G01*
X227528626Y-84889389D01*
X227680291Y-84990728D01*
X227809272Y-85119709D01*
X227910611Y-85271374D01*
X227980415Y-85439896D01*
X228016000Y-85618797D01*
X228016000Y-85801203D01*
X227980415Y-85980104D01*
X227910611Y-86148626D01*
X227809272Y-86300291D01*
X227680291Y-86429272D01*
X227528626Y-86530611D01*
X227360104Y-86600415D01*
X227181203Y-86636000D01*
X226998797Y-86636000D01*
X226819896Y-86600415D01*
X226651374Y-86530611D01*
X226499709Y-86429272D01*
X226370728Y-86300291D01*
X226269389Y-86148626D01*
X226199585Y-85980104D01*
X226164000Y-85801203D01*
X226164000Y-85618797D01*
X226199585Y-85439896D01*
X226269389Y-85271374D01*
X226370728Y-85119709D01*
X226499709Y-84990728D01*
X226651374Y-84889389D01*
X226819896Y-84819585D01*
X226998797Y-84784000D01*
X227181203Y-84784000D01*
X227360104Y-84819585D01*
G37*
G36*
X237520104Y-84819585D02*
G01*
X237688626Y-84889389D01*
X237840291Y-84990728D01*
X237969272Y-85119709D01*
X238070611Y-85271374D01*
X238140415Y-85439896D01*
X238176000Y-85618797D01*
X238176000Y-85801203D01*
X238140415Y-85980104D01*
X238070611Y-86148626D01*
X237969272Y-86300291D01*
X237840291Y-86429272D01*
X237688626Y-86530611D01*
X237520104Y-86600415D01*
X237341203Y-86636000D01*
X237158797Y-86636000D01*
X236979896Y-86600415D01*
X236811374Y-86530611D01*
X236659709Y-86429272D01*
X236530728Y-86300291D01*
X236429389Y-86148626D01*
X236359585Y-85980104D01*
X236324000Y-85801203D01*
X236324000Y-85618797D01*
X236359585Y-85439896D01*
X236429389Y-85271374D01*
X236530728Y-85119709D01*
X236659709Y-84990728D01*
X236811374Y-84889389D01*
X236979896Y-84819585D01*
X237158797Y-84784000D01*
X237341203Y-84784000D01*
X237520104Y-84819585D01*
G37*
G36*
X218470104Y-84819585D02*
G01*
X218638626Y-84889389D01*
X218790291Y-84990728D01*
X218919272Y-85119709D01*
X219020611Y-85271374D01*
X219090415Y-85439896D01*
X219126000Y-85618797D01*
X219126000Y-85801203D01*
X219090415Y-85980104D01*
X219020611Y-86148626D01*
X218919272Y-86300291D01*
X218790291Y-86429272D01*
X218638626Y-86530611D01*
X218470104Y-86600415D01*
X218291203Y-86636000D01*
X218108797Y-86636000D01*
X217929896Y-86600415D01*
X217761374Y-86530611D01*
X217609709Y-86429272D01*
X217480728Y-86300291D01*
X217379389Y-86148626D01*
X217309585Y-85980104D01*
X217274000Y-85801203D01*
X217274000Y-85618797D01*
X217309585Y-85439896D01*
X217379389Y-85271374D01*
X217480728Y-85119709D01*
X217609709Y-84990728D01*
X217761374Y-84889389D01*
X217929896Y-84819585D01*
X218108797Y-84784000D01*
X218291203Y-84784000D01*
X218470104Y-84819585D01*
G37*
G36*
X199410104Y-84819585D02*
G01*
X199578626Y-84889389D01*
X199730291Y-84990728D01*
X199859272Y-85119709D01*
X199960611Y-85271374D01*
X200030415Y-85439896D01*
X200066000Y-85618797D01*
X200066000Y-85801203D01*
X200030415Y-85980104D01*
X199960611Y-86148626D01*
X199859272Y-86300291D01*
X199730291Y-86429272D01*
X199578626Y-86530611D01*
X199410104Y-86600415D01*
X199231203Y-86636000D01*
X199048797Y-86636000D01*
X198869896Y-86600415D01*
X198701374Y-86530611D01*
X198549709Y-86429272D01*
X198420728Y-86300291D01*
X198319389Y-86148626D01*
X198249585Y-85980104D01*
X198214000Y-85801203D01*
X198214000Y-85618797D01*
X198249585Y-85439896D01*
X198319389Y-85271374D01*
X198420728Y-85119709D01*
X198549709Y-84990728D01*
X198701374Y-84889389D01*
X198869896Y-84819585D01*
X199048797Y-84784000D01*
X199231203Y-84784000D01*
X199410104Y-84819585D01*
G37*
G36*
X189250104Y-84819585D02*
G01*
X189418626Y-84889389D01*
X189570291Y-84990728D01*
X189699272Y-85119709D01*
X189800611Y-85271374D01*
X189870415Y-85439896D01*
X189906000Y-85618797D01*
X189906000Y-85801203D01*
X189870415Y-85980104D01*
X189800611Y-86148626D01*
X189699272Y-86300291D01*
X189570291Y-86429272D01*
X189418626Y-86530611D01*
X189250104Y-86600415D01*
X189071203Y-86636000D01*
X188888797Y-86636000D01*
X188709896Y-86600415D01*
X188541374Y-86530611D01*
X188389709Y-86429272D01*
X188260728Y-86300291D01*
X188159389Y-86148626D01*
X188089585Y-85980104D01*
X188054000Y-85801203D01*
X188054000Y-85618797D01*
X188089585Y-85439896D01*
X188159389Y-85271374D01*
X188260728Y-85119709D01*
X188389709Y-84990728D01*
X188541374Y-84889389D01*
X188709896Y-84819585D01*
X188888797Y-84784000D01*
X189071203Y-84784000D01*
X189250104Y-84819585D01*
G37*
G36*
X170200104Y-84819585D02*
G01*
X170368626Y-84889389D01*
X170520291Y-84990728D01*
X170649272Y-85119709D01*
X170750611Y-85271374D01*
X170820415Y-85439896D01*
X170856000Y-85618797D01*
X170856000Y-85801203D01*
X170820415Y-85980104D01*
X170750611Y-86148626D01*
X170649272Y-86300291D01*
X170520291Y-86429272D01*
X170368626Y-86530611D01*
X170200104Y-86600415D01*
X170021203Y-86636000D01*
X169838797Y-86636000D01*
X169659896Y-86600415D01*
X169491374Y-86530611D01*
X169339709Y-86429272D01*
X169210728Y-86300291D01*
X169109389Y-86148626D01*
X169039585Y-85980104D01*
X169004000Y-85801203D01*
X169004000Y-85618797D01*
X169039585Y-85439896D01*
X169109389Y-85271374D01*
X169210728Y-85119709D01*
X169339709Y-84990728D01*
X169491374Y-84889389D01*
X169659896Y-84819585D01*
X169838797Y-84784000D01*
X170021203Y-84784000D01*
X170200104Y-84819585D01*
G37*
G36*
X180360104Y-84819585D02*
G01*
X180528626Y-84889389D01*
X180680291Y-84990728D01*
X180809272Y-85119709D01*
X180910611Y-85271374D01*
X180980415Y-85439896D01*
X181016000Y-85618797D01*
X181016000Y-85801203D01*
X180980415Y-85980104D01*
X180910611Y-86148626D01*
X180809272Y-86300291D01*
X180680291Y-86429272D01*
X180528626Y-86530611D01*
X180360104Y-86600415D01*
X180181203Y-86636000D01*
X179998797Y-86636000D01*
X179819896Y-86600415D01*
X179651374Y-86530611D01*
X179499709Y-86429272D01*
X179370728Y-86300291D01*
X179269389Y-86148626D01*
X179199585Y-85980104D01*
X179164000Y-85801203D01*
X179164000Y-85618797D01*
X179199585Y-85439896D01*
X179269389Y-85271374D01*
X179370728Y-85119709D01*
X179499709Y-84990728D01*
X179651374Y-84889389D01*
X179819896Y-84819585D01*
X179998797Y-84784000D01*
X180181203Y-84784000D01*
X180360104Y-84819585D01*
G37*
G36*
X132040104Y-84819585D02*
G01*
X132208626Y-84889389D01*
X132360291Y-84990728D01*
X132489272Y-85119709D01*
X132590611Y-85271374D01*
X132660415Y-85439896D01*
X132696000Y-85618797D01*
X132696000Y-85801203D01*
X132660415Y-85980104D01*
X132590611Y-86148626D01*
X132489272Y-86300291D01*
X132360291Y-86429272D01*
X132208626Y-86530611D01*
X132040104Y-86600415D01*
X131861203Y-86636000D01*
X131678797Y-86636000D01*
X131499896Y-86600415D01*
X131331374Y-86530611D01*
X131179709Y-86429272D01*
X131050728Y-86300291D01*
X130949389Y-86148626D01*
X130879585Y-85980104D01*
X130844000Y-85801203D01*
X130844000Y-85618797D01*
X130879585Y-85439896D01*
X130949389Y-85271374D01*
X131050728Y-85119709D01*
X131179709Y-84990728D01*
X131331374Y-84889389D01*
X131499896Y-84819585D01*
X131678797Y-84784000D01*
X131861203Y-84784000D01*
X132040104Y-84819585D01*
G37*
G36*
X142200104Y-84819585D02*
G01*
X142368626Y-84889389D01*
X142520291Y-84990728D01*
X142649272Y-85119709D01*
X142750611Y-85271374D01*
X142820415Y-85439896D01*
X142856000Y-85618797D01*
X142856000Y-85801203D01*
X142820415Y-85980104D01*
X142750611Y-86148626D01*
X142649272Y-86300291D01*
X142520291Y-86429272D01*
X142368626Y-86530611D01*
X142200104Y-86600415D01*
X142021203Y-86636000D01*
X141838797Y-86636000D01*
X141659896Y-86600415D01*
X141491374Y-86530611D01*
X141339709Y-86429272D01*
X141210728Y-86300291D01*
X141109389Y-86148626D01*
X141039585Y-85980104D01*
X141004000Y-85801203D01*
X141004000Y-85618797D01*
X141039585Y-85439896D01*
X141109389Y-85271374D01*
X141210728Y-85119709D01*
X141339709Y-84990728D01*
X141491374Y-84889389D01*
X141659896Y-84819585D01*
X141838797Y-84784000D01*
X142021203Y-84784000D01*
X142200104Y-84819585D01*
G37*
G36*
X161270104Y-84809585D02*
G01*
X161438626Y-84879389D01*
X161590291Y-84980728D01*
X161719272Y-85109709D01*
X161820611Y-85261374D01*
X161890415Y-85429896D01*
X161926000Y-85608797D01*
X161926000Y-85791203D01*
X161890415Y-85970104D01*
X161820611Y-86138626D01*
X161719272Y-86290291D01*
X161590291Y-86419272D01*
X161438626Y-86520611D01*
X161270104Y-86590415D01*
X161091203Y-86626000D01*
X160908797Y-86626000D01*
X160729896Y-86590415D01*
X160561374Y-86520611D01*
X160409709Y-86419272D01*
X160280728Y-86290291D01*
X160179389Y-86138626D01*
X160109585Y-85970104D01*
X160074000Y-85791203D01*
X160074000Y-85608797D01*
X160109585Y-85429896D01*
X160179389Y-85261374D01*
X160280728Y-85109709D01*
X160409709Y-84980728D01*
X160561374Y-84879389D01*
X160729896Y-84809585D01*
X160908797Y-84774000D01*
X161091203Y-84774000D01*
X161270104Y-84809585D01*
G37*
G36*
X151110104Y-84809585D02*
G01*
X151278626Y-84879389D01*
X151430291Y-84980728D01*
X151559272Y-85109709D01*
X151660611Y-85261374D01*
X151730415Y-85429896D01*
X151766000Y-85608797D01*
X151766000Y-85791203D01*
X151730415Y-85970104D01*
X151660611Y-86138626D01*
X151559272Y-86290291D01*
X151430291Y-86419272D01*
X151278626Y-86520611D01*
X151110104Y-86590415D01*
X150931203Y-86626000D01*
X150748797Y-86626000D01*
X150569896Y-86590415D01*
X150401374Y-86520611D01*
X150249709Y-86419272D01*
X150120728Y-86290291D01*
X150019389Y-86138626D01*
X149949585Y-85970104D01*
X149914000Y-85791203D01*
X149914000Y-85608797D01*
X149949585Y-85429896D01*
X150019389Y-85261374D01*
X150120728Y-85109709D01*
X150249709Y-84980728D01*
X150401374Y-84879389D01*
X150569896Y-84809585D01*
X150748797Y-84774000D01*
X150931203Y-84774000D01*
X151110104Y-84809585D01*
G37*
G36*
X112990104Y-84799585D02*
G01*
X113158626Y-84869389D01*
X113310291Y-84970728D01*
X113439272Y-85099709D01*
X113540611Y-85251374D01*
X113610415Y-85419896D01*
X113646000Y-85598797D01*
X113646000Y-85781203D01*
X113610415Y-85960104D01*
X113540611Y-86128626D01*
X113439272Y-86280291D01*
X113310291Y-86409272D01*
X113158626Y-86510611D01*
X112990104Y-86580415D01*
X112811203Y-86616000D01*
X112628797Y-86616000D01*
X112449896Y-86580415D01*
X112281374Y-86510611D01*
X112129709Y-86409272D01*
X112000728Y-86280291D01*
X111899389Y-86128626D01*
X111829585Y-85960104D01*
X111794000Y-85781203D01*
X111794000Y-85598797D01*
X111829585Y-85419896D01*
X111899389Y-85251374D01*
X112000728Y-85099709D01*
X112129709Y-84970728D01*
X112281374Y-84869389D01*
X112449896Y-84799585D01*
X112628797Y-84764000D01*
X112811203Y-84764000D01*
X112990104Y-84799585D01*
G37*
G36*
X123150104Y-84799585D02*
G01*
X123318626Y-84869389D01*
X123470291Y-84970728D01*
X123599272Y-85099709D01*
X123700611Y-85251374D01*
X123770415Y-85419896D01*
X123806000Y-85598797D01*
X123806000Y-85781203D01*
X123770415Y-85960104D01*
X123700611Y-86128626D01*
X123599272Y-86280291D01*
X123470291Y-86409272D01*
X123318626Y-86510611D01*
X123150104Y-86580415D01*
X122971203Y-86616000D01*
X122788797Y-86616000D01*
X122609896Y-86580415D01*
X122441374Y-86510611D01*
X122289709Y-86409272D01*
X122160728Y-86280291D01*
X122059389Y-86128626D01*
X121989585Y-85960104D01*
X121954000Y-85781203D01*
X121954000Y-85598797D01*
X121989585Y-85419896D01*
X122059389Y-85251374D01*
X122160728Y-85099709D01*
X122289709Y-84970728D01*
X122441374Y-84869389D01*
X122609896Y-84799585D01*
X122788797Y-84764000D01*
X122971203Y-84764000D01*
X123150104Y-84799585D01*
G37*
G36*
X93940104Y-84799585D02*
G01*
X94108626Y-84869389D01*
X94260291Y-84970728D01*
X94389272Y-85099709D01*
X94490611Y-85251374D01*
X94560415Y-85419896D01*
X94596000Y-85598797D01*
X94596000Y-85781203D01*
X94560415Y-85960104D01*
X94490611Y-86128626D01*
X94389272Y-86280291D01*
X94260291Y-86409272D01*
X94108626Y-86510611D01*
X93940104Y-86580415D01*
X93761203Y-86616000D01*
X93578797Y-86616000D01*
X93399896Y-86580415D01*
X93231374Y-86510611D01*
X93079709Y-86409272D01*
X92950728Y-86280291D01*
X92849389Y-86128626D01*
X92779585Y-85960104D01*
X92744000Y-85781203D01*
X92744000Y-85598797D01*
X92779585Y-85419896D01*
X92849389Y-85251374D01*
X92950728Y-85099709D01*
X93079709Y-84970728D01*
X93231374Y-84869389D01*
X93399896Y-84799585D01*
X93578797Y-84764000D01*
X93761203Y-84764000D01*
X93940104Y-84799585D01*
G37*
G36*
X104100104Y-84799585D02*
G01*
X104268626Y-84869389D01*
X104420291Y-84970728D01*
X104549272Y-85099709D01*
X104650611Y-85251374D01*
X104720415Y-85419896D01*
X104756000Y-85598797D01*
X104756000Y-85781203D01*
X104720415Y-85960104D01*
X104650611Y-86128626D01*
X104549272Y-86280291D01*
X104420291Y-86409272D01*
X104268626Y-86510611D01*
X104100104Y-86580415D01*
X103921203Y-86616000D01*
X103738797Y-86616000D01*
X103559896Y-86580415D01*
X103391374Y-86510611D01*
X103239709Y-86409272D01*
X103110728Y-86280291D01*
X103009389Y-86128626D01*
X102939585Y-85960104D01*
X102904000Y-85781203D01*
X102904000Y-85598797D01*
X102939585Y-85419896D01*
X103009389Y-85251374D01*
X103110728Y-85099709D01*
X103239709Y-84970728D01*
X103391374Y-84869389D01*
X103559896Y-84799585D01*
X103738797Y-84764000D01*
X103921203Y-84764000D01*
X104100104Y-84799585D01*
G37*
G36*
X85050104Y-84799585D02*
G01*
X85218626Y-84869389D01*
X85370291Y-84970728D01*
X85499272Y-85099709D01*
X85600611Y-85251374D01*
X85670415Y-85419896D01*
X85706000Y-85598797D01*
X85706000Y-85781203D01*
X85670415Y-85960104D01*
X85600611Y-86128626D01*
X85499272Y-86280291D01*
X85370291Y-86409272D01*
X85218626Y-86510611D01*
X85050104Y-86580415D01*
X84871203Y-86616000D01*
X84688797Y-86616000D01*
X84509896Y-86580415D01*
X84341374Y-86510611D01*
X84189709Y-86409272D01*
X84060728Y-86280291D01*
X83959389Y-86128626D01*
X83889585Y-85960104D01*
X83854000Y-85781203D01*
X83854000Y-85598797D01*
X83889585Y-85419896D01*
X83959389Y-85251374D01*
X84060728Y-85099709D01*
X84189709Y-84970728D01*
X84341374Y-84869389D01*
X84509896Y-84799585D01*
X84688797Y-84764000D01*
X84871203Y-84764000D01*
X85050104Y-84799585D01*
G37*
G36*
X55830104Y-84799585D02*
G01*
X55998626Y-84869389D01*
X56150291Y-84970728D01*
X56279272Y-85099709D01*
X56380611Y-85251374D01*
X56450415Y-85419896D01*
X56486000Y-85598797D01*
X56486000Y-85781203D01*
X56450415Y-85960104D01*
X56380611Y-86128626D01*
X56279272Y-86280291D01*
X56150291Y-86409272D01*
X55998626Y-86510611D01*
X55830104Y-86580415D01*
X55651203Y-86616000D01*
X55468797Y-86616000D01*
X55289896Y-86580415D01*
X55121374Y-86510611D01*
X54969709Y-86409272D01*
X54840728Y-86280291D01*
X54739389Y-86128626D01*
X54669585Y-85960104D01*
X54634000Y-85781203D01*
X54634000Y-85598797D01*
X54669585Y-85419896D01*
X54739389Y-85251374D01*
X54840728Y-85099709D01*
X54969709Y-84970728D01*
X55121374Y-84869389D01*
X55289896Y-84799585D01*
X55468797Y-84764000D01*
X55651203Y-84764000D01*
X55830104Y-84799585D01*
G37*
G36*
X65990104Y-84799585D02*
G01*
X66158626Y-84869389D01*
X66310291Y-84970728D01*
X66439272Y-85099709D01*
X66540611Y-85251374D01*
X66610415Y-85419896D01*
X66646000Y-85598797D01*
X66646000Y-85781203D01*
X66610415Y-85960104D01*
X66540611Y-86128626D01*
X66439272Y-86280291D01*
X66310291Y-86409272D01*
X66158626Y-86510611D01*
X65990104Y-86580415D01*
X65811203Y-86616000D01*
X65628797Y-86616000D01*
X65449896Y-86580415D01*
X65281374Y-86510611D01*
X65129709Y-86409272D01*
X65000728Y-86280291D01*
X64899389Y-86128626D01*
X64829585Y-85960104D01*
X64794000Y-85781203D01*
X64794000Y-85598797D01*
X64829585Y-85419896D01*
X64899389Y-85251374D01*
X65000728Y-85099709D01*
X65129709Y-84970728D01*
X65281374Y-84869389D01*
X65449896Y-84799585D01*
X65628797Y-84764000D01*
X65811203Y-84764000D01*
X65990104Y-84799585D01*
G37*
G36*
X29630104Y-84799585D02*
G01*
X29798626Y-84869389D01*
X29950291Y-84970728D01*
X30079272Y-85099709D01*
X30180611Y-85251374D01*
X30250415Y-85419896D01*
X30286000Y-85598797D01*
X30286000Y-85781203D01*
X30250415Y-85960104D01*
X30180611Y-86128626D01*
X30079272Y-86280291D01*
X29950291Y-86409272D01*
X29798626Y-86510611D01*
X29630104Y-86580415D01*
X29451203Y-86616000D01*
X29268797Y-86616000D01*
X29089896Y-86580415D01*
X28921374Y-86510611D01*
X28769709Y-86409272D01*
X28640728Y-86280291D01*
X28539389Y-86128626D01*
X28469585Y-85960104D01*
X28434000Y-85781203D01*
X28434000Y-85598797D01*
X28469585Y-85419896D01*
X28539389Y-85251374D01*
X28640728Y-85099709D01*
X28769709Y-84970728D01*
X28921374Y-84869389D01*
X29089896Y-84799585D01*
X29268797Y-84764000D01*
X29451203Y-84764000D01*
X29630104Y-84799585D01*
G37*
G36*
X39790104Y-84799585D02*
G01*
X39958626Y-84869389D01*
X40110291Y-84970728D01*
X40239272Y-85099709D01*
X40340611Y-85251374D01*
X40410415Y-85419896D01*
X40446000Y-85598797D01*
X40446000Y-85781203D01*
X40410415Y-85960104D01*
X40340611Y-86128626D01*
X40239272Y-86280291D01*
X40110291Y-86409272D01*
X39958626Y-86510611D01*
X39790104Y-86580415D01*
X39611203Y-86616000D01*
X39428797Y-86616000D01*
X39249896Y-86580415D01*
X39081374Y-86510611D01*
X38929709Y-86409272D01*
X38800728Y-86280291D01*
X38699389Y-86128626D01*
X38629585Y-85960104D01*
X38594000Y-85781203D01*
X38594000Y-85598797D01*
X38629585Y-85419896D01*
X38699389Y-85251374D01*
X38800728Y-85099709D01*
X38929709Y-84970728D01*
X39081374Y-84869389D01*
X39249896Y-84799585D01*
X39428797Y-84764000D01*
X39611203Y-84764000D01*
X39790104Y-84799585D01*
G37*
G36*
X74890104Y-84799585D02*
G01*
X75058626Y-84869389D01*
X75210291Y-84970728D01*
X75339272Y-85099709D01*
X75440611Y-85251374D01*
X75510415Y-85419896D01*
X75546000Y-85598797D01*
X75546000Y-85781203D01*
X75510415Y-85960104D01*
X75440611Y-86128626D01*
X75339272Y-86280291D01*
X75210291Y-86409272D01*
X75058626Y-86510611D01*
X74890104Y-86580415D01*
X74711203Y-86616000D01*
X74528797Y-86616000D01*
X74349896Y-86580415D01*
X74181374Y-86510611D01*
X74029709Y-86409272D01*
X73900728Y-86280291D01*
X73799389Y-86128626D01*
X73729585Y-85960104D01*
X73694000Y-85781203D01*
X73694000Y-85598797D01*
X73729585Y-85419896D01*
X73799389Y-85251374D01*
X73900728Y-85099709D01*
X74029709Y-84970728D01*
X74181374Y-84869389D01*
X74349896Y-84799585D01*
X74528797Y-84764000D01*
X74711203Y-84764000D01*
X74890104Y-84799585D01*
G37*
G36*
X185116474Y-64693684D02*
G01*
X185334474Y-64783983D01*
X185488623Y-64847833D01*
X185823548Y-65071623D01*
X186108377Y-65356452D01*
X186332167Y-65691377D01*
X186364562Y-65769586D01*
X186486316Y-66063526D01*
X186564900Y-66458594D01*
X186564900Y-66861406D01*
X186486316Y-67256474D01*
X186435451Y-67379272D01*
X186332167Y-67628623D01*
X186108377Y-67963548D01*
X185823548Y-68248377D01*
X185488623Y-68472167D01*
X185334474Y-68536017D01*
X185116474Y-68626316D01*
X184721406Y-68704900D01*
X184318594Y-68704900D01*
X183923526Y-68626316D01*
X183705526Y-68536017D01*
X183551377Y-68472167D01*
X183216452Y-68248377D01*
X182931623Y-67963548D01*
X182707833Y-67628623D01*
X182604549Y-67379272D01*
X182553684Y-67256474D01*
X182475100Y-66861406D01*
X182475100Y-66458594D01*
X182553684Y-66063526D01*
X182675438Y-65769586D01*
X182707833Y-65691377D01*
X182931623Y-65356452D01*
X183216452Y-65071623D01*
X183551377Y-64847833D01*
X183705526Y-64783983D01*
X183923526Y-64693684D01*
X184318594Y-64615100D01*
X184721406Y-64615100D01*
X185116474Y-64693684D01*
G37*
G36*
X204156474Y-64693684D02*
G01*
X204374474Y-64783983D01*
X204528623Y-64847833D01*
X204863548Y-65071623D01*
X205148377Y-65356452D01*
X205372167Y-65691377D01*
X205404562Y-65769586D01*
X205526316Y-66063526D01*
X205604900Y-66458594D01*
X205604900Y-66861406D01*
X205526316Y-67256474D01*
X205475451Y-67379272D01*
X205372167Y-67628623D01*
X205148377Y-67963548D01*
X204863548Y-68248377D01*
X204528623Y-68472167D01*
X204374474Y-68536017D01*
X204156474Y-68626316D01*
X203761406Y-68704900D01*
X203358594Y-68704900D01*
X202963526Y-68626316D01*
X202745526Y-68536017D01*
X202591377Y-68472167D01*
X202256452Y-68248377D01*
X201971623Y-67963548D01*
X201747833Y-67628623D01*
X201644549Y-67379272D01*
X201593684Y-67256474D01*
X201515100Y-66861406D01*
X201515100Y-66458594D01*
X201593684Y-66063526D01*
X201715438Y-65769586D01*
X201747833Y-65691377D01*
X201971623Y-65356452D01*
X202256452Y-65071623D01*
X202591377Y-64847833D01*
X202745526Y-64783983D01*
X202963526Y-64693684D01*
X203358594Y-64615100D01*
X203761406Y-64615100D01*
X204156474Y-64693684D01*
G37*
G36*
X266086474Y-64693684D02*
G01*
X266304474Y-64783983D01*
X266458623Y-64847833D01*
X266793548Y-65071623D01*
X267078377Y-65356452D01*
X267302167Y-65691377D01*
X267334562Y-65769586D01*
X267456316Y-66063526D01*
X267534900Y-66458594D01*
X267534900Y-66861406D01*
X267456316Y-67256474D01*
X267405451Y-67379272D01*
X267302167Y-67628623D01*
X267078377Y-67963548D01*
X266793548Y-68248377D01*
X266458623Y-68472167D01*
X266304474Y-68536017D01*
X266086474Y-68626316D01*
X265691406Y-68704900D01*
X265288594Y-68704900D01*
X264893526Y-68626316D01*
X264675526Y-68536017D01*
X264521377Y-68472167D01*
X264186452Y-68248377D01*
X263901623Y-67963548D01*
X263677833Y-67628623D01*
X263574549Y-67379272D01*
X263523684Y-67256474D01*
X263445100Y-66861406D01*
X263445100Y-66458594D01*
X263523684Y-66063526D01*
X263645438Y-65769586D01*
X263677833Y-65691377D01*
X263901623Y-65356452D01*
X264186452Y-65071623D01*
X264521377Y-64847833D01*
X264675526Y-64783983D01*
X264893526Y-64693684D01*
X265288594Y-64615100D01*
X265691406Y-64615100D01*
X266086474Y-64693684D01*
G37*
G36*
X223206474Y-64683684D02*
G01*
X223424474Y-64773983D01*
X223578623Y-64837833D01*
X223913548Y-65061623D01*
X224198377Y-65346452D01*
X224422167Y-65681377D01*
X224454562Y-65759586D01*
X224576316Y-66053526D01*
X224654900Y-66448594D01*
X224654900Y-66851406D01*
X224576316Y-67246474D01*
X224521309Y-67379272D01*
X224422167Y-67618623D01*
X224198377Y-67953548D01*
X223913548Y-68238377D01*
X223578623Y-68462167D01*
X223424474Y-68526017D01*
X223206474Y-68616316D01*
X222811406Y-68694900D01*
X222408594Y-68694900D01*
X222013526Y-68616316D01*
X221795526Y-68526017D01*
X221641377Y-68462167D01*
X221306452Y-68238377D01*
X221021623Y-67953548D01*
X220797833Y-67618623D01*
X220698691Y-67379272D01*
X220643684Y-67246474D01*
X220565100Y-66851406D01*
X220565100Y-66448594D01*
X220643684Y-66053526D01*
X220765438Y-65759586D01*
X220797833Y-65681377D01*
X221021623Y-65346452D01*
X221306452Y-65061623D01*
X221641377Y-64837833D01*
X221795526Y-64773983D01*
X222013526Y-64683684D01*
X222408594Y-64605100D01*
X222811406Y-64605100D01*
X223206474Y-64683684D01*
G37*
G36*
X166066474Y-64683684D02*
G01*
X166284474Y-64773983D01*
X166438623Y-64837833D01*
X166773548Y-65061623D01*
X167058377Y-65346452D01*
X167282167Y-65681377D01*
X167314562Y-65759586D01*
X167436316Y-66053526D01*
X167514900Y-66448594D01*
X167514900Y-66851406D01*
X167436316Y-67246474D01*
X167381309Y-67379272D01*
X167282167Y-67618623D01*
X167058377Y-67953548D01*
X166773548Y-68238377D01*
X166438623Y-68462167D01*
X166284474Y-68526017D01*
X166066474Y-68616316D01*
X165671406Y-68694900D01*
X165268594Y-68694900D01*
X164873526Y-68616316D01*
X164655526Y-68526017D01*
X164501377Y-68462167D01*
X164166452Y-68238377D01*
X163881623Y-67953548D01*
X163657833Y-67618623D01*
X163558691Y-67379272D01*
X163503684Y-67246474D01*
X163425100Y-66851406D01*
X163425100Y-66448594D01*
X163503684Y-66053526D01*
X163625438Y-65759586D01*
X163657833Y-65681377D01*
X163881623Y-65346452D01*
X164166452Y-65061623D01*
X164501377Y-64837833D01*
X164655526Y-64773983D01*
X164873526Y-64683684D01*
X165268594Y-64605100D01*
X165671406Y-64605100D01*
X166066474Y-64683684D01*
G37*
G36*
X146996474Y-64683684D02*
G01*
X147214474Y-64773983D01*
X147368623Y-64837833D01*
X147703548Y-65061623D01*
X147988377Y-65346452D01*
X148212167Y-65681377D01*
X148244562Y-65759586D01*
X148366316Y-66053526D01*
X148444900Y-66448594D01*
X148444900Y-66851406D01*
X148366316Y-67246474D01*
X148311309Y-67379272D01*
X148212167Y-67618623D01*
X147988377Y-67953548D01*
X147703548Y-68238377D01*
X147368623Y-68462167D01*
X147214474Y-68526017D01*
X146996474Y-68616316D01*
X146601406Y-68694900D01*
X146198594Y-68694900D01*
X145803526Y-68616316D01*
X145585526Y-68526017D01*
X145431377Y-68462167D01*
X145096452Y-68238377D01*
X144811623Y-67953548D01*
X144587833Y-67618623D01*
X144488691Y-67379272D01*
X144433684Y-67246474D01*
X144355100Y-66851406D01*
X144355100Y-66448594D01*
X144433684Y-66053526D01*
X144555438Y-65759586D01*
X144587833Y-65681377D01*
X144811623Y-65346452D01*
X145096452Y-65061623D01*
X145431377Y-64837833D01*
X145585526Y-64773983D01*
X145803526Y-64683684D01*
X146198594Y-64605100D01*
X146601406Y-64605100D01*
X146996474Y-64683684D01*
G37*
G36*
X242266474Y-64683684D02*
G01*
X242484474Y-64773983D01*
X242638623Y-64837833D01*
X242973548Y-65061623D01*
X243258377Y-65346452D01*
X243482167Y-65681377D01*
X243514562Y-65759586D01*
X243636316Y-66053526D01*
X243714900Y-66448594D01*
X243714900Y-66851406D01*
X243636316Y-67246474D01*
X243581309Y-67379272D01*
X243482167Y-67618623D01*
X243258377Y-67953548D01*
X242973548Y-68238377D01*
X242638623Y-68462167D01*
X242484474Y-68526017D01*
X242266474Y-68616316D01*
X241871406Y-68694900D01*
X241468594Y-68694900D01*
X241073526Y-68616316D01*
X240855526Y-68526017D01*
X240701377Y-68462167D01*
X240366452Y-68238377D01*
X240081623Y-67953548D01*
X239857833Y-67618623D01*
X239758691Y-67379272D01*
X239703684Y-67246474D01*
X239625100Y-66851406D01*
X239625100Y-66448594D01*
X239703684Y-66053526D01*
X239825438Y-65759586D01*
X239857833Y-65681377D01*
X240081623Y-65346452D01*
X240366452Y-65061623D01*
X240701377Y-64837833D01*
X240855526Y-64773983D01*
X241073526Y-64683684D01*
X241468594Y-64605100D01*
X241871406Y-64605100D01*
X242266474Y-64683684D01*
G37*
G36*
X108886474Y-64673684D02*
G01*
X109104474Y-64763983D01*
X109258623Y-64827833D01*
X109593548Y-65051623D01*
X109878377Y-65336452D01*
X110102167Y-65671377D01*
X110134562Y-65749586D01*
X110256316Y-66043526D01*
X110334900Y-66438594D01*
X110334900Y-66841406D01*
X110256316Y-67236474D01*
X110201309Y-67369272D01*
X110102167Y-67608623D01*
X109878377Y-67943548D01*
X109593548Y-68228377D01*
X109258623Y-68452167D01*
X109210338Y-68472167D01*
X108886474Y-68606316D01*
X108491406Y-68684900D01*
X108088594Y-68684900D01*
X107693526Y-68606316D01*
X107369662Y-68472167D01*
X107321377Y-68452167D01*
X106986452Y-68228377D01*
X106701623Y-67943548D01*
X106477833Y-67608623D01*
X106378691Y-67369272D01*
X106323684Y-67236474D01*
X106245100Y-66841406D01*
X106245100Y-66438594D01*
X106323684Y-66043526D01*
X106445438Y-65749586D01*
X106477833Y-65671377D01*
X106701623Y-65336452D01*
X106986452Y-65051623D01*
X107321377Y-64827833D01*
X107475526Y-64763983D01*
X107693526Y-64673684D01*
X108088594Y-64595100D01*
X108491406Y-64595100D01*
X108886474Y-64673684D01*
G37*
G36*
X51706474Y-64673684D02*
G01*
X51924474Y-64763983D01*
X52078623Y-64827833D01*
X52413548Y-65051623D01*
X52698377Y-65336452D01*
X52922167Y-65671377D01*
X52954562Y-65749586D01*
X53076316Y-66043526D01*
X53154900Y-66438594D01*
X53154900Y-66841406D01*
X53076316Y-67236474D01*
X53021309Y-67369272D01*
X52922167Y-67608623D01*
X52698377Y-67943548D01*
X52413548Y-68228377D01*
X52078623Y-68452167D01*
X52030338Y-68472167D01*
X51706474Y-68606316D01*
X51311406Y-68684900D01*
X50908594Y-68684900D01*
X50513526Y-68606316D01*
X50189662Y-68472167D01*
X50141377Y-68452167D01*
X49806452Y-68228377D01*
X49521623Y-67943548D01*
X49297833Y-67608623D01*
X49198691Y-67369272D01*
X49143684Y-67236474D01*
X49065100Y-66841406D01*
X49065100Y-66438594D01*
X49143684Y-66043526D01*
X49265438Y-65749586D01*
X49297833Y-65671377D01*
X49521623Y-65336452D01*
X49806452Y-65051623D01*
X50141377Y-64827833D01*
X50295526Y-64763983D01*
X50513526Y-64673684D01*
X50908594Y-64595100D01*
X51311406Y-64595100D01*
X51706474Y-64673684D01*
G37*
G36*
X70776474Y-64673684D02*
G01*
X70994474Y-64763983D01*
X71148623Y-64827833D01*
X71483548Y-65051623D01*
X71768377Y-65336452D01*
X71992167Y-65671377D01*
X72024562Y-65749586D01*
X72146316Y-66043526D01*
X72224900Y-66438594D01*
X72224900Y-66841406D01*
X72146316Y-67236474D01*
X72091309Y-67369272D01*
X71992167Y-67608623D01*
X71768377Y-67943548D01*
X71483548Y-68228377D01*
X71148623Y-68452167D01*
X71100338Y-68472167D01*
X70776474Y-68606316D01*
X70381406Y-68684900D01*
X69978594Y-68684900D01*
X69583526Y-68606316D01*
X69259662Y-68472167D01*
X69211377Y-68452167D01*
X68876452Y-68228377D01*
X68591623Y-67943548D01*
X68367833Y-67608623D01*
X68268691Y-67369272D01*
X68213684Y-67236474D01*
X68135100Y-66841406D01*
X68135100Y-66438594D01*
X68213684Y-66043526D01*
X68335438Y-65749586D01*
X68367833Y-65671377D01*
X68591623Y-65336452D01*
X68876452Y-65051623D01*
X69211377Y-64827833D01*
X69365526Y-64763983D01*
X69583526Y-64673684D01*
X69978594Y-64595100D01*
X70381406Y-64595100D01*
X70776474Y-64673684D01*
G37*
G36*
X89826474Y-64673684D02*
G01*
X90044474Y-64763983D01*
X90198623Y-64827833D01*
X90533548Y-65051623D01*
X90818377Y-65336452D01*
X91042167Y-65671377D01*
X91074562Y-65749586D01*
X91196316Y-66043526D01*
X91274900Y-66438594D01*
X91274900Y-66841406D01*
X91196316Y-67236474D01*
X91141309Y-67369272D01*
X91042167Y-67608623D01*
X90818377Y-67943548D01*
X90533548Y-68228377D01*
X90198623Y-68452167D01*
X90150338Y-68472167D01*
X89826474Y-68606316D01*
X89431406Y-68684900D01*
X89028594Y-68684900D01*
X88633526Y-68606316D01*
X88309662Y-68472167D01*
X88261377Y-68452167D01*
X87926452Y-68228377D01*
X87641623Y-67943548D01*
X87417833Y-67608623D01*
X87318691Y-67369272D01*
X87263684Y-67236474D01*
X87185100Y-66841406D01*
X87185100Y-66438594D01*
X87263684Y-66043526D01*
X87385438Y-65749586D01*
X87417833Y-65671377D01*
X87641623Y-65336452D01*
X87926452Y-65051623D01*
X88261377Y-64827833D01*
X88415526Y-64763983D01*
X88633526Y-64673684D01*
X89028594Y-64595100D01*
X89431406Y-64595100D01*
X89826474Y-64673684D01*
G37*
G36*
X127936474Y-64673684D02*
G01*
X128154474Y-64763983D01*
X128308623Y-64827833D01*
X128643548Y-65051623D01*
X128928377Y-65336452D01*
X129152167Y-65671377D01*
X129184562Y-65749586D01*
X129306316Y-66043526D01*
X129384900Y-66438594D01*
X129384900Y-66841406D01*
X129306316Y-67236474D01*
X129251309Y-67369272D01*
X129152167Y-67608623D01*
X128928377Y-67943548D01*
X128643548Y-68228377D01*
X128308623Y-68452167D01*
X128260338Y-68472167D01*
X127936474Y-68606316D01*
X127541406Y-68684900D01*
X127138594Y-68684900D01*
X126743526Y-68606316D01*
X126419662Y-68472167D01*
X126371377Y-68452167D01*
X126036452Y-68228377D01*
X125751623Y-67943548D01*
X125527833Y-67608623D01*
X125428691Y-67369272D01*
X125373684Y-67236474D01*
X125295100Y-66841406D01*
X125295100Y-66438594D01*
X125373684Y-66043526D01*
X125495438Y-65749586D01*
X125527833Y-65671377D01*
X125751623Y-65336452D01*
X126036452Y-65051623D01*
X126371377Y-64827833D01*
X126525526Y-64763983D01*
X126743526Y-64673684D01*
X127138594Y-64595100D01*
X127541406Y-64595100D01*
X127936474Y-64673684D01*
G37*
G36*
X30276474Y-64673684D02*
G01*
X30494474Y-64763983D01*
X30648623Y-64827833D01*
X30983548Y-65051623D01*
X31268377Y-65336452D01*
X31492167Y-65671377D01*
X31524562Y-65749586D01*
X31646316Y-66043526D01*
X31724900Y-66438594D01*
X31724900Y-66841406D01*
X31646316Y-67236474D01*
X31591309Y-67369272D01*
X31492167Y-67608623D01*
X31268377Y-67943548D01*
X30983548Y-68228377D01*
X30648623Y-68452167D01*
X30600338Y-68472167D01*
X30276474Y-68606316D01*
X29881406Y-68684900D01*
X29478594Y-68684900D01*
X29083526Y-68606316D01*
X28759662Y-68472167D01*
X28711377Y-68452167D01*
X28376452Y-68228377D01*
X28091623Y-67943548D01*
X27867833Y-67608623D01*
X27768691Y-67369272D01*
X27713684Y-67236474D01*
X27635100Y-66841406D01*
X27635100Y-66438594D01*
X27713684Y-66043526D01*
X27835438Y-65749586D01*
X27867833Y-65671377D01*
X28091623Y-65336452D01*
X28376452Y-65051623D01*
X28711377Y-64827833D01*
X28865526Y-64763983D01*
X29083526Y-64673684D01*
X29478594Y-64595100D01*
X29881406Y-64595100D01*
X30276474Y-64673684D01*
G37*
G36*
X208910104Y-65769585D02*
G01*
X209078626Y-65839389D01*
X209230291Y-65940728D01*
X209359272Y-66069709D01*
X209460611Y-66221374D01*
X209530415Y-66389896D01*
X209566000Y-66568797D01*
X209566000Y-66751203D01*
X209530415Y-66930104D01*
X209460611Y-67098626D01*
X209359272Y-67250291D01*
X209230291Y-67379272D01*
X209078626Y-67480611D01*
X208910104Y-67550415D01*
X208731203Y-67586000D01*
X208548797Y-67586000D01*
X208369896Y-67550415D01*
X208201374Y-67480611D01*
X208049709Y-67379272D01*
X207920728Y-67250291D01*
X207819389Y-67098626D01*
X207749585Y-66930104D01*
X207714000Y-66751203D01*
X207714000Y-66568797D01*
X207749585Y-66389896D01*
X207819389Y-66221374D01*
X207920728Y-66069709D01*
X208049709Y-65940728D01*
X208201374Y-65839389D01*
X208369896Y-65769585D01*
X208548797Y-65734000D01*
X208731203Y-65734000D01*
X208910104Y-65769585D01*
G37*
G36*
X198750104Y-65769585D02*
G01*
X198918626Y-65839389D01*
X199070291Y-65940728D01*
X199199272Y-66069709D01*
X199300611Y-66221374D01*
X199370415Y-66389896D01*
X199406000Y-66568797D01*
X199406000Y-66751203D01*
X199370415Y-66930104D01*
X199300611Y-67098626D01*
X199199272Y-67250291D01*
X199070291Y-67379272D01*
X198918626Y-67480611D01*
X198750104Y-67550415D01*
X198571203Y-67586000D01*
X198388797Y-67586000D01*
X198209896Y-67550415D01*
X198041374Y-67480611D01*
X197889709Y-67379272D01*
X197760728Y-67250291D01*
X197659389Y-67098626D01*
X197589585Y-66930104D01*
X197554000Y-66751203D01*
X197554000Y-66568797D01*
X197589585Y-66389896D01*
X197659389Y-66221374D01*
X197760728Y-66069709D01*
X197889709Y-65940728D01*
X198041374Y-65839389D01*
X198209896Y-65769585D01*
X198388797Y-65734000D01*
X198571203Y-65734000D01*
X198750104Y-65769585D01*
G37*
G36*
X179710104Y-65769585D02*
G01*
X179878626Y-65839389D01*
X180030291Y-65940728D01*
X180159272Y-66069709D01*
X180260611Y-66221374D01*
X180330415Y-66389896D01*
X180366000Y-66568797D01*
X180366000Y-66751203D01*
X180330415Y-66930104D01*
X180260611Y-67098626D01*
X180159272Y-67250291D01*
X180030291Y-67379272D01*
X179878626Y-67480611D01*
X179710104Y-67550415D01*
X179531203Y-67586000D01*
X179348797Y-67586000D01*
X179169896Y-67550415D01*
X179001374Y-67480611D01*
X178849709Y-67379272D01*
X178720728Y-67250291D01*
X178619389Y-67098626D01*
X178549585Y-66930104D01*
X178514000Y-66751203D01*
X178514000Y-66568797D01*
X178549585Y-66389896D01*
X178619389Y-66221374D01*
X178720728Y-66069709D01*
X178849709Y-65940728D01*
X179001374Y-65839389D01*
X179169896Y-65769585D01*
X179348797Y-65734000D01*
X179531203Y-65734000D01*
X179710104Y-65769585D01*
G37*
G36*
X189870104Y-65769585D02*
G01*
X190038626Y-65839389D01*
X190190291Y-65940728D01*
X190319272Y-66069709D01*
X190420611Y-66221374D01*
X190490415Y-66389896D01*
X190526000Y-66568797D01*
X190526000Y-66751203D01*
X190490415Y-66930104D01*
X190420611Y-67098626D01*
X190319272Y-67250291D01*
X190190291Y-67379272D01*
X190038626Y-67480611D01*
X189870104Y-67550415D01*
X189691203Y-67586000D01*
X189508797Y-67586000D01*
X189329896Y-67550415D01*
X189161374Y-67480611D01*
X189009709Y-67379272D01*
X188880728Y-67250291D01*
X188779389Y-67098626D01*
X188709585Y-66930104D01*
X188674000Y-66751203D01*
X188674000Y-66568797D01*
X188709585Y-66389896D01*
X188779389Y-66221374D01*
X188880728Y-66069709D01*
X189009709Y-65940728D01*
X189161374Y-65839389D01*
X189329896Y-65769585D01*
X189508797Y-65734000D01*
X189691203Y-65734000D01*
X189870104Y-65769585D01*
G37*
G36*
X270840104Y-65769585D02*
G01*
X271008626Y-65839389D01*
X271160291Y-65940728D01*
X271289272Y-66069709D01*
X271390611Y-66221374D01*
X271460415Y-66389896D01*
X271496000Y-66568797D01*
X271496000Y-66751203D01*
X271460415Y-66930104D01*
X271390611Y-67098626D01*
X271289272Y-67250291D01*
X271160291Y-67379272D01*
X271008626Y-67480611D01*
X270840104Y-67550415D01*
X270661203Y-67586000D01*
X270478797Y-67586000D01*
X270299896Y-67550415D01*
X270131374Y-67480611D01*
X269979709Y-67379272D01*
X269850728Y-67250291D01*
X269749389Y-67098626D01*
X269679585Y-66930104D01*
X269644000Y-66751203D01*
X269644000Y-66568797D01*
X269679585Y-66389896D01*
X269749389Y-66221374D01*
X269850728Y-66069709D01*
X269979709Y-65940728D01*
X270131374Y-65839389D01*
X270299896Y-65769585D01*
X270478797Y-65734000D01*
X270661203Y-65734000D01*
X270840104Y-65769585D01*
G37*
G36*
X260680104Y-65769585D02*
G01*
X260848626Y-65839389D01*
X261000291Y-65940728D01*
X261129272Y-66069709D01*
X261230611Y-66221374D01*
X261300415Y-66389896D01*
X261336000Y-66568797D01*
X261336000Y-66751203D01*
X261300415Y-66930104D01*
X261230611Y-67098626D01*
X261129272Y-67250291D01*
X261000291Y-67379272D01*
X260848626Y-67480611D01*
X260680104Y-67550415D01*
X260501203Y-67586000D01*
X260318797Y-67586000D01*
X260139896Y-67550415D01*
X259971374Y-67480611D01*
X259819709Y-67379272D01*
X259690728Y-67250291D01*
X259589389Y-67098626D01*
X259519585Y-66930104D01*
X259484000Y-66751203D01*
X259484000Y-66568797D01*
X259519585Y-66389896D01*
X259589389Y-66221374D01*
X259690728Y-66069709D01*
X259819709Y-65940728D01*
X259971374Y-65839389D01*
X260139896Y-65769585D01*
X260318797Y-65734000D01*
X260501203Y-65734000D01*
X260680104Y-65769585D01*
G37*
G36*
X247020104Y-65759585D02*
G01*
X247188626Y-65829389D01*
X247340291Y-65930728D01*
X247469272Y-66059709D01*
X247570611Y-66211374D01*
X247640415Y-66379896D01*
X247676000Y-66558797D01*
X247676000Y-66741203D01*
X247640415Y-66920104D01*
X247570611Y-67088626D01*
X247469272Y-67240291D01*
X247340291Y-67369272D01*
X247188626Y-67470611D01*
X247020104Y-67540415D01*
X246841203Y-67576000D01*
X246658797Y-67576000D01*
X246479896Y-67540415D01*
X246311374Y-67470611D01*
X246159709Y-67369272D01*
X246030728Y-67240291D01*
X245929389Y-67088626D01*
X245859585Y-66920104D01*
X245824000Y-66741203D01*
X245824000Y-66558797D01*
X245859585Y-66379896D01*
X245929389Y-66211374D01*
X246030728Y-66059709D01*
X246159709Y-65930728D01*
X246311374Y-65829389D01*
X246479896Y-65759585D01*
X246658797Y-65724000D01*
X246841203Y-65724000D01*
X247020104Y-65759585D01*
G37*
G36*
X170820104Y-65759585D02*
G01*
X170988626Y-65829389D01*
X171140291Y-65930728D01*
X171269272Y-66059709D01*
X171370611Y-66211374D01*
X171440415Y-66379896D01*
X171476000Y-66558797D01*
X171476000Y-66741203D01*
X171440415Y-66920104D01*
X171370611Y-67088626D01*
X171269272Y-67240291D01*
X171140291Y-67369272D01*
X170988626Y-67470611D01*
X170820104Y-67540415D01*
X170641203Y-67576000D01*
X170458797Y-67576000D01*
X170279896Y-67540415D01*
X170111374Y-67470611D01*
X169959709Y-67369272D01*
X169830728Y-67240291D01*
X169729389Y-67088626D01*
X169659585Y-66920104D01*
X169624000Y-66741203D01*
X169624000Y-66558797D01*
X169659585Y-66379896D01*
X169729389Y-66211374D01*
X169830728Y-66059709D01*
X169959709Y-65930728D01*
X170111374Y-65829389D01*
X170279896Y-65759585D01*
X170458797Y-65724000D01*
X170641203Y-65724000D01*
X170820104Y-65759585D01*
G37*
G36*
X160660104Y-65759585D02*
G01*
X160828626Y-65829389D01*
X160980291Y-65930728D01*
X161109272Y-66059709D01*
X161210611Y-66211374D01*
X161280415Y-66379896D01*
X161316000Y-66558797D01*
X161316000Y-66741203D01*
X161280415Y-66920104D01*
X161210611Y-67088626D01*
X161109272Y-67240291D01*
X160980291Y-67369272D01*
X160828626Y-67470611D01*
X160660104Y-67540415D01*
X160481203Y-67576000D01*
X160298797Y-67576000D01*
X160119896Y-67540415D01*
X159951374Y-67470611D01*
X159799709Y-67369272D01*
X159670728Y-67240291D01*
X159569389Y-67088626D01*
X159499585Y-66920104D01*
X159464000Y-66741203D01*
X159464000Y-66558797D01*
X159499585Y-66379896D01*
X159569389Y-66211374D01*
X159670728Y-66059709D01*
X159799709Y-65930728D01*
X159951374Y-65829389D01*
X160119896Y-65759585D01*
X160298797Y-65724000D01*
X160481203Y-65724000D01*
X160660104Y-65759585D01*
G37*
G36*
X217800104Y-65759585D02*
G01*
X217968626Y-65829389D01*
X218120291Y-65930728D01*
X218249272Y-66059709D01*
X218350611Y-66211374D01*
X218420415Y-66379896D01*
X218456000Y-66558797D01*
X218456000Y-66741203D01*
X218420415Y-66920104D01*
X218350611Y-67088626D01*
X218249272Y-67240291D01*
X218120291Y-67369272D01*
X217968626Y-67470611D01*
X217800104Y-67540415D01*
X217621203Y-67576000D01*
X217438797Y-67576000D01*
X217259896Y-67540415D01*
X217091374Y-67470611D01*
X216939709Y-67369272D01*
X216810728Y-67240291D01*
X216709389Y-67088626D01*
X216639585Y-66920104D01*
X216604000Y-66741203D01*
X216604000Y-66558797D01*
X216639585Y-66379896D01*
X216709389Y-66211374D01*
X216810728Y-66059709D01*
X216939709Y-65930728D01*
X217091374Y-65829389D01*
X217259896Y-65759585D01*
X217438797Y-65724000D01*
X217621203Y-65724000D01*
X217800104Y-65759585D01*
G37*
G36*
X141590104Y-65759585D02*
G01*
X141758626Y-65829389D01*
X141910291Y-65930728D01*
X142039272Y-66059709D01*
X142140611Y-66211374D01*
X142210415Y-66379896D01*
X142246000Y-66558797D01*
X142246000Y-66741203D01*
X142210415Y-66920104D01*
X142140611Y-67088626D01*
X142039272Y-67240291D01*
X141910291Y-67369272D01*
X141758626Y-67470611D01*
X141590104Y-67540415D01*
X141411203Y-67576000D01*
X141228797Y-67576000D01*
X141049896Y-67540415D01*
X140881374Y-67470611D01*
X140729709Y-67369272D01*
X140600728Y-67240291D01*
X140499389Y-67088626D01*
X140429585Y-66920104D01*
X140394000Y-66741203D01*
X140394000Y-66558797D01*
X140429585Y-66379896D01*
X140499389Y-66211374D01*
X140600728Y-66059709D01*
X140729709Y-65930728D01*
X140881374Y-65829389D01*
X141049896Y-65759585D01*
X141228797Y-65724000D01*
X141411203Y-65724000D01*
X141590104Y-65759585D01*
G37*
G36*
X227960104Y-65759585D02*
G01*
X228128626Y-65829389D01*
X228280291Y-65930728D01*
X228409272Y-66059709D01*
X228510611Y-66211374D01*
X228580415Y-66379896D01*
X228616000Y-66558797D01*
X228616000Y-66741203D01*
X228580415Y-66920104D01*
X228510611Y-67088626D01*
X228409272Y-67240291D01*
X228280291Y-67369272D01*
X228128626Y-67470611D01*
X227960104Y-67540415D01*
X227781203Y-67576000D01*
X227598797Y-67576000D01*
X227419896Y-67540415D01*
X227251374Y-67470611D01*
X227099709Y-67369272D01*
X226970728Y-67240291D01*
X226869389Y-67088626D01*
X226799585Y-66920104D01*
X226764000Y-66741203D01*
X226764000Y-66558797D01*
X226799585Y-66379896D01*
X226869389Y-66211374D01*
X226970728Y-66059709D01*
X227099709Y-65930728D01*
X227251374Y-65829389D01*
X227419896Y-65759585D01*
X227598797Y-65724000D01*
X227781203Y-65724000D01*
X227960104Y-65759585D01*
G37*
G36*
X236860104Y-65759585D02*
G01*
X237028626Y-65829389D01*
X237180291Y-65930728D01*
X237309272Y-66059709D01*
X237410611Y-66211374D01*
X237480415Y-66379896D01*
X237516000Y-66558797D01*
X237516000Y-66741203D01*
X237480415Y-66920104D01*
X237410611Y-67088626D01*
X237309272Y-67240291D01*
X237180291Y-67369272D01*
X237028626Y-67470611D01*
X236860104Y-67540415D01*
X236681203Y-67576000D01*
X236498797Y-67576000D01*
X236319896Y-67540415D01*
X236151374Y-67470611D01*
X235999709Y-67369272D01*
X235870728Y-67240291D01*
X235769389Y-67088626D01*
X235699585Y-66920104D01*
X235664000Y-66741203D01*
X235664000Y-66558797D01*
X235699585Y-66379896D01*
X235769389Y-66211374D01*
X235870728Y-66059709D01*
X235999709Y-65930728D01*
X236151374Y-65829389D01*
X236319896Y-65759585D01*
X236498797Y-65724000D01*
X236681203Y-65724000D01*
X236860104Y-65759585D01*
G37*
G36*
X151750104Y-65759585D02*
G01*
X151918626Y-65829389D01*
X152070291Y-65930728D01*
X152199272Y-66059709D01*
X152300611Y-66211374D01*
X152370415Y-66379896D01*
X152406000Y-66558797D01*
X152406000Y-66741203D01*
X152370415Y-66920104D01*
X152300611Y-67088626D01*
X152199272Y-67240291D01*
X152070291Y-67369272D01*
X151918626Y-67470611D01*
X151750104Y-67540415D01*
X151571203Y-67576000D01*
X151388797Y-67576000D01*
X151209896Y-67540415D01*
X151041374Y-67470611D01*
X150889709Y-67369272D01*
X150760728Y-67240291D01*
X150659389Y-67088626D01*
X150589585Y-66920104D01*
X150554000Y-66741203D01*
X150554000Y-66558797D01*
X150589585Y-66379896D01*
X150659389Y-66211374D01*
X150760728Y-66059709D01*
X150889709Y-65930728D01*
X151041374Y-65829389D01*
X151209896Y-65759585D01*
X151388797Y-65724000D01*
X151571203Y-65724000D01*
X151750104Y-65759585D01*
G37*
G36*
X103480104Y-65749585D02*
G01*
X103648626Y-65819389D01*
X103800291Y-65920728D01*
X103929272Y-66049709D01*
X104030611Y-66201374D01*
X104100415Y-66369896D01*
X104136000Y-66548797D01*
X104136000Y-66731203D01*
X104100415Y-66910104D01*
X104030611Y-67078626D01*
X103929272Y-67230291D01*
X103800291Y-67359272D01*
X103648626Y-67460611D01*
X103480104Y-67530415D01*
X103301203Y-67566000D01*
X103118797Y-67566000D01*
X102939896Y-67530415D01*
X102771374Y-67460611D01*
X102619709Y-67359272D01*
X102490728Y-67230291D01*
X102389389Y-67078626D01*
X102319585Y-66910104D01*
X102284000Y-66731203D01*
X102284000Y-66548797D01*
X102319585Y-66369896D01*
X102389389Y-66201374D01*
X102490728Y-66049709D01*
X102619709Y-65920728D01*
X102771374Y-65819389D01*
X102939896Y-65749585D01*
X103118797Y-65714000D01*
X103301203Y-65714000D01*
X103480104Y-65749585D01*
G37*
G36*
X35030104Y-65749585D02*
G01*
X35198626Y-65819389D01*
X35350291Y-65920728D01*
X35479272Y-66049709D01*
X35580611Y-66201374D01*
X35650415Y-66369896D01*
X35686000Y-66548797D01*
X35686000Y-66731203D01*
X35650415Y-66910104D01*
X35580611Y-67078626D01*
X35479272Y-67230291D01*
X35350291Y-67359272D01*
X35198626Y-67460611D01*
X35030104Y-67530415D01*
X34851203Y-67566000D01*
X34668797Y-67566000D01*
X34489896Y-67530415D01*
X34321374Y-67460611D01*
X34169709Y-67359272D01*
X34040728Y-67230291D01*
X33939389Y-67078626D01*
X33869585Y-66910104D01*
X33834000Y-66731203D01*
X33834000Y-66548797D01*
X33869585Y-66369896D01*
X33939389Y-66201374D01*
X34040728Y-66049709D01*
X34169709Y-65920728D01*
X34321374Y-65819389D01*
X34489896Y-65749585D01*
X34668797Y-65714000D01*
X34851203Y-65714000D01*
X35030104Y-65749585D01*
G37*
G36*
X24870104Y-65749585D02*
G01*
X25038626Y-65819389D01*
X25190291Y-65920728D01*
X25319272Y-66049709D01*
X25420611Y-66201374D01*
X25490415Y-66369896D01*
X25526000Y-66548797D01*
X25526000Y-66731203D01*
X25490415Y-66910104D01*
X25420611Y-67078626D01*
X25319272Y-67230291D01*
X25190291Y-67359272D01*
X25038626Y-67460611D01*
X24870104Y-67530415D01*
X24691203Y-67566000D01*
X24508797Y-67566000D01*
X24329896Y-67530415D01*
X24161374Y-67460611D01*
X24009709Y-67359272D01*
X23880728Y-67230291D01*
X23779389Y-67078626D01*
X23709585Y-66910104D01*
X23674000Y-66731203D01*
X23674000Y-66548797D01*
X23709585Y-66369896D01*
X23779389Y-66201374D01*
X23880728Y-66049709D01*
X24009709Y-65920728D01*
X24161374Y-65819389D01*
X24329896Y-65749585D01*
X24508797Y-65714000D01*
X24691203Y-65714000D01*
X24870104Y-65749585D01*
G37*
G36*
X132690104Y-65749585D02*
G01*
X132858626Y-65819389D01*
X133010291Y-65920728D01*
X133139272Y-66049709D01*
X133240611Y-66201374D01*
X133310415Y-66369896D01*
X133346000Y-66548797D01*
X133346000Y-66731203D01*
X133310415Y-66910104D01*
X133240611Y-67078626D01*
X133139272Y-67230291D01*
X133010291Y-67359272D01*
X132858626Y-67460611D01*
X132690104Y-67530415D01*
X132511203Y-67566000D01*
X132328797Y-67566000D01*
X132149896Y-67530415D01*
X131981374Y-67460611D01*
X131829709Y-67359272D01*
X131700728Y-67230291D01*
X131599389Y-67078626D01*
X131529585Y-66910104D01*
X131494000Y-66731203D01*
X131494000Y-66548797D01*
X131529585Y-66369896D01*
X131599389Y-66201374D01*
X131700728Y-66049709D01*
X131829709Y-65920728D01*
X131981374Y-65819389D01*
X132149896Y-65749585D01*
X132328797Y-65714000D01*
X132511203Y-65714000D01*
X132690104Y-65749585D01*
G37*
G36*
X122530104Y-65749585D02*
G01*
X122698626Y-65819389D01*
X122850291Y-65920728D01*
X122979272Y-66049709D01*
X123080611Y-66201374D01*
X123150415Y-66369896D01*
X123186000Y-66548797D01*
X123186000Y-66731203D01*
X123150415Y-66910104D01*
X123080611Y-67078626D01*
X122979272Y-67230291D01*
X122850291Y-67359272D01*
X122698626Y-67460611D01*
X122530104Y-67530415D01*
X122351203Y-67566000D01*
X122168797Y-67566000D01*
X121989896Y-67530415D01*
X121821374Y-67460611D01*
X121669709Y-67359272D01*
X121540728Y-67230291D01*
X121439389Y-67078626D01*
X121369585Y-66910104D01*
X121334000Y-66731203D01*
X121334000Y-66548797D01*
X121369585Y-66369896D01*
X121439389Y-66201374D01*
X121540728Y-66049709D01*
X121669709Y-65920728D01*
X121821374Y-65819389D01*
X121989896Y-65749585D01*
X122168797Y-65714000D01*
X122351203Y-65714000D01*
X122530104Y-65749585D01*
G37*
G36*
X113640104Y-65749585D02*
G01*
X113808626Y-65819389D01*
X113960291Y-65920728D01*
X114089272Y-66049709D01*
X114190611Y-66201374D01*
X114260415Y-66369896D01*
X114296000Y-66548797D01*
X114296000Y-66731203D01*
X114260415Y-66910104D01*
X114190611Y-67078626D01*
X114089272Y-67230291D01*
X113960291Y-67359272D01*
X113808626Y-67460611D01*
X113640104Y-67530415D01*
X113461203Y-67566000D01*
X113278797Y-67566000D01*
X113099896Y-67530415D01*
X112931374Y-67460611D01*
X112779709Y-67359272D01*
X112650728Y-67230291D01*
X112549389Y-67078626D01*
X112479585Y-66910104D01*
X112444000Y-66731203D01*
X112444000Y-66548797D01*
X112479585Y-66369896D01*
X112549389Y-66201374D01*
X112650728Y-66049709D01*
X112779709Y-65920728D01*
X112931374Y-65819389D01*
X113099896Y-65749585D01*
X113278797Y-65714000D01*
X113461203Y-65714000D01*
X113640104Y-65749585D01*
G37*
G36*
X84420104Y-65749585D02*
G01*
X84588626Y-65819389D01*
X84740291Y-65920728D01*
X84869272Y-66049709D01*
X84970611Y-66201374D01*
X85040415Y-66369896D01*
X85076000Y-66548797D01*
X85076000Y-66731203D01*
X85040415Y-66910104D01*
X84970611Y-67078626D01*
X84869272Y-67230291D01*
X84740291Y-67359272D01*
X84588626Y-67460611D01*
X84420104Y-67530415D01*
X84241203Y-67566000D01*
X84058797Y-67566000D01*
X83879896Y-67530415D01*
X83711374Y-67460611D01*
X83559709Y-67359272D01*
X83430728Y-67230291D01*
X83329389Y-67078626D01*
X83259585Y-66910104D01*
X83224000Y-66731203D01*
X83224000Y-66548797D01*
X83259585Y-66369896D01*
X83329389Y-66201374D01*
X83430728Y-66049709D01*
X83559709Y-65920728D01*
X83711374Y-65819389D01*
X83879896Y-65749585D01*
X84058797Y-65714000D01*
X84241203Y-65714000D01*
X84420104Y-65749585D01*
G37*
G36*
X56460104Y-65749585D02*
G01*
X56628626Y-65819389D01*
X56780291Y-65920728D01*
X56909272Y-66049709D01*
X57010611Y-66201374D01*
X57080415Y-66369896D01*
X57116000Y-66548797D01*
X57116000Y-66731203D01*
X57080415Y-66910104D01*
X57010611Y-67078626D01*
X56909272Y-67230291D01*
X56780291Y-67359272D01*
X56628626Y-67460611D01*
X56460104Y-67530415D01*
X56281203Y-67566000D01*
X56098797Y-67566000D01*
X55919896Y-67530415D01*
X55751374Y-67460611D01*
X55599709Y-67359272D01*
X55470728Y-67230291D01*
X55369389Y-67078626D01*
X55299585Y-66910104D01*
X55264000Y-66731203D01*
X55264000Y-66548797D01*
X55299585Y-66369896D01*
X55369389Y-66201374D01*
X55470728Y-66049709D01*
X55599709Y-65920728D01*
X55751374Y-65819389D01*
X55919896Y-65749585D01*
X56098797Y-65714000D01*
X56281203Y-65714000D01*
X56460104Y-65749585D01*
G37*
G36*
X94580104Y-65749585D02*
G01*
X94748626Y-65819389D01*
X94900291Y-65920728D01*
X95029272Y-66049709D01*
X95130611Y-66201374D01*
X95200415Y-66369896D01*
X95236000Y-66548797D01*
X95236000Y-66731203D01*
X95200415Y-66910104D01*
X95130611Y-67078626D01*
X95029272Y-67230291D01*
X94900291Y-67359272D01*
X94748626Y-67460611D01*
X94580104Y-67530415D01*
X94401203Y-67566000D01*
X94218797Y-67566000D01*
X94039896Y-67530415D01*
X93871374Y-67460611D01*
X93719709Y-67359272D01*
X93590728Y-67230291D01*
X93489389Y-67078626D01*
X93419585Y-66910104D01*
X93384000Y-66731203D01*
X93384000Y-66548797D01*
X93419585Y-66369896D01*
X93489389Y-66201374D01*
X93590728Y-66049709D01*
X93719709Y-65920728D01*
X93871374Y-65819389D01*
X94039896Y-65749585D01*
X94218797Y-65714000D01*
X94401203Y-65714000D01*
X94580104Y-65749585D01*
G37*
G36*
X75530104Y-65749585D02*
G01*
X75698626Y-65819389D01*
X75850291Y-65920728D01*
X75979272Y-66049709D01*
X76080611Y-66201374D01*
X76150415Y-66369896D01*
X76186000Y-66548797D01*
X76186000Y-66731203D01*
X76150415Y-66910104D01*
X76080611Y-67078626D01*
X75979272Y-67230291D01*
X75850291Y-67359272D01*
X75698626Y-67460611D01*
X75530104Y-67530415D01*
X75351203Y-67566000D01*
X75168797Y-67566000D01*
X74989896Y-67530415D01*
X74821374Y-67460611D01*
X74669709Y-67359272D01*
X74540728Y-67230291D01*
X74439389Y-67078626D01*
X74369585Y-66910104D01*
X74334000Y-66731203D01*
X74334000Y-66548797D01*
X74369585Y-66369896D01*
X74439389Y-66201374D01*
X74540728Y-66049709D01*
X74669709Y-65920728D01*
X74821374Y-65819389D01*
X74989896Y-65749585D01*
X75168797Y-65714000D01*
X75351203Y-65714000D01*
X75530104Y-65749585D01*
G37*
G36*
X65370104Y-65749585D02*
G01*
X65538626Y-65819389D01*
X65690291Y-65920728D01*
X65819272Y-66049709D01*
X65920611Y-66201374D01*
X65990415Y-66369896D01*
X66026000Y-66548797D01*
X66026000Y-66731203D01*
X65990415Y-66910104D01*
X65920611Y-67078626D01*
X65819272Y-67230291D01*
X65690291Y-67359272D01*
X65538626Y-67460611D01*
X65370104Y-67530415D01*
X65191203Y-67566000D01*
X65008797Y-67566000D01*
X64829896Y-67530415D01*
X64661374Y-67460611D01*
X64509709Y-67359272D01*
X64380728Y-67230291D01*
X64279389Y-67078626D01*
X64209585Y-66910104D01*
X64174000Y-66731203D01*
X64174000Y-66548797D01*
X64209585Y-66369896D01*
X64279389Y-66201374D01*
X64380728Y-66049709D01*
X64509709Y-65920728D01*
X64661374Y-65819389D01*
X64829896Y-65749585D01*
X65008797Y-65714000D01*
X65191203Y-65714000D01*
X65370104Y-65749585D01*
G37*
G36*
X46300104Y-65749585D02*
G01*
X46468626Y-65819389D01*
X46620291Y-65920728D01*
X46749272Y-66049709D01*
X46850611Y-66201374D01*
X46920415Y-66369896D01*
X46956000Y-66548797D01*
X46956000Y-66731203D01*
X46920415Y-66910104D01*
X46850611Y-67078626D01*
X46749272Y-67230291D01*
X46620291Y-67359272D01*
X46468626Y-67460611D01*
X46300104Y-67530415D01*
X46121203Y-67566000D01*
X45938797Y-67566000D01*
X45759896Y-67530415D01*
X45591374Y-67460611D01*
X45439709Y-67359272D01*
X45310728Y-67230291D01*
X45209389Y-67078626D01*
X45139585Y-66910104D01*
X45104000Y-66731203D01*
X45104000Y-66548797D01*
X45139585Y-66369896D01*
X45209389Y-66201374D01*
X45310728Y-66049709D01*
X45439709Y-65920728D01*
X45591374Y-65819389D01*
X45759896Y-65749585D01*
X45938797Y-65714000D01*
X46121203Y-65714000D01*
X46300104Y-65749585D01*
G37*
G36*
X85046474Y-45623684D02*
G01*
X85264474Y-45713983D01*
X85418623Y-45777833D01*
X85753548Y-46001623D01*
X86038377Y-46286452D01*
X86262167Y-46621377D01*
X86294562Y-46699586D01*
X86416316Y-46993526D01*
X86494900Y-47388594D01*
X86494900Y-47791406D01*
X86416316Y-48186474D01*
X86365451Y-48309272D01*
X86262167Y-48558623D01*
X86038377Y-48893548D01*
X85753548Y-49178377D01*
X85418623Y-49402167D01*
X85264474Y-49466017D01*
X85046474Y-49556316D01*
X84651406Y-49634900D01*
X84248594Y-49634900D01*
X83853526Y-49556316D01*
X83635526Y-49466017D01*
X83481377Y-49402167D01*
X83146452Y-49178377D01*
X82861623Y-48893548D01*
X82637833Y-48558623D01*
X82534549Y-48309272D01*
X82483684Y-48186474D01*
X82405100Y-47791406D01*
X82405100Y-47388594D01*
X82483684Y-46993526D01*
X82605438Y-46699586D01*
X82637833Y-46621377D01*
X82861623Y-46286452D01*
X83146452Y-46001623D01*
X83481377Y-45777833D01*
X83635526Y-45713983D01*
X83853526Y-45623684D01*
X84248594Y-45545100D01*
X84651406Y-45545100D01*
X85046474Y-45623684D01*
G37*
G36*
X263696474Y-45623684D02*
G01*
X263914474Y-45713983D01*
X264068623Y-45777833D01*
X264403548Y-46001623D01*
X264688377Y-46286452D01*
X264912167Y-46621377D01*
X264944562Y-46699586D01*
X265066316Y-46993526D01*
X265144900Y-47388594D01*
X265144900Y-47791406D01*
X265066316Y-48186474D01*
X265015451Y-48309272D01*
X264912167Y-48558623D01*
X264688377Y-48893548D01*
X264403548Y-49178377D01*
X264068623Y-49402167D01*
X263914474Y-49466017D01*
X263696474Y-49556316D01*
X263301406Y-49634900D01*
X262898594Y-49634900D01*
X262503526Y-49556316D01*
X262285526Y-49466017D01*
X262131377Y-49402167D01*
X261796452Y-49178377D01*
X261511623Y-48893548D01*
X261287833Y-48558623D01*
X261184549Y-48309272D01*
X261133684Y-48186474D01*
X261055100Y-47791406D01*
X261055100Y-47388594D01*
X261133684Y-46993526D01*
X261255438Y-46699586D01*
X261287833Y-46621377D01*
X261511623Y-46286452D01*
X261796452Y-46001623D01*
X262131377Y-45777833D01*
X262285526Y-45713983D01*
X262503526Y-45623684D01*
X262898594Y-45545100D01*
X263301406Y-45545100D01*
X263696474Y-45623684D01*
G37*
G36*
X218446474Y-45623684D02*
G01*
X218664474Y-45713983D01*
X218818623Y-45777833D01*
X219153548Y-46001623D01*
X219438377Y-46286452D01*
X219662167Y-46621377D01*
X219694562Y-46699586D01*
X219816316Y-46993526D01*
X219894900Y-47388594D01*
X219894900Y-47791406D01*
X219816316Y-48186474D01*
X219765451Y-48309272D01*
X219662167Y-48558623D01*
X219438377Y-48893548D01*
X219153548Y-49178377D01*
X218818623Y-49402167D01*
X218664474Y-49466017D01*
X218446474Y-49556316D01*
X218051406Y-49634900D01*
X217648594Y-49634900D01*
X217253526Y-49556316D01*
X217035526Y-49466017D01*
X216881377Y-49402167D01*
X216546452Y-49178377D01*
X216261623Y-48893548D01*
X216037833Y-48558623D01*
X215934549Y-48309272D01*
X215883684Y-48186474D01*
X215805100Y-47791406D01*
X215805100Y-47388594D01*
X215883684Y-46993526D01*
X216005438Y-46699586D01*
X216037833Y-46621377D01*
X216261623Y-46286452D01*
X216546452Y-46001623D01*
X216881377Y-45777833D01*
X217035526Y-45713983D01*
X217253526Y-45623684D01*
X217648594Y-45545100D01*
X218051406Y-45545100D01*
X218446474Y-45623684D01*
G37*
G36*
X199396474Y-45623684D02*
G01*
X199614474Y-45713983D01*
X199768623Y-45777833D01*
X200103548Y-46001623D01*
X200388377Y-46286452D01*
X200612167Y-46621377D01*
X200644562Y-46699586D01*
X200766316Y-46993526D01*
X200844900Y-47388594D01*
X200844900Y-47791406D01*
X200766316Y-48186474D01*
X200715451Y-48309272D01*
X200612167Y-48558623D01*
X200388377Y-48893548D01*
X200103548Y-49178377D01*
X199768623Y-49402167D01*
X199614474Y-49466017D01*
X199396474Y-49556316D01*
X199001406Y-49634900D01*
X198598594Y-49634900D01*
X198203526Y-49556316D01*
X197985526Y-49466017D01*
X197831377Y-49402167D01*
X197496452Y-49178377D01*
X197211623Y-48893548D01*
X196987833Y-48558623D01*
X196884549Y-48309272D01*
X196833684Y-48186474D01*
X196755100Y-47791406D01*
X196755100Y-47388594D01*
X196833684Y-46993526D01*
X196955438Y-46699586D01*
X196987833Y-46621377D01*
X197211623Y-46286452D01*
X197496452Y-46001623D01*
X197831377Y-45777833D01*
X197985526Y-45713983D01*
X198203526Y-45623684D01*
X198598594Y-45545100D01*
X199001406Y-45545100D01*
X199396474Y-45623684D01*
G37*
G36*
X180346474Y-45623684D02*
G01*
X180564474Y-45713983D01*
X180718623Y-45777833D01*
X181053548Y-46001623D01*
X181338377Y-46286452D01*
X181562167Y-46621377D01*
X181594562Y-46699586D01*
X181716316Y-46993526D01*
X181794900Y-47388594D01*
X181794900Y-47791406D01*
X181716316Y-48186474D01*
X181665451Y-48309272D01*
X181562167Y-48558623D01*
X181338377Y-48893548D01*
X181053548Y-49178377D01*
X180718623Y-49402167D01*
X180564474Y-49466017D01*
X180346474Y-49556316D01*
X179951406Y-49634900D01*
X179548594Y-49634900D01*
X179153526Y-49556316D01*
X178935526Y-49466017D01*
X178781377Y-49402167D01*
X178446452Y-49178377D01*
X178161623Y-48893548D01*
X177937833Y-48558623D01*
X177834549Y-48309272D01*
X177783684Y-48186474D01*
X177705100Y-47791406D01*
X177705100Y-47388594D01*
X177783684Y-46993526D01*
X177905438Y-46699586D01*
X177937833Y-46621377D01*
X178161623Y-46286452D01*
X178446452Y-46001623D01*
X178781377Y-45777833D01*
X178935526Y-45713983D01*
X179153526Y-45623684D01*
X179548594Y-45545100D01*
X179951406Y-45545100D01*
X180346474Y-45623684D01*
G37*
G36*
X161296474Y-45623684D02*
G01*
X161514474Y-45713983D01*
X161668623Y-45777833D01*
X162003548Y-46001623D01*
X162288377Y-46286452D01*
X162512167Y-46621377D01*
X162544562Y-46699586D01*
X162666316Y-46993526D01*
X162744900Y-47388594D01*
X162744900Y-47791406D01*
X162666316Y-48186474D01*
X162615451Y-48309272D01*
X162512167Y-48558623D01*
X162288377Y-48893548D01*
X162003548Y-49178377D01*
X161668623Y-49402167D01*
X161514474Y-49466017D01*
X161296474Y-49556316D01*
X160901406Y-49634900D01*
X160498594Y-49634900D01*
X160103526Y-49556316D01*
X159885526Y-49466017D01*
X159731377Y-49402167D01*
X159396452Y-49178377D01*
X159111623Y-48893548D01*
X158887833Y-48558623D01*
X158784549Y-48309272D01*
X158733684Y-48186474D01*
X158655100Y-47791406D01*
X158655100Y-47388594D01*
X158733684Y-46993526D01*
X158855438Y-46699586D01*
X158887833Y-46621377D01*
X159111623Y-46286452D01*
X159396452Y-46001623D01*
X159731377Y-45777833D01*
X159885526Y-45713983D01*
X160103526Y-45623684D01*
X160498594Y-45545100D01*
X160901406Y-45545100D01*
X161296474Y-45623684D01*
G37*
G36*
X142246474Y-45623684D02*
G01*
X142464474Y-45713983D01*
X142618623Y-45777833D01*
X142953548Y-46001623D01*
X143238377Y-46286452D01*
X143462167Y-46621377D01*
X143494562Y-46699586D01*
X143616316Y-46993526D01*
X143694900Y-47388594D01*
X143694900Y-47791406D01*
X143616316Y-48186474D01*
X143565451Y-48309272D01*
X143462167Y-48558623D01*
X143238377Y-48893548D01*
X142953548Y-49178377D01*
X142618623Y-49402167D01*
X142464474Y-49466017D01*
X142246474Y-49556316D01*
X141851406Y-49634900D01*
X141448594Y-49634900D01*
X141053526Y-49556316D01*
X140835526Y-49466017D01*
X140681377Y-49402167D01*
X140346452Y-49178377D01*
X140061623Y-48893548D01*
X139837833Y-48558623D01*
X139734549Y-48309272D01*
X139683684Y-48186474D01*
X139605100Y-47791406D01*
X139605100Y-47388594D01*
X139683684Y-46993526D01*
X139805438Y-46699586D01*
X139837833Y-46621377D01*
X140061623Y-46286452D01*
X140346452Y-46001623D01*
X140681377Y-45777833D01*
X140835526Y-45713983D01*
X141053526Y-45623684D01*
X141448594Y-45545100D01*
X141851406Y-45545100D01*
X142246474Y-45623684D01*
G37*
G36*
X237496474Y-45623684D02*
G01*
X237714474Y-45713983D01*
X237868623Y-45777833D01*
X238203548Y-46001623D01*
X238488377Y-46286452D01*
X238712167Y-46621377D01*
X238744562Y-46699586D01*
X238866316Y-46993526D01*
X238944900Y-47388594D01*
X238944900Y-47791406D01*
X238866316Y-48186474D01*
X238815451Y-48309272D01*
X238712167Y-48558623D01*
X238488377Y-48893548D01*
X238203548Y-49178377D01*
X237868623Y-49402167D01*
X237714474Y-49466017D01*
X237496474Y-49556316D01*
X237101406Y-49634900D01*
X236698594Y-49634900D01*
X236303526Y-49556316D01*
X236085526Y-49466017D01*
X235931377Y-49402167D01*
X235596452Y-49178377D01*
X235311623Y-48893548D01*
X235087833Y-48558623D01*
X234984549Y-48309272D01*
X234933684Y-48186474D01*
X234855100Y-47791406D01*
X234855100Y-47388594D01*
X234933684Y-46993526D01*
X235055438Y-46699586D01*
X235087833Y-46621377D01*
X235311623Y-46286452D01*
X235596452Y-46001623D01*
X235931377Y-45777833D01*
X236085526Y-45713983D01*
X236303526Y-45623684D01*
X236698594Y-45545100D01*
X237101406Y-45545100D01*
X237496474Y-45623684D01*
G37*
G36*
X123196474Y-45623684D02*
G01*
X123414474Y-45713983D01*
X123568623Y-45777833D01*
X123903548Y-46001623D01*
X124188377Y-46286452D01*
X124412167Y-46621377D01*
X124444562Y-46699586D01*
X124566316Y-46993526D01*
X124644900Y-47388594D01*
X124644900Y-47791406D01*
X124566316Y-48186474D01*
X124515451Y-48309272D01*
X124412167Y-48558623D01*
X124188377Y-48893548D01*
X123903548Y-49178377D01*
X123568623Y-49402167D01*
X123414474Y-49466017D01*
X123196474Y-49556316D01*
X122801406Y-49634900D01*
X122398594Y-49634900D01*
X122003526Y-49556316D01*
X121785526Y-49466017D01*
X121631377Y-49402167D01*
X121296452Y-49178377D01*
X121011623Y-48893548D01*
X120787833Y-48558623D01*
X120684549Y-48309272D01*
X120633684Y-48186474D01*
X120555100Y-47791406D01*
X120555100Y-47388594D01*
X120633684Y-46993526D01*
X120755438Y-46699586D01*
X120787833Y-46621377D01*
X121011623Y-46286452D01*
X121296452Y-46001623D01*
X121631377Y-45777833D01*
X121785526Y-45713983D01*
X122003526Y-45623684D01*
X122398594Y-45545100D01*
X122801406Y-45545100D01*
X123196474Y-45623684D01*
G37*
G36*
X104146474Y-45623684D02*
G01*
X104364474Y-45713983D01*
X104518623Y-45777833D01*
X104853548Y-46001623D01*
X105138377Y-46286452D01*
X105362167Y-46621377D01*
X105394562Y-46699586D01*
X105516316Y-46993526D01*
X105594900Y-47388594D01*
X105594900Y-47791406D01*
X105516316Y-48186474D01*
X105465451Y-48309272D01*
X105362167Y-48558623D01*
X105138377Y-48893548D01*
X104853548Y-49178377D01*
X104518623Y-49402167D01*
X104364474Y-49466017D01*
X104146474Y-49556316D01*
X103751406Y-49634900D01*
X103348594Y-49634900D01*
X102953526Y-49556316D01*
X102735526Y-49466017D01*
X102581377Y-49402167D01*
X102246452Y-49178377D01*
X101961623Y-48893548D01*
X101737833Y-48558623D01*
X101634549Y-48309272D01*
X101583684Y-48186474D01*
X101505100Y-47791406D01*
X101505100Y-47388594D01*
X101583684Y-46993526D01*
X101705438Y-46699586D01*
X101737833Y-46621377D01*
X101961623Y-46286452D01*
X102246452Y-46001623D01*
X102581377Y-45777833D01*
X102735526Y-45713983D01*
X102953526Y-45623684D01*
X103348594Y-45545100D01*
X103751406Y-45545100D01*
X104146474Y-45623684D01*
G37*
G36*
X65996474Y-45623684D02*
G01*
X66214474Y-45713983D01*
X66368623Y-45777833D01*
X66703548Y-46001623D01*
X66988377Y-46286452D01*
X67212167Y-46621377D01*
X67244562Y-46699586D01*
X67366316Y-46993526D01*
X67444900Y-47388594D01*
X67444900Y-47791406D01*
X67366316Y-48186474D01*
X67315451Y-48309272D01*
X67212167Y-48558623D01*
X66988377Y-48893548D01*
X66703548Y-49178377D01*
X66368623Y-49402167D01*
X66214474Y-49466017D01*
X65996474Y-49556316D01*
X65601406Y-49634900D01*
X65198594Y-49634900D01*
X64803526Y-49556316D01*
X64585526Y-49466017D01*
X64431377Y-49402167D01*
X64096452Y-49178377D01*
X63811623Y-48893548D01*
X63587833Y-48558623D01*
X63484549Y-48309272D01*
X63433684Y-48186474D01*
X63355100Y-47791406D01*
X63355100Y-47388594D01*
X63433684Y-46993526D01*
X63555438Y-46699586D01*
X63587833Y-46621377D01*
X63811623Y-46286452D01*
X64096452Y-46001623D01*
X64431377Y-45777833D01*
X64585526Y-45713983D01*
X64803526Y-45623684D01*
X65198594Y-45545100D01*
X65601406Y-45545100D01*
X65996474Y-45623684D01*
G37*
G36*
X46946474Y-45623684D02*
G01*
X47164474Y-45713983D01*
X47318623Y-45777833D01*
X47653548Y-46001623D01*
X47938377Y-46286452D01*
X48162167Y-46621377D01*
X48194562Y-46699586D01*
X48316316Y-46993526D01*
X48394900Y-47388594D01*
X48394900Y-47791406D01*
X48316316Y-48186474D01*
X48265451Y-48309272D01*
X48162167Y-48558623D01*
X47938377Y-48893548D01*
X47653548Y-49178377D01*
X47318623Y-49402167D01*
X47164474Y-49466017D01*
X46946474Y-49556316D01*
X46551406Y-49634900D01*
X46148594Y-49634900D01*
X45753526Y-49556316D01*
X45535526Y-49466017D01*
X45381377Y-49402167D01*
X45046452Y-49178377D01*
X44761623Y-48893548D01*
X44537833Y-48558623D01*
X44434549Y-48309272D01*
X44383684Y-48186474D01*
X44305100Y-47791406D01*
X44305100Y-47388594D01*
X44383684Y-46993526D01*
X44505438Y-46699586D01*
X44537833Y-46621377D01*
X44761623Y-46286452D01*
X45046452Y-46001623D01*
X45381377Y-45777833D01*
X45535526Y-45713983D01*
X45753526Y-45623684D01*
X46148594Y-45545100D01*
X46551406Y-45545100D01*
X46946474Y-45623684D01*
G37*
G36*
X27896474Y-45623684D02*
G01*
X28114474Y-45713983D01*
X28268623Y-45777833D01*
X28603548Y-46001623D01*
X28888377Y-46286452D01*
X29112167Y-46621377D01*
X29144562Y-46699586D01*
X29266316Y-46993526D01*
X29344900Y-47388594D01*
X29344900Y-47791406D01*
X29266316Y-48186474D01*
X29215451Y-48309272D01*
X29112167Y-48558623D01*
X28888377Y-48893548D01*
X28603548Y-49178377D01*
X28268623Y-49402167D01*
X28114474Y-49466017D01*
X27896474Y-49556316D01*
X27501406Y-49634900D01*
X27098594Y-49634900D01*
X26703526Y-49556316D01*
X26485526Y-49466017D01*
X26331377Y-49402167D01*
X25996452Y-49178377D01*
X25711623Y-48893548D01*
X25487833Y-48558623D01*
X25384549Y-48309272D01*
X25333684Y-48186474D01*
X25255100Y-47791406D01*
X25255100Y-47388594D01*
X25333684Y-46993526D01*
X25455438Y-46699586D01*
X25487833Y-46621377D01*
X25711623Y-46286452D01*
X25996452Y-46001623D01*
X26331377Y-45777833D01*
X26485526Y-45713983D01*
X26703526Y-45623684D01*
X27098594Y-45545100D01*
X27501406Y-45545100D01*
X27896474Y-45623684D01*
G37*
G36*
X242250104Y-46699585D02*
G01*
X242418626Y-46769389D01*
X242570291Y-46870728D01*
X242699272Y-46999709D01*
X242800611Y-47151374D01*
X242870415Y-47319896D01*
X242906000Y-47498797D01*
X242906000Y-47681203D01*
X242870415Y-47860104D01*
X242800611Y-48028626D01*
X242699272Y-48180291D01*
X242570291Y-48309272D01*
X242418626Y-48410611D01*
X242250104Y-48480415D01*
X242071203Y-48516000D01*
X241888797Y-48516000D01*
X241709896Y-48480415D01*
X241541374Y-48410611D01*
X241389709Y-48309272D01*
X241260728Y-48180291D01*
X241159389Y-48028626D01*
X241089585Y-47860104D01*
X241054000Y-47681203D01*
X241054000Y-47498797D01*
X241089585Y-47319896D01*
X241159389Y-47151374D01*
X241260728Y-46999709D01*
X241389709Y-46870728D01*
X241541374Y-46769389D01*
X241709896Y-46699585D01*
X241888797Y-46664000D01*
X242071203Y-46664000D01*
X242250104Y-46699585D01*
G37*
G36*
X70750104Y-46699585D02*
G01*
X70918626Y-46769389D01*
X71070291Y-46870728D01*
X71199272Y-46999709D01*
X71300611Y-47151374D01*
X71370415Y-47319896D01*
X71406000Y-47498797D01*
X71406000Y-47681203D01*
X71370415Y-47860104D01*
X71300611Y-48028626D01*
X71199272Y-48180291D01*
X71070291Y-48309272D01*
X70918626Y-48410611D01*
X70750104Y-48480415D01*
X70571203Y-48516000D01*
X70388797Y-48516000D01*
X70209896Y-48480415D01*
X70041374Y-48410611D01*
X69889709Y-48309272D01*
X69760728Y-48180291D01*
X69659389Y-48028626D01*
X69589585Y-47860104D01*
X69554000Y-47681203D01*
X69554000Y-47498797D01*
X69589585Y-47319896D01*
X69659389Y-47151374D01*
X69760728Y-46999709D01*
X69889709Y-46870728D01*
X70041374Y-46769389D01*
X70209896Y-46699585D01*
X70388797Y-46664000D01*
X70571203Y-46664000D01*
X70750104Y-46699585D01*
G37*
G36*
X51700104Y-46699585D02*
G01*
X51868626Y-46769389D01*
X52020291Y-46870728D01*
X52149272Y-46999709D01*
X52250611Y-47151374D01*
X52320415Y-47319896D01*
X52356000Y-47498797D01*
X52356000Y-47681203D01*
X52320415Y-47860104D01*
X52250611Y-48028626D01*
X52149272Y-48180291D01*
X52020291Y-48309272D01*
X51868626Y-48410611D01*
X51700104Y-48480415D01*
X51521203Y-48516000D01*
X51338797Y-48516000D01*
X51159896Y-48480415D01*
X50991374Y-48410611D01*
X50839709Y-48309272D01*
X50710728Y-48180291D01*
X50609389Y-48028626D01*
X50539585Y-47860104D01*
X50504000Y-47681203D01*
X50504000Y-47498797D01*
X50539585Y-47319896D01*
X50609389Y-47151374D01*
X50710728Y-46999709D01*
X50839709Y-46870728D01*
X50991374Y-46769389D01*
X51159896Y-46699585D01*
X51338797Y-46664000D01*
X51521203Y-46664000D01*
X51700104Y-46699585D01*
G37*
G36*
X41540104Y-46699585D02*
G01*
X41708626Y-46769389D01*
X41860291Y-46870728D01*
X41989272Y-46999709D01*
X42090611Y-47151374D01*
X42160415Y-47319896D01*
X42196000Y-47498797D01*
X42196000Y-47681203D01*
X42160415Y-47860104D01*
X42090611Y-48028626D01*
X41989272Y-48180291D01*
X41860291Y-48309272D01*
X41708626Y-48410611D01*
X41540104Y-48480415D01*
X41361203Y-48516000D01*
X41178797Y-48516000D01*
X40999896Y-48480415D01*
X40831374Y-48410611D01*
X40679709Y-48309272D01*
X40550728Y-48180291D01*
X40449389Y-48028626D01*
X40379585Y-47860104D01*
X40344000Y-47681203D01*
X40344000Y-47498797D01*
X40379585Y-47319896D01*
X40449389Y-47151374D01*
X40550728Y-46999709D01*
X40679709Y-46870728D01*
X40831374Y-46769389D01*
X40999896Y-46699585D01*
X41178797Y-46664000D01*
X41361203Y-46664000D01*
X41540104Y-46699585D01*
G37*
G36*
X32650104Y-46699585D02*
G01*
X32818626Y-46769389D01*
X32970291Y-46870728D01*
X33099272Y-46999709D01*
X33200611Y-47151374D01*
X33270415Y-47319896D01*
X33306000Y-47498797D01*
X33306000Y-47681203D01*
X33270415Y-47860104D01*
X33200611Y-48028626D01*
X33099272Y-48180291D01*
X32970291Y-48309272D01*
X32818626Y-48410611D01*
X32650104Y-48480415D01*
X32471203Y-48516000D01*
X32288797Y-48516000D01*
X32109896Y-48480415D01*
X31941374Y-48410611D01*
X31789709Y-48309272D01*
X31660728Y-48180291D01*
X31559389Y-48028626D01*
X31489585Y-47860104D01*
X31454000Y-47681203D01*
X31454000Y-47498797D01*
X31489585Y-47319896D01*
X31559389Y-47151374D01*
X31660728Y-46999709D01*
X31789709Y-46870728D01*
X31941374Y-46769389D01*
X32109896Y-46699585D01*
X32288797Y-46664000D01*
X32471203Y-46664000D01*
X32650104Y-46699585D01*
G37*
G36*
X22490104Y-46699585D02*
G01*
X22658626Y-46769389D01*
X22810291Y-46870728D01*
X22939272Y-46999709D01*
X23040611Y-47151374D01*
X23110415Y-47319896D01*
X23146000Y-47498797D01*
X23146000Y-47681203D01*
X23110415Y-47860104D01*
X23040611Y-48028626D01*
X22939272Y-48180291D01*
X22810291Y-48309272D01*
X22658626Y-48410611D01*
X22490104Y-48480415D01*
X22311203Y-48516000D01*
X22128797Y-48516000D01*
X21949896Y-48480415D01*
X21781374Y-48410611D01*
X21629709Y-48309272D01*
X21500728Y-48180291D01*
X21399389Y-48028626D01*
X21329585Y-47860104D01*
X21294000Y-47681203D01*
X21294000Y-47498797D01*
X21329585Y-47319896D01*
X21399389Y-47151374D01*
X21500728Y-46999709D01*
X21629709Y-46870728D01*
X21781374Y-46769389D01*
X21949896Y-46699585D01*
X22128797Y-46664000D01*
X22311203Y-46664000D01*
X22490104Y-46699585D01*
G37*
G36*
X79640104Y-46699585D02*
G01*
X79808626Y-46769389D01*
X79960291Y-46870728D01*
X80089272Y-46999709D01*
X80190611Y-47151374D01*
X80260415Y-47319896D01*
X80296000Y-47498797D01*
X80296000Y-47681203D01*
X80260415Y-47860104D01*
X80190611Y-48028626D01*
X80089272Y-48180291D01*
X79960291Y-48309272D01*
X79808626Y-48410611D01*
X79640104Y-48480415D01*
X79461203Y-48516000D01*
X79278797Y-48516000D01*
X79099896Y-48480415D01*
X78931374Y-48410611D01*
X78779709Y-48309272D01*
X78650728Y-48180291D01*
X78549389Y-48028626D01*
X78479585Y-47860104D01*
X78444000Y-47681203D01*
X78444000Y-47498797D01*
X78479585Y-47319896D01*
X78549389Y-47151374D01*
X78650728Y-46999709D01*
X78779709Y-46870728D01*
X78931374Y-46769389D01*
X79099896Y-46699585D01*
X79278797Y-46664000D01*
X79461203Y-46664000D01*
X79640104Y-46699585D01*
G37*
G36*
X89800104Y-46699585D02*
G01*
X89968626Y-46769389D01*
X90120291Y-46870728D01*
X90249272Y-46999709D01*
X90350611Y-47151374D01*
X90420415Y-47319896D01*
X90456000Y-47498797D01*
X90456000Y-47681203D01*
X90420415Y-47860104D01*
X90350611Y-48028626D01*
X90249272Y-48180291D01*
X90120291Y-48309272D01*
X89968626Y-48410611D01*
X89800104Y-48480415D01*
X89621203Y-48516000D01*
X89438797Y-48516000D01*
X89259896Y-48480415D01*
X89091374Y-48410611D01*
X88939709Y-48309272D01*
X88810728Y-48180291D01*
X88709389Y-48028626D01*
X88639585Y-47860104D01*
X88604000Y-47681203D01*
X88604000Y-47498797D01*
X88639585Y-47319896D01*
X88709389Y-47151374D01*
X88810728Y-46999709D01*
X88939709Y-46870728D01*
X89091374Y-46769389D01*
X89259896Y-46699585D01*
X89438797Y-46664000D01*
X89621203Y-46664000D01*
X89800104Y-46699585D01*
G37*
G36*
X258290104Y-46699585D02*
G01*
X258458626Y-46769389D01*
X258610291Y-46870728D01*
X258739272Y-46999709D01*
X258840611Y-47151374D01*
X258910415Y-47319896D01*
X258946000Y-47498797D01*
X258946000Y-47681203D01*
X258910415Y-47860104D01*
X258840611Y-48028626D01*
X258739272Y-48180291D01*
X258610291Y-48309272D01*
X258458626Y-48410611D01*
X258290104Y-48480415D01*
X258111203Y-48516000D01*
X257928797Y-48516000D01*
X257749896Y-48480415D01*
X257581374Y-48410611D01*
X257429709Y-48309272D01*
X257300728Y-48180291D01*
X257199389Y-48028626D01*
X257129585Y-47860104D01*
X257094000Y-47681203D01*
X257094000Y-47498797D01*
X257129585Y-47319896D01*
X257199389Y-47151374D01*
X257300728Y-46999709D01*
X257429709Y-46870728D01*
X257581374Y-46769389D01*
X257749896Y-46699585D01*
X257928797Y-46664000D01*
X258111203Y-46664000D01*
X258290104Y-46699585D01*
G37*
G36*
X268450104Y-46699585D02*
G01*
X268618626Y-46769389D01*
X268770291Y-46870728D01*
X268899272Y-46999709D01*
X269000611Y-47151374D01*
X269070415Y-47319896D01*
X269106000Y-47498797D01*
X269106000Y-47681203D01*
X269070415Y-47860104D01*
X269000611Y-48028626D01*
X268899272Y-48180291D01*
X268770291Y-48309272D01*
X268618626Y-48410611D01*
X268450104Y-48480415D01*
X268271203Y-48516000D01*
X268088797Y-48516000D01*
X267909896Y-48480415D01*
X267741374Y-48410611D01*
X267589709Y-48309272D01*
X267460728Y-48180291D01*
X267359389Y-48028626D01*
X267289585Y-47860104D01*
X267254000Y-47681203D01*
X267254000Y-47498797D01*
X267289585Y-47319896D01*
X267359389Y-47151374D01*
X267460728Y-46999709D01*
X267589709Y-46870728D01*
X267741374Y-46769389D01*
X267909896Y-46699585D01*
X268088797Y-46664000D01*
X268271203Y-46664000D01*
X268450104Y-46699585D01*
G37*
G36*
X98740104Y-46699585D02*
G01*
X98908626Y-46769389D01*
X99060291Y-46870728D01*
X99189272Y-46999709D01*
X99290611Y-47151374D01*
X99360415Y-47319896D01*
X99396000Y-47498797D01*
X99396000Y-47681203D01*
X99360415Y-47860104D01*
X99290611Y-48028626D01*
X99189272Y-48180291D01*
X99060291Y-48309272D01*
X98908626Y-48410611D01*
X98740104Y-48480415D01*
X98561203Y-48516000D01*
X98378797Y-48516000D01*
X98199896Y-48480415D01*
X98031374Y-48410611D01*
X97879709Y-48309272D01*
X97750728Y-48180291D01*
X97649389Y-48028626D01*
X97579585Y-47860104D01*
X97544000Y-47681203D01*
X97544000Y-47498797D01*
X97579585Y-47319896D01*
X97649389Y-47151374D01*
X97750728Y-46999709D01*
X97879709Y-46870728D01*
X98031374Y-46769389D01*
X98199896Y-46699585D01*
X98378797Y-46664000D01*
X98561203Y-46664000D01*
X98740104Y-46699585D01*
G37*
G36*
X108900104Y-46699585D02*
G01*
X109068626Y-46769389D01*
X109220291Y-46870728D01*
X109349272Y-46999709D01*
X109450611Y-47151374D01*
X109520415Y-47319896D01*
X109556000Y-47498797D01*
X109556000Y-47681203D01*
X109520415Y-47860104D01*
X109450611Y-48028626D01*
X109349272Y-48180291D01*
X109220291Y-48309272D01*
X109068626Y-48410611D01*
X108900104Y-48480415D01*
X108721203Y-48516000D01*
X108538797Y-48516000D01*
X108359896Y-48480415D01*
X108191374Y-48410611D01*
X108039709Y-48309272D01*
X107910728Y-48180291D01*
X107809389Y-48028626D01*
X107739585Y-47860104D01*
X107704000Y-47681203D01*
X107704000Y-47498797D01*
X107739585Y-47319896D01*
X107809389Y-47151374D01*
X107910728Y-46999709D01*
X108039709Y-46870728D01*
X108191374Y-46769389D01*
X108359896Y-46699585D01*
X108538797Y-46664000D01*
X108721203Y-46664000D01*
X108900104Y-46699585D01*
G37*
G36*
X117790104Y-46699585D02*
G01*
X117958626Y-46769389D01*
X118110291Y-46870728D01*
X118239272Y-46999709D01*
X118340611Y-47151374D01*
X118410415Y-47319896D01*
X118446000Y-47498797D01*
X118446000Y-47681203D01*
X118410415Y-47860104D01*
X118340611Y-48028626D01*
X118239272Y-48180291D01*
X118110291Y-48309272D01*
X117958626Y-48410611D01*
X117790104Y-48480415D01*
X117611203Y-48516000D01*
X117428797Y-48516000D01*
X117249896Y-48480415D01*
X117081374Y-48410611D01*
X116929709Y-48309272D01*
X116800728Y-48180291D01*
X116699389Y-48028626D01*
X116629585Y-47860104D01*
X116594000Y-47681203D01*
X116594000Y-47498797D01*
X116629585Y-47319896D01*
X116699389Y-47151374D01*
X116800728Y-46999709D01*
X116929709Y-46870728D01*
X117081374Y-46769389D01*
X117249896Y-46699585D01*
X117428797Y-46664000D01*
X117611203Y-46664000D01*
X117790104Y-46699585D01*
G37*
G36*
X136840104Y-46699585D02*
G01*
X137008626Y-46769389D01*
X137160291Y-46870728D01*
X137289272Y-46999709D01*
X137390611Y-47151374D01*
X137460415Y-47319896D01*
X137496000Y-47498797D01*
X137496000Y-47681203D01*
X137460415Y-47860104D01*
X137390611Y-48028626D01*
X137289272Y-48180291D01*
X137160291Y-48309272D01*
X137008626Y-48410611D01*
X136840104Y-48480415D01*
X136661203Y-48516000D01*
X136478797Y-48516000D01*
X136299896Y-48480415D01*
X136131374Y-48410611D01*
X135979709Y-48309272D01*
X135850728Y-48180291D01*
X135749389Y-48028626D01*
X135679585Y-47860104D01*
X135644000Y-47681203D01*
X135644000Y-47498797D01*
X135679585Y-47319896D01*
X135749389Y-47151374D01*
X135850728Y-46999709D01*
X135979709Y-46870728D01*
X136131374Y-46769389D01*
X136299896Y-46699585D01*
X136478797Y-46664000D01*
X136661203Y-46664000D01*
X136840104Y-46699585D01*
G37*
G36*
X174940104Y-46699585D02*
G01*
X175108626Y-46769389D01*
X175260291Y-46870728D01*
X175389272Y-46999709D01*
X175490611Y-47151374D01*
X175560415Y-47319896D01*
X175596000Y-47498797D01*
X175596000Y-47681203D01*
X175560415Y-47860104D01*
X175490611Y-48028626D01*
X175389272Y-48180291D01*
X175260291Y-48309272D01*
X175108626Y-48410611D01*
X174940104Y-48480415D01*
X174761203Y-48516000D01*
X174578797Y-48516000D01*
X174399896Y-48480415D01*
X174231374Y-48410611D01*
X174079709Y-48309272D01*
X173950728Y-48180291D01*
X173849389Y-48028626D01*
X173779585Y-47860104D01*
X173744000Y-47681203D01*
X173744000Y-47498797D01*
X173779585Y-47319896D01*
X173849389Y-47151374D01*
X173950728Y-46999709D01*
X174079709Y-46870728D01*
X174231374Y-46769389D01*
X174399896Y-46699585D01*
X174578797Y-46664000D01*
X174761203Y-46664000D01*
X174940104Y-46699585D01*
G37*
G36*
X147000104Y-46699585D02*
G01*
X147168626Y-46769389D01*
X147320291Y-46870728D01*
X147449272Y-46999709D01*
X147550611Y-47151374D01*
X147620415Y-47319896D01*
X147656000Y-47498797D01*
X147656000Y-47681203D01*
X147620415Y-47860104D01*
X147550611Y-48028626D01*
X147449272Y-48180291D01*
X147320291Y-48309272D01*
X147168626Y-48410611D01*
X147000104Y-48480415D01*
X146821203Y-48516000D01*
X146638797Y-48516000D01*
X146459896Y-48480415D01*
X146291374Y-48410611D01*
X146139709Y-48309272D01*
X146010728Y-48180291D01*
X145909389Y-48028626D01*
X145839585Y-47860104D01*
X145804000Y-47681203D01*
X145804000Y-47498797D01*
X145839585Y-47319896D01*
X145909389Y-47151374D01*
X146010728Y-46999709D01*
X146139709Y-46870728D01*
X146291374Y-46769389D01*
X146459896Y-46699585D01*
X146638797Y-46664000D01*
X146821203Y-46664000D01*
X147000104Y-46699585D01*
G37*
G36*
X155890104Y-46699585D02*
G01*
X156058626Y-46769389D01*
X156210291Y-46870728D01*
X156339272Y-46999709D01*
X156440611Y-47151374D01*
X156510415Y-47319896D01*
X156546000Y-47498797D01*
X156546000Y-47681203D01*
X156510415Y-47860104D01*
X156440611Y-48028626D01*
X156339272Y-48180291D01*
X156210291Y-48309272D01*
X156058626Y-48410611D01*
X155890104Y-48480415D01*
X155711203Y-48516000D01*
X155528797Y-48516000D01*
X155349896Y-48480415D01*
X155181374Y-48410611D01*
X155029709Y-48309272D01*
X154900728Y-48180291D01*
X154799389Y-48028626D01*
X154729585Y-47860104D01*
X154694000Y-47681203D01*
X154694000Y-47498797D01*
X154729585Y-47319896D01*
X154799389Y-47151374D01*
X154900728Y-46999709D01*
X155029709Y-46870728D01*
X155181374Y-46769389D01*
X155349896Y-46699585D01*
X155528797Y-46664000D01*
X155711203Y-46664000D01*
X155890104Y-46699585D01*
G37*
G36*
X166050104Y-46699585D02*
G01*
X166218626Y-46769389D01*
X166370291Y-46870728D01*
X166499272Y-46999709D01*
X166600611Y-47151374D01*
X166670415Y-47319896D01*
X166706000Y-47498797D01*
X166706000Y-47681203D01*
X166670415Y-47860104D01*
X166600611Y-48028626D01*
X166499272Y-48180291D01*
X166370291Y-48309272D01*
X166218626Y-48410611D01*
X166050104Y-48480415D01*
X165871203Y-48516000D01*
X165688797Y-48516000D01*
X165509896Y-48480415D01*
X165341374Y-48410611D01*
X165189709Y-48309272D01*
X165060728Y-48180291D01*
X164959389Y-48028626D01*
X164889585Y-47860104D01*
X164854000Y-47681203D01*
X164854000Y-47498797D01*
X164889585Y-47319896D01*
X164959389Y-47151374D01*
X165060728Y-46999709D01*
X165189709Y-46870728D01*
X165341374Y-46769389D01*
X165509896Y-46699585D01*
X165688797Y-46664000D01*
X165871203Y-46664000D01*
X166050104Y-46699585D01*
G37*
G36*
X232090104Y-46699585D02*
G01*
X232258626Y-46769389D01*
X232410291Y-46870728D01*
X232539272Y-46999709D01*
X232640611Y-47151374D01*
X232710415Y-47319896D01*
X232746000Y-47498797D01*
X232746000Y-47681203D01*
X232710415Y-47860104D01*
X232640611Y-48028626D01*
X232539272Y-48180291D01*
X232410291Y-48309272D01*
X232258626Y-48410611D01*
X232090104Y-48480415D01*
X231911203Y-48516000D01*
X231728797Y-48516000D01*
X231549896Y-48480415D01*
X231381374Y-48410611D01*
X231229709Y-48309272D01*
X231100728Y-48180291D01*
X230999389Y-48028626D01*
X230929585Y-47860104D01*
X230894000Y-47681203D01*
X230894000Y-47498797D01*
X230929585Y-47319896D01*
X230999389Y-47151374D01*
X231100728Y-46999709D01*
X231229709Y-46870728D01*
X231381374Y-46769389D01*
X231549896Y-46699585D01*
X231728797Y-46664000D01*
X231911203Y-46664000D01*
X232090104Y-46699585D01*
G37*
G36*
X185100104Y-46699585D02*
G01*
X185268626Y-46769389D01*
X185420291Y-46870728D01*
X185549272Y-46999709D01*
X185650611Y-47151374D01*
X185720415Y-47319896D01*
X185756000Y-47498797D01*
X185756000Y-47681203D01*
X185720415Y-47860104D01*
X185650611Y-48028626D01*
X185549272Y-48180291D01*
X185420291Y-48309272D01*
X185268626Y-48410611D01*
X185100104Y-48480415D01*
X184921203Y-48516000D01*
X184738797Y-48516000D01*
X184559896Y-48480415D01*
X184391374Y-48410611D01*
X184239709Y-48309272D01*
X184110728Y-48180291D01*
X184009389Y-48028626D01*
X183939585Y-47860104D01*
X183904000Y-47681203D01*
X183904000Y-47498797D01*
X183939585Y-47319896D01*
X184009389Y-47151374D01*
X184110728Y-46999709D01*
X184239709Y-46870728D01*
X184391374Y-46769389D01*
X184559896Y-46699585D01*
X184738797Y-46664000D01*
X184921203Y-46664000D01*
X185100104Y-46699585D01*
G37*
G36*
X193990104Y-46699585D02*
G01*
X194158626Y-46769389D01*
X194310291Y-46870728D01*
X194439272Y-46999709D01*
X194540611Y-47151374D01*
X194610415Y-47319896D01*
X194646000Y-47498797D01*
X194646000Y-47681203D01*
X194610415Y-47860104D01*
X194540611Y-48028626D01*
X194439272Y-48180291D01*
X194310291Y-48309272D01*
X194158626Y-48410611D01*
X193990104Y-48480415D01*
X193811203Y-48516000D01*
X193628797Y-48516000D01*
X193449896Y-48480415D01*
X193281374Y-48410611D01*
X193129709Y-48309272D01*
X193000728Y-48180291D01*
X192899389Y-48028626D01*
X192829585Y-47860104D01*
X192794000Y-47681203D01*
X192794000Y-47498797D01*
X192829585Y-47319896D01*
X192899389Y-47151374D01*
X193000728Y-46999709D01*
X193129709Y-46870728D01*
X193281374Y-46769389D01*
X193449896Y-46699585D01*
X193628797Y-46664000D01*
X193811203Y-46664000D01*
X193990104Y-46699585D01*
G37*
G36*
X204150104Y-46699585D02*
G01*
X204318626Y-46769389D01*
X204470291Y-46870728D01*
X204599272Y-46999709D01*
X204700611Y-47151374D01*
X204770415Y-47319896D01*
X204806000Y-47498797D01*
X204806000Y-47681203D01*
X204770415Y-47860104D01*
X204700611Y-48028626D01*
X204599272Y-48180291D01*
X204470291Y-48309272D01*
X204318626Y-48410611D01*
X204150104Y-48480415D01*
X203971203Y-48516000D01*
X203788797Y-48516000D01*
X203609896Y-48480415D01*
X203441374Y-48410611D01*
X203289709Y-48309272D01*
X203160728Y-48180291D01*
X203059389Y-48028626D01*
X202989585Y-47860104D01*
X202954000Y-47681203D01*
X202954000Y-47498797D01*
X202989585Y-47319896D01*
X203059389Y-47151374D01*
X203160728Y-46999709D01*
X203289709Y-46870728D01*
X203441374Y-46769389D01*
X203609896Y-46699585D01*
X203788797Y-46664000D01*
X203971203Y-46664000D01*
X204150104Y-46699585D01*
G37*
G36*
X213040104Y-46699585D02*
G01*
X213208626Y-46769389D01*
X213360291Y-46870728D01*
X213489272Y-46999709D01*
X213590611Y-47151374D01*
X213660415Y-47319896D01*
X213696000Y-47498797D01*
X213696000Y-47681203D01*
X213660415Y-47860104D01*
X213590611Y-48028626D01*
X213489272Y-48180291D01*
X213360291Y-48309272D01*
X213208626Y-48410611D01*
X213040104Y-48480415D01*
X212861203Y-48516000D01*
X212678797Y-48516000D01*
X212499896Y-48480415D01*
X212331374Y-48410611D01*
X212179709Y-48309272D01*
X212050728Y-48180291D01*
X211949389Y-48028626D01*
X211879585Y-47860104D01*
X211844000Y-47681203D01*
X211844000Y-47498797D01*
X211879585Y-47319896D01*
X211949389Y-47151374D01*
X212050728Y-46999709D01*
X212179709Y-46870728D01*
X212331374Y-46769389D01*
X212499896Y-46699585D01*
X212678797Y-46664000D01*
X212861203Y-46664000D01*
X213040104Y-46699585D01*
G37*
G36*
X223200104Y-46699585D02*
G01*
X223368626Y-46769389D01*
X223520291Y-46870728D01*
X223649272Y-46999709D01*
X223750611Y-47151374D01*
X223820415Y-47319896D01*
X223856000Y-47498797D01*
X223856000Y-47681203D01*
X223820415Y-47860104D01*
X223750611Y-48028626D01*
X223649272Y-48180291D01*
X223520291Y-48309272D01*
X223368626Y-48410611D01*
X223200104Y-48480415D01*
X223021203Y-48516000D01*
X222838797Y-48516000D01*
X222659896Y-48480415D01*
X222491374Y-48410611D01*
X222339709Y-48309272D01*
X222210728Y-48180291D01*
X222109389Y-48028626D01*
X222039585Y-47860104D01*
X222004000Y-47681203D01*
X222004000Y-47498797D01*
X222039585Y-47319896D01*
X222109389Y-47151374D01*
X222210728Y-46999709D01*
X222339709Y-46870728D01*
X222491374Y-46769389D01*
X222659896Y-46699585D01*
X222838797Y-46664000D01*
X223021203Y-46664000D01*
X223200104Y-46699585D01*
G37*
G36*
X60590104Y-46699585D02*
G01*
X60758626Y-46769389D01*
X60910291Y-46870728D01*
X61039272Y-46999709D01*
X61140611Y-47151374D01*
X61210415Y-47319896D01*
X61246000Y-47498797D01*
X61246000Y-47681203D01*
X61210415Y-47860104D01*
X61140611Y-48028626D01*
X61039272Y-48180291D01*
X60910291Y-48309272D01*
X60758626Y-48410611D01*
X60590104Y-48480415D01*
X60411203Y-48516000D01*
X60228797Y-48516000D01*
X60049896Y-48480415D01*
X59881374Y-48410611D01*
X59729709Y-48309272D01*
X59600728Y-48180291D01*
X59499389Y-48028626D01*
X59429585Y-47860104D01*
X59394000Y-47681203D01*
X59394000Y-47498797D01*
X59429585Y-47319896D01*
X59499389Y-47151374D01*
X59600728Y-46999709D01*
X59729709Y-46870728D01*
X59881374Y-46769389D01*
X60049896Y-46699585D01*
X60228797Y-46664000D01*
X60411203Y-46664000D01*
X60590104Y-46699585D01*
G37*
G36*
X127950104Y-46699585D02*
G01*
X128118626Y-46769389D01*
X128270291Y-46870728D01*
X128399272Y-46999709D01*
X128500611Y-47151374D01*
X128570415Y-47319896D01*
X128606000Y-47498797D01*
X128606000Y-47681203D01*
X128570415Y-47860104D01*
X128500611Y-48028626D01*
X128399272Y-48180291D01*
X128270291Y-48309272D01*
X128118626Y-48410611D01*
X127950104Y-48480415D01*
X127771203Y-48516000D01*
X127588797Y-48516000D01*
X127409896Y-48480415D01*
X127241374Y-48410611D01*
X127089709Y-48309272D01*
X126960728Y-48180291D01*
X126859389Y-48028626D01*
X126789585Y-47860104D01*
X126754000Y-47681203D01*
X126754000Y-47498797D01*
X126789585Y-47319896D01*
X126859389Y-47151374D01*
X126960728Y-46999709D01*
X127089709Y-46870728D01*
X127241374Y-46769389D01*
X127409896Y-46699585D01*
X127588797Y-46664000D01*
X127771203Y-46664000D01*
X127950104Y-46699585D01*
G37*
G36*
X254338213Y-40256249D02*
G01*
X254432652Y-40284897D01*
X254519687Y-40331418D01*
X254595975Y-40394025D01*
X254658582Y-40470313D01*
X254705103Y-40557348D01*
X254733751Y-40651787D01*
X254741000Y-40725388D01*
X254741000Y-41874612D01*
X254733751Y-41948213D01*
X254705103Y-42042652D01*
X254658582Y-42129687D01*
X254595975Y-42205975D01*
X254519687Y-42268582D01*
X254432651Y-42315103D01*
X254338212Y-42343751D01*
X254240000Y-42353424D01*
X254141787Y-42343751D01*
X254047348Y-42315103D01*
X253960313Y-42268582D01*
X253884025Y-42205975D01*
X253821418Y-42129687D01*
X253774897Y-42042651D01*
X253746249Y-41948212D01*
X253739000Y-41874611D01*
X253739001Y-40725388D01*
X253746250Y-40651787D01*
X253774898Y-40557348D01*
X253821419Y-40470313D01*
X253884026Y-40394025D01*
X253960314Y-40331418D01*
X254047349Y-40284897D01*
X254141788Y-40256249D01*
X254240000Y-40246576D01*
X254338213Y-40256249D01*
G37*
G36*
X245698213Y-40256249D02*
G01*
X245792652Y-40284897D01*
X245879687Y-40331418D01*
X245955975Y-40394025D01*
X246018582Y-40470313D01*
X246065103Y-40557348D01*
X246093751Y-40651787D01*
X246101000Y-40725388D01*
X246101000Y-41874612D01*
X246093751Y-41948213D01*
X246065103Y-42042652D01*
X246018582Y-42129687D01*
X245955975Y-42205975D01*
X245879687Y-42268582D01*
X245792651Y-42315103D01*
X245698212Y-42343751D01*
X245600000Y-42353424D01*
X245501787Y-42343751D01*
X245407348Y-42315103D01*
X245320313Y-42268582D01*
X245244025Y-42205975D01*
X245181418Y-42129687D01*
X245134897Y-42042651D01*
X245106249Y-41948212D01*
X245099000Y-41874611D01*
X245099001Y-40725388D01*
X245106250Y-40651787D01*
X245134898Y-40557348D01*
X245181419Y-40470313D01*
X245244026Y-40394025D01*
X245320314Y-40331418D01*
X245407349Y-40284897D01*
X245501788Y-40256249D01*
X245600000Y-40246576D01*
X245698213Y-40256249D01*
G37*
G36*
X252912383Y-40482489D02*
G01*
X252912386Y-40482490D01*
X252912385Y-40482490D01*
X252976258Y-40508946D01*
X253033748Y-40547360D01*
X253082640Y-40596252D01*
X253121054Y-40653742D01*
X253142624Y-40705818D01*
X253147511Y-40717617D01*
X253161000Y-40785430D01*
X253161000Y-40854570D01*
X253147511Y-40922383D01*
X253147510Y-40922385D01*
X253121054Y-40986258D01*
X253082640Y-41043748D01*
X253033748Y-41092640D01*
X252976258Y-41131054D01*
X252924182Y-41152624D01*
X252912383Y-41157511D01*
X252844570Y-41171000D01*
X252775430Y-41171000D01*
X252707617Y-41157511D01*
X252695818Y-41152624D01*
X252643742Y-41131054D01*
X252586252Y-41092640D01*
X252537360Y-41043748D01*
X252498946Y-40986258D01*
X252472490Y-40922385D01*
X252472489Y-40922383D01*
X252459000Y-40854570D01*
X252459000Y-40785430D01*
X252472489Y-40717617D01*
X252477376Y-40705818D01*
X252498946Y-40653742D01*
X252537360Y-40596252D01*
X252586252Y-40547360D01*
X252643742Y-40508946D01*
X252707615Y-40482490D01*
X252707614Y-40482490D01*
X252707617Y-40482489D01*
X252775430Y-40469000D01*
X252844570Y-40469000D01*
X252912383Y-40482489D01*
G37*
G36*
X247132383Y-40482489D02*
G01*
X247132386Y-40482490D01*
X247132385Y-40482490D01*
X247196258Y-40508946D01*
X247253748Y-40547360D01*
X247302640Y-40596252D01*
X247341054Y-40653742D01*
X247362624Y-40705818D01*
X247367511Y-40717617D01*
X247381000Y-40785430D01*
X247381000Y-40854570D01*
X247367511Y-40922383D01*
X247367510Y-40922385D01*
X247341054Y-40986258D01*
X247302640Y-41043748D01*
X247253748Y-41092640D01*
X247196258Y-41131054D01*
X247144182Y-41152624D01*
X247132383Y-41157511D01*
X247064570Y-41171000D01*
X246995430Y-41171000D01*
X246927617Y-41157511D01*
X246915818Y-41152624D01*
X246863742Y-41131054D01*
X246806252Y-41092640D01*
X246757360Y-41043748D01*
X246718946Y-40986258D01*
X246692490Y-40922385D01*
X246692489Y-40922383D01*
X246679000Y-40854570D01*
X246679000Y-40785430D01*
X246692489Y-40717617D01*
X246697376Y-40705818D01*
X246718946Y-40653742D01*
X246757360Y-40596252D01*
X246806252Y-40547360D01*
X246863742Y-40508946D01*
X246927615Y-40482490D01*
X246927614Y-40482490D01*
X246927617Y-40482489D01*
X246995430Y-40469000D01*
X247064570Y-40469000D01*
X247132383Y-40482489D01*
G37*
G36*
X254338213Y-36236249D02*
G01*
X254432652Y-36264897D01*
X254519687Y-36311418D01*
X254595975Y-36374025D01*
X254658582Y-36450313D01*
X254705103Y-36537348D01*
X254733751Y-36631787D01*
X254741000Y-36705388D01*
X254741000Y-37554612D01*
X254733751Y-37628213D01*
X254705103Y-37722652D01*
X254658582Y-37809687D01*
X254595975Y-37885975D01*
X254519687Y-37948582D01*
X254432651Y-37995103D01*
X254338212Y-38023751D01*
X254240000Y-38033424D01*
X254141787Y-38023751D01*
X254047348Y-37995103D01*
X253960313Y-37948582D01*
X253884025Y-37885975D01*
X253821418Y-37809687D01*
X253774897Y-37722651D01*
X253746249Y-37628212D01*
X253739000Y-37554611D01*
X253739000Y-36705398D01*
X253746250Y-36631786D01*
X253756846Y-36596856D01*
X253774898Y-36537348D01*
X253821419Y-36450313D01*
X253884026Y-36374025D01*
X253960314Y-36311418D01*
X254047349Y-36264897D01*
X254141788Y-36236249D01*
X254240000Y-36226576D01*
X254338213Y-36236249D01*
G37*
G36*
X245698213Y-36236249D02*
G01*
X245792652Y-36264897D01*
X245879687Y-36311418D01*
X245955975Y-36374025D01*
X246018582Y-36450313D01*
X246065103Y-36537348D01*
X246093751Y-36631787D01*
X246101000Y-36705388D01*
X246101000Y-37554612D01*
X246093751Y-37628213D01*
X246065103Y-37722652D01*
X246018582Y-37809687D01*
X245955975Y-37885975D01*
X245879687Y-37948582D01*
X245792651Y-37995103D01*
X245698212Y-38023751D01*
X245600000Y-38033424D01*
X245501787Y-38023751D01*
X245407348Y-37995103D01*
X245320313Y-37948582D01*
X245244025Y-37885975D01*
X245181418Y-37809687D01*
X245134897Y-37722651D01*
X245106249Y-37628212D01*
X245099000Y-37554611D01*
X245099000Y-36705398D01*
X245106250Y-36631786D01*
X245116846Y-36596856D01*
X245134898Y-36537348D01*
X245181419Y-36450313D01*
X245244026Y-36374025D01*
X245320314Y-36311418D01*
X245407349Y-36264897D01*
X245501788Y-36236249D01*
X245600000Y-36226576D01*
X245698213Y-36236249D01*
G37*
M02*
