G04 #@! TF.GenerationSoftware,KiCad,Pcbnew,(5.1.5)-3*
G04 #@! TF.CreationDate,2020-05-19T14:28:27+02:00*
G04 #@! TF.ProjectId,40 with arrows,34302520-7769-4746-9820-6172726f7773,rev?*
G04 #@! TF.SameCoordinates,Original*
G04 #@! TF.FileFunction,Copper,L2,Bot*
G04 #@! TF.FilePolarity,Positive*
%FSLAX46Y46*%
G04 Gerber Fmt 4.6, Leading zero omitted, Abs format (unit mm)*
G04 Created by KiCad (PCBNEW (5.1.5)-3) date 2020-05-19 14:28:27*
%MOMM*%
%LPD*%
G04 APERTURE LIST*
%ADD10C,0.100000*%
%ADD11R,0.600000X1.160000*%
%ADD12R,0.300000X1.160000*%
%ADD13O,0.900000X1.700000*%
%ADD14O,0.900000X2.000000*%
%ADD15C,2.250000*%
%ADD16R,1.100000X1.800000*%
%ADD17R,1.400000X1.200000*%
%ADD18R,0.550000X1.500000*%
%ADD19R,1.500000X0.550000*%
%ADD20R,1.200000X1.400000*%
%ADD21C,0.800000*%
%ADD22C,0.250000*%
G04 APERTURE END LIST*
G04 #@! TA.AperFunction,SMDPad,CuDef*
D10*
G36*
X245097691Y-44056053D02*
G01*
X245118926Y-44059203D01*
X245139750Y-44064419D01*
X245159962Y-44071651D01*
X245179368Y-44080830D01*
X245197781Y-44091866D01*
X245215024Y-44104654D01*
X245230930Y-44119070D01*
X245245346Y-44134976D01*
X245258134Y-44152219D01*
X245269170Y-44170632D01*
X245278349Y-44190038D01*
X245285581Y-44210250D01*
X245290797Y-44231074D01*
X245293947Y-44252309D01*
X245295000Y-44273750D01*
X245295000Y-44711250D01*
X245293947Y-44732691D01*
X245290797Y-44753926D01*
X245285581Y-44774750D01*
X245278349Y-44794962D01*
X245269170Y-44814368D01*
X245258134Y-44832781D01*
X245245346Y-44850024D01*
X245230930Y-44865930D01*
X245215024Y-44880346D01*
X245197781Y-44893134D01*
X245179368Y-44904170D01*
X245159962Y-44913349D01*
X245139750Y-44920581D01*
X245118926Y-44925797D01*
X245097691Y-44928947D01*
X245076250Y-44930000D01*
X244563750Y-44930000D01*
X244542309Y-44928947D01*
X244521074Y-44925797D01*
X244500250Y-44920581D01*
X244480038Y-44913349D01*
X244460632Y-44904170D01*
X244442219Y-44893134D01*
X244424976Y-44880346D01*
X244409070Y-44865930D01*
X244394654Y-44850024D01*
X244381866Y-44832781D01*
X244370830Y-44814368D01*
X244361651Y-44794962D01*
X244354419Y-44774750D01*
X244349203Y-44753926D01*
X244346053Y-44732691D01*
X244345000Y-44711250D01*
X244345000Y-44273750D01*
X244346053Y-44252309D01*
X244349203Y-44231074D01*
X244354419Y-44210250D01*
X244361651Y-44190038D01*
X244370830Y-44170632D01*
X244381866Y-44152219D01*
X244394654Y-44134976D01*
X244409070Y-44119070D01*
X244424976Y-44104654D01*
X244442219Y-44091866D01*
X244460632Y-44080830D01*
X244480038Y-44071651D01*
X244500250Y-44064419D01*
X244521074Y-44059203D01*
X244542309Y-44056053D01*
X244563750Y-44055000D01*
X245076250Y-44055000D01*
X245097691Y-44056053D01*
G37*
G04 #@! TD.AperFunction*
G04 #@! TA.AperFunction,SMDPad,CuDef*
G36*
X245097691Y-45631053D02*
G01*
X245118926Y-45634203D01*
X245139750Y-45639419D01*
X245159962Y-45646651D01*
X245179368Y-45655830D01*
X245197781Y-45666866D01*
X245215024Y-45679654D01*
X245230930Y-45694070D01*
X245245346Y-45709976D01*
X245258134Y-45727219D01*
X245269170Y-45745632D01*
X245278349Y-45765038D01*
X245285581Y-45785250D01*
X245290797Y-45806074D01*
X245293947Y-45827309D01*
X245295000Y-45848750D01*
X245295000Y-46286250D01*
X245293947Y-46307691D01*
X245290797Y-46328926D01*
X245285581Y-46349750D01*
X245278349Y-46369962D01*
X245269170Y-46389368D01*
X245258134Y-46407781D01*
X245245346Y-46425024D01*
X245230930Y-46440930D01*
X245215024Y-46455346D01*
X245197781Y-46468134D01*
X245179368Y-46479170D01*
X245159962Y-46488349D01*
X245139750Y-46495581D01*
X245118926Y-46500797D01*
X245097691Y-46503947D01*
X245076250Y-46505000D01*
X244563750Y-46505000D01*
X244542309Y-46503947D01*
X244521074Y-46500797D01*
X244500250Y-46495581D01*
X244480038Y-46488349D01*
X244460632Y-46479170D01*
X244442219Y-46468134D01*
X244424976Y-46455346D01*
X244409070Y-46440930D01*
X244394654Y-46425024D01*
X244381866Y-46407781D01*
X244370830Y-46389368D01*
X244361651Y-46369962D01*
X244354419Y-46349750D01*
X244349203Y-46328926D01*
X244346053Y-46307691D01*
X244345000Y-46286250D01*
X244345000Y-45848750D01*
X244346053Y-45827309D01*
X244349203Y-45806074D01*
X244354419Y-45785250D01*
X244361651Y-45765038D01*
X244370830Y-45745632D01*
X244381866Y-45727219D01*
X244394654Y-45709976D01*
X244409070Y-45694070D01*
X244424976Y-45679654D01*
X244442219Y-45666866D01*
X244460632Y-45655830D01*
X244480038Y-45646651D01*
X244500250Y-45639419D01*
X244521074Y-45634203D01*
X244542309Y-45631053D01*
X244563750Y-45630000D01*
X245076250Y-45630000D01*
X245097691Y-45631053D01*
G37*
G04 #@! TD.AperFunction*
D11*
X253120000Y-41880000D03*
X252320000Y-41880000D03*
X253120000Y-41880000D03*
X252320000Y-41880000D03*
X246720000Y-41880000D03*
X246720000Y-41880000D03*
X247520000Y-41880000D03*
X247520000Y-41880000D03*
D12*
X251670000Y-41880000D03*
X250670000Y-41880000D03*
X251170000Y-41880000D03*
X248670000Y-41880000D03*
X248170000Y-41880000D03*
X250170000Y-41880000D03*
X249670000Y-41880000D03*
X249170000Y-41880000D03*
D13*
X254240000Y-37130000D03*
X245600000Y-37130000D03*
D14*
X254240000Y-41300000D03*
X245600000Y-41300000D03*
D15*
X160800000Y-99670000D03*
X154450000Y-102210000D03*
D16*
X151110000Y-100030000D03*
X147410000Y-106230000D03*
X147410000Y-100030000D03*
X151110000Y-106230000D03*
D15*
X113170000Y-99650000D03*
X106820000Y-102190000D03*
G04 #@! TA.AperFunction,SMDPad,CuDef*
D10*
G36*
X133226958Y-94465710D02*
G01*
X133241276Y-94467834D01*
X133255317Y-94471351D01*
X133268946Y-94476228D01*
X133282031Y-94482417D01*
X133294447Y-94489858D01*
X133306073Y-94498481D01*
X133316798Y-94508202D01*
X133326519Y-94518927D01*
X133335142Y-94530553D01*
X133342583Y-94542969D01*
X133348772Y-94556054D01*
X133353649Y-94569683D01*
X133357166Y-94583724D01*
X133359290Y-94598042D01*
X133360000Y-94612500D01*
X133360000Y-94907500D01*
X133359290Y-94921958D01*
X133357166Y-94936276D01*
X133353649Y-94950317D01*
X133348772Y-94963946D01*
X133342583Y-94977031D01*
X133335142Y-94989447D01*
X133326519Y-95001073D01*
X133316798Y-95011798D01*
X133306073Y-95021519D01*
X133294447Y-95030142D01*
X133282031Y-95037583D01*
X133268946Y-95043772D01*
X133255317Y-95048649D01*
X133241276Y-95052166D01*
X133226958Y-95054290D01*
X133212500Y-95055000D01*
X132867500Y-95055000D01*
X132853042Y-95054290D01*
X132838724Y-95052166D01*
X132824683Y-95048649D01*
X132811054Y-95043772D01*
X132797969Y-95037583D01*
X132785553Y-95030142D01*
X132773927Y-95021519D01*
X132763202Y-95011798D01*
X132753481Y-95001073D01*
X132744858Y-94989447D01*
X132737417Y-94977031D01*
X132731228Y-94963946D01*
X132726351Y-94950317D01*
X132722834Y-94936276D01*
X132720710Y-94921958D01*
X132720000Y-94907500D01*
X132720000Y-94612500D01*
X132720710Y-94598042D01*
X132722834Y-94583724D01*
X132726351Y-94569683D01*
X132731228Y-94556054D01*
X132737417Y-94542969D01*
X132744858Y-94530553D01*
X132753481Y-94518927D01*
X132763202Y-94508202D01*
X132773927Y-94498481D01*
X132785553Y-94489858D01*
X132797969Y-94482417D01*
X132811054Y-94476228D01*
X132824683Y-94471351D01*
X132838724Y-94467834D01*
X132853042Y-94465710D01*
X132867500Y-94465000D01*
X133212500Y-94465000D01*
X133226958Y-94465710D01*
G37*
G04 #@! TD.AperFunction*
G04 #@! TA.AperFunction,SMDPad,CuDef*
G36*
X133226958Y-95435710D02*
G01*
X133241276Y-95437834D01*
X133255317Y-95441351D01*
X133268946Y-95446228D01*
X133282031Y-95452417D01*
X133294447Y-95459858D01*
X133306073Y-95468481D01*
X133316798Y-95478202D01*
X133326519Y-95488927D01*
X133335142Y-95500553D01*
X133342583Y-95512969D01*
X133348772Y-95526054D01*
X133353649Y-95539683D01*
X133357166Y-95553724D01*
X133359290Y-95568042D01*
X133360000Y-95582500D01*
X133360000Y-95877500D01*
X133359290Y-95891958D01*
X133357166Y-95906276D01*
X133353649Y-95920317D01*
X133348772Y-95933946D01*
X133342583Y-95947031D01*
X133335142Y-95959447D01*
X133326519Y-95971073D01*
X133316798Y-95981798D01*
X133306073Y-95991519D01*
X133294447Y-96000142D01*
X133282031Y-96007583D01*
X133268946Y-96013772D01*
X133255317Y-96018649D01*
X133241276Y-96022166D01*
X133226958Y-96024290D01*
X133212500Y-96025000D01*
X132867500Y-96025000D01*
X132853042Y-96024290D01*
X132838724Y-96022166D01*
X132824683Y-96018649D01*
X132811054Y-96013772D01*
X132797969Y-96007583D01*
X132785553Y-96000142D01*
X132773927Y-95991519D01*
X132763202Y-95981798D01*
X132753481Y-95971073D01*
X132744858Y-95959447D01*
X132737417Y-95947031D01*
X132731228Y-95933946D01*
X132726351Y-95920317D01*
X132722834Y-95906276D01*
X132720710Y-95891958D01*
X132720000Y-95877500D01*
X132720000Y-95582500D01*
X132720710Y-95568042D01*
X132722834Y-95553724D01*
X132726351Y-95539683D01*
X132731228Y-95526054D01*
X132737417Y-95512969D01*
X132744858Y-95500553D01*
X132753481Y-95488927D01*
X132763202Y-95478202D01*
X132773927Y-95468481D01*
X132785553Y-95459858D01*
X132797969Y-95452417D01*
X132811054Y-95446228D01*
X132824683Y-95441351D01*
X132838724Y-95437834D01*
X132853042Y-95435710D01*
X132867500Y-95435000D01*
X133212500Y-95435000D01*
X133226958Y-95435710D01*
G37*
G04 #@! TD.AperFunction*
G04 #@! TA.AperFunction,SMDPad,CuDef*
G36*
X142346958Y-100500710D02*
G01*
X142361276Y-100502834D01*
X142375317Y-100506351D01*
X142388946Y-100511228D01*
X142402031Y-100517417D01*
X142414447Y-100524858D01*
X142426073Y-100533481D01*
X142436798Y-100543202D01*
X142446519Y-100553927D01*
X142455142Y-100565553D01*
X142462583Y-100577969D01*
X142468772Y-100591054D01*
X142473649Y-100604683D01*
X142477166Y-100618724D01*
X142479290Y-100633042D01*
X142480000Y-100647500D01*
X142480000Y-100992500D01*
X142479290Y-101006958D01*
X142477166Y-101021276D01*
X142473649Y-101035317D01*
X142468772Y-101048946D01*
X142462583Y-101062031D01*
X142455142Y-101074447D01*
X142446519Y-101086073D01*
X142436798Y-101096798D01*
X142426073Y-101106519D01*
X142414447Y-101115142D01*
X142402031Y-101122583D01*
X142388946Y-101128772D01*
X142375317Y-101133649D01*
X142361276Y-101137166D01*
X142346958Y-101139290D01*
X142332500Y-101140000D01*
X142037500Y-101140000D01*
X142023042Y-101139290D01*
X142008724Y-101137166D01*
X141994683Y-101133649D01*
X141981054Y-101128772D01*
X141967969Y-101122583D01*
X141955553Y-101115142D01*
X141943927Y-101106519D01*
X141933202Y-101096798D01*
X141923481Y-101086073D01*
X141914858Y-101074447D01*
X141907417Y-101062031D01*
X141901228Y-101048946D01*
X141896351Y-101035317D01*
X141892834Y-101021276D01*
X141890710Y-101006958D01*
X141890000Y-100992500D01*
X141890000Y-100647500D01*
X141890710Y-100633042D01*
X141892834Y-100618724D01*
X141896351Y-100604683D01*
X141901228Y-100591054D01*
X141907417Y-100577969D01*
X141914858Y-100565553D01*
X141923481Y-100553927D01*
X141933202Y-100543202D01*
X141943927Y-100533481D01*
X141955553Y-100524858D01*
X141967969Y-100517417D01*
X141981054Y-100511228D01*
X141994683Y-100506351D01*
X142008724Y-100502834D01*
X142023042Y-100500710D01*
X142037500Y-100500000D01*
X142332500Y-100500000D01*
X142346958Y-100500710D01*
G37*
G04 #@! TD.AperFunction*
G04 #@! TA.AperFunction,SMDPad,CuDef*
G36*
X143316958Y-100500710D02*
G01*
X143331276Y-100502834D01*
X143345317Y-100506351D01*
X143358946Y-100511228D01*
X143372031Y-100517417D01*
X143384447Y-100524858D01*
X143396073Y-100533481D01*
X143406798Y-100543202D01*
X143416519Y-100553927D01*
X143425142Y-100565553D01*
X143432583Y-100577969D01*
X143438772Y-100591054D01*
X143443649Y-100604683D01*
X143447166Y-100618724D01*
X143449290Y-100633042D01*
X143450000Y-100647500D01*
X143450000Y-100992500D01*
X143449290Y-101006958D01*
X143447166Y-101021276D01*
X143443649Y-101035317D01*
X143438772Y-101048946D01*
X143432583Y-101062031D01*
X143425142Y-101074447D01*
X143416519Y-101086073D01*
X143406798Y-101096798D01*
X143396073Y-101106519D01*
X143384447Y-101115142D01*
X143372031Y-101122583D01*
X143358946Y-101128772D01*
X143345317Y-101133649D01*
X143331276Y-101137166D01*
X143316958Y-101139290D01*
X143302500Y-101140000D01*
X143007500Y-101140000D01*
X142993042Y-101139290D01*
X142978724Y-101137166D01*
X142964683Y-101133649D01*
X142951054Y-101128772D01*
X142937969Y-101122583D01*
X142925553Y-101115142D01*
X142913927Y-101106519D01*
X142903202Y-101096798D01*
X142893481Y-101086073D01*
X142884858Y-101074447D01*
X142877417Y-101062031D01*
X142871228Y-101048946D01*
X142866351Y-101035317D01*
X142862834Y-101021276D01*
X142860710Y-101006958D01*
X142860000Y-100992500D01*
X142860000Y-100647500D01*
X142860710Y-100633042D01*
X142862834Y-100618724D01*
X142866351Y-100604683D01*
X142871228Y-100591054D01*
X142877417Y-100577969D01*
X142884858Y-100565553D01*
X142893481Y-100553927D01*
X142903202Y-100543202D01*
X142913927Y-100533481D01*
X142925553Y-100524858D01*
X142937969Y-100517417D01*
X142951054Y-100511228D01*
X142964683Y-100506351D01*
X142978724Y-100502834D01*
X142993042Y-100500710D01*
X143007500Y-100500000D01*
X143302500Y-100500000D01*
X143316958Y-100500710D01*
G37*
G04 #@! TD.AperFunction*
G04 #@! TA.AperFunction,SMDPad,CuDef*
G36*
X142316958Y-106070710D02*
G01*
X142331276Y-106072834D01*
X142345317Y-106076351D01*
X142358946Y-106081228D01*
X142372031Y-106087417D01*
X142384447Y-106094858D01*
X142396073Y-106103481D01*
X142406798Y-106113202D01*
X142416519Y-106123927D01*
X142425142Y-106135553D01*
X142432583Y-106147969D01*
X142438772Y-106161054D01*
X142443649Y-106174683D01*
X142447166Y-106188724D01*
X142449290Y-106203042D01*
X142450000Y-106217500D01*
X142450000Y-106562500D01*
X142449290Y-106576958D01*
X142447166Y-106591276D01*
X142443649Y-106605317D01*
X142438772Y-106618946D01*
X142432583Y-106632031D01*
X142425142Y-106644447D01*
X142416519Y-106656073D01*
X142406798Y-106666798D01*
X142396073Y-106676519D01*
X142384447Y-106685142D01*
X142372031Y-106692583D01*
X142358946Y-106698772D01*
X142345317Y-106703649D01*
X142331276Y-106707166D01*
X142316958Y-106709290D01*
X142302500Y-106710000D01*
X142007500Y-106710000D01*
X141993042Y-106709290D01*
X141978724Y-106707166D01*
X141964683Y-106703649D01*
X141951054Y-106698772D01*
X141937969Y-106692583D01*
X141925553Y-106685142D01*
X141913927Y-106676519D01*
X141903202Y-106666798D01*
X141893481Y-106656073D01*
X141884858Y-106644447D01*
X141877417Y-106632031D01*
X141871228Y-106618946D01*
X141866351Y-106605317D01*
X141862834Y-106591276D01*
X141860710Y-106576958D01*
X141860000Y-106562500D01*
X141860000Y-106217500D01*
X141860710Y-106203042D01*
X141862834Y-106188724D01*
X141866351Y-106174683D01*
X141871228Y-106161054D01*
X141877417Y-106147969D01*
X141884858Y-106135553D01*
X141893481Y-106123927D01*
X141903202Y-106113202D01*
X141913927Y-106103481D01*
X141925553Y-106094858D01*
X141937969Y-106087417D01*
X141951054Y-106081228D01*
X141964683Y-106076351D01*
X141978724Y-106072834D01*
X141993042Y-106070710D01*
X142007500Y-106070000D01*
X142302500Y-106070000D01*
X142316958Y-106070710D01*
G37*
G04 #@! TD.AperFunction*
G04 #@! TA.AperFunction,SMDPad,CuDef*
G36*
X143286958Y-106070710D02*
G01*
X143301276Y-106072834D01*
X143315317Y-106076351D01*
X143328946Y-106081228D01*
X143342031Y-106087417D01*
X143354447Y-106094858D01*
X143366073Y-106103481D01*
X143376798Y-106113202D01*
X143386519Y-106123927D01*
X143395142Y-106135553D01*
X143402583Y-106147969D01*
X143408772Y-106161054D01*
X143413649Y-106174683D01*
X143417166Y-106188724D01*
X143419290Y-106203042D01*
X143420000Y-106217500D01*
X143420000Y-106562500D01*
X143419290Y-106576958D01*
X143417166Y-106591276D01*
X143413649Y-106605317D01*
X143408772Y-106618946D01*
X143402583Y-106632031D01*
X143395142Y-106644447D01*
X143386519Y-106656073D01*
X143376798Y-106666798D01*
X143366073Y-106676519D01*
X143354447Y-106685142D01*
X143342031Y-106692583D01*
X143328946Y-106698772D01*
X143315317Y-106703649D01*
X143301276Y-106707166D01*
X143286958Y-106709290D01*
X143272500Y-106710000D01*
X142977500Y-106710000D01*
X142963042Y-106709290D01*
X142948724Y-106707166D01*
X142934683Y-106703649D01*
X142921054Y-106698772D01*
X142907969Y-106692583D01*
X142895553Y-106685142D01*
X142883927Y-106676519D01*
X142873202Y-106666798D01*
X142863481Y-106656073D01*
X142854858Y-106644447D01*
X142847417Y-106632031D01*
X142841228Y-106618946D01*
X142836351Y-106605317D01*
X142832834Y-106591276D01*
X142830710Y-106576958D01*
X142830000Y-106562500D01*
X142830000Y-106217500D01*
X142830710Y-106203042D01*
X142832834Y-106188724D01*
X142836351Y-106174683D01*
X142841228Y-106161054D01*
X142847417Y-106147969D01*
X142854858Y-106135553D01*
X142863481Y-106123927D01*
X142873202Y-106113202D01*
X142883927Y-106103481D01*
X142895553Y-106094858D01*
X142907969Y-106087417D01*
X142921054Y-106081228D01*
X142934683Y-106076351D01*
X142948724Y-106072834D01*
X142963042Y-106070710D01*
X142977500Y-106070000D01*
X143272500Y-106070000D01*
X143286958Y-106070710D01*
G37*
G04 #@! TD.AperFunction*
D17*
X33320000Y-53710000D03*
X33320000Y-50310000D03*
X52370000Y-50300000D03*
X52370000Y-53700000D03*
X71410000Y-50290000D03*
X71410000Y-53690000D03*
X90400000Y-53590000D03*
X90400000Y-50190000D03*
X109520000Y-50210000D03*
X109520000Y-53610000D03*
X128570000Y-53640000D03*
X128570000Y-50240000D03*
X147640000Y-50280000D03*
X147640000Y-53680000D03*
X166700000Y-53680000D03*
X166700000Y-50280000D03*
X185750000Y-50280000D03*
X185750000Y-53680000D03*
X204730000Y-53620000D03*
X204730000Y-50220000D03*
X223840000Y-53680000D03*
X223840000Y-50280000D03*
X242880000Y-53620000D03*
X242880000Y-50220000D03*
X269070000Y-50220000D03*
X269070000Y-53620000D03*
X35690000Y-69330000D03*
X35690000Y-72730000D03*
X57090000Y-69300000D03*
X57090000Y-72700000D03*
X76190000Y-69330000D03*
X76190000Y-72730000D03*
X95230000Y-72750000D03*
X95230000Y-69350000D03*
X114270000Y-69330000D03*
X114270000Y-72730000D03*
X133330000Y-72740000D03*
X133330000Y-69340000D03*
X152420000Y-69350000D03*
X152420000Y-72750000D03*
X171470000Y-72730000D03*
X171470000Y-69330000D03*
X190490000Y-69340000D03*
X190490000Y-72740000D03*
X209550000Y-72730000D03*
X209550000Y-69330000D03*
X228600000Y-69310000D03*
X228600000Y-72710000D03*
X247640000Y-72720000D03*
X247640000Y-69320000D03*
X271450000Y-69330000D03*
X271450000Y-72730000D03*
X40440000Y-91780000D03*
X40440000Y-88380000D03*
X66630000Y-88360000D03*
X66630000Y-91760000D03*
X85690000Y-88390000D03*
X85690000Y-91790000D03*
X104760000Y-91750000D03*
X104760000Y-88350000D03*
X123780000Y-91760000D03*
X123780000Y-88360000D03*
X142850000Y-88390000D03*
X142850000Y-91790000D03*
X161900000Y-91790000D03*
X161900000Y-88390000D03*
X181000000Y-88350000D03*
X181000000Y-91750000D03*
X200040000Y-91780000D03*
X200040000Y-88380000D03*
X219080000Y-88340000D03*
X219080000Y-91740000D03*
X238120000Y-91740000D03*
X238120000Y-88340000D03*
X257220000Y-88400000D03*
X257220000Y-91800000D03*
X276250000Y-91800000D03*
X276250000Y-88400000D03*
X35630000Y-110790000D03*
X35630000Y-107390000D03*
X59470000Y-107410000D03*
X59470000Y-110810000D03*
X83250000Y-110800000D03*
X83250000Y-107400000D03*
X116610000Y-107400000D03*
X116610000Y-110800000D03*
X164250000Y-110860000D03*
X164250000Y-107460000D03*
X199960000Y-107450000D03*
X199960000Y-110850000D03*
X219060000Y-110850000D03*
X219060000Y-107450000D03*
X238130000Y-107450000D03*
X238130000Y-110850000D03*
X257180000Y-107430000D03*
X257180000Y-110830000D03*
X276200000Y-110840000D03*
X276200000Y-107440000D03*
D15*
X29840000Y-42510000D03*
X23490000Y-45050000D03*
X42540000Y-45050000D03*
X48890000Y-42510000D03*
X67940000Y-42510000D03*
X61590000Y-45050000D03*
X80640000Y-45050000D03*
X86990000Y-42510000D03*
X106090000Y-42510000D03*
X99740000Y-45050000D03*
X118790000Y-45050000D03*
X125140000Y-42510000D03*
X137840000Y-45050000D03*
X144190000Y-42510000D03*
X156890000Y-45050000D03*
X163240000Y-42510000D03*
X182290000Y-42510000D03*
X175940000Y-45050000D03*
X194990000Y-45050000D03*
X201340000Y-42510000D03*
X220390000Y-42510000D03*
X214040000Y-45050000D03*
X233090000Y-45050000D03*
X239440000Y-42510000D03*
X265640000Y-42510000D03*
X259290000Y-45050000D03*
X32220000Y-61560000D03*
X25870000Y-64100000D03*
X47300000Y-64100000D03*
X53650000Y-61560000D03*
X72720000Y-61560000D03*
X66370000Y-64100000D03*
X85420000Y-64100000D03*
X91770000Y-61560000D03*
X104480000Y-64100000D03*
X110830000Y-61560000D03*
X129880000Y-61560000D03*
X123530000Y-64100000D03*
X148940000Y-61570000D03*
X142590000Y-64110000D03*
X168010000Y-61570000D03*
X161660000Y-64110000D03*
X180710000Y-64120000D03*
X187060000Y-61580000D03*
X206100000Y-61580000D03*
X199750000Y-64120000D03*
X218800000Y-64110000D03*
X225150000Y-61570000D03*
X244210000Y-61570000D03*
X237860000Y-64110000D03*
X261680000Y-64120000D03*
X268030000Y-61580000D03*
X30630000Y-83150000D03*
X36980000Y-80610000D03*
X56830000Y-83150000D03*
X63180000Y-80610000D03*
X82240000Y-80610000D03*
X75890000Y-83150000D03*
X94940000Y-83150000D03*
X101290000Y-80610000D03*
X120340000Y-80610000D03*
X113990000Y-83150000D03*
X133040000Y-83170000D03*
X139390000Y-80630000D03*
X158460000Y-80620000D03*
X152110000Y-83160000D03*
X171200000Y-83170000D03*
X177550000Y-80630000D03*
X196600000Y-80630000D03*
X190250000Y-83170000D03*
X209310000Y-83170000D03*
X215660000Y-80630000D03*
X228360000Y-83170000D03*
X234710000Y-80630000D03*
X253760000Y-80640000D03*
X247410000Y-83180000D03*
X266450000Y-83180000D03*
X272800000Y-80640000D03*
X32210000Y-99650000D03*
X25860000Y-102190000D03*
X49670000Y-102190000D03*
X56020000Y-99650000D03*
X73480000Y-102210000D03*
X79830000Y-99670000D03*
X196520000Y-99680000D03*
X190170000Y-102220000D03*
X215610000Y-99680000D03*
X209260000Y-102220000D03*
X234670000Y-99670000D03*
X228320000Y-102210000D03*
X247380000Y-102220000D03*
X253730000Y-99680000D03*
X272780000Y-99700000D03*
X266430000Y-102240000D03*
G04 #@! TA.AperFunction,SMDPad,CuDef*
D10*
G36*
X250856958Y-44510710D02*
G01*
X250871276Y-44512834D01*
X250885317Y-44516351D01*
X250898946Y-44521228D01*
X250912031Y-44527417D01*
X250924447Y-44534858D01*
X250936073Y-44543481D01*
X250946798Y-44553202D01*
X250956519Y-44563927D01*
X250965142Y-44575553D01*
X250972583Y-44587969D01*
X250978772Y-44601054D01*
X250983649Y-44614683D01*
X250987166Y-44628724D01*
X250989290Y-44643042D01*
X250990000Y-44657500D01*
X250990000Y-44952500D01*
X250989290Y-44966958D01*
X250987166Y-44981276D01*
X250983649Y-44995317D01*
X250978772Y-45008946D01*
X250972583Y-45022031D01*
X250965142Y-45034447D01*
X250956519Y-45046073D01*
X250946798Y-45056798D01*
X250936073Y-45066519D01*
X250924447Y-45075142D01*
X250912031Y-45082583D01*
X250898946Y-45088772D01*
X250885317Y-45093649D01*
X250871276Y-45097166D01*
X250856958Y-45099290D01*
X250842500Y-45100000D01*
X250497500Y-45100000D01*
X250483042Y-45099290D01*
X250468724Y-45097166D01*
X250454683Y-45093649D01*
X250441054Y-45088772D01*
X250427969Y-45082583D01*
X250415553Y-45075142D01*
X250403927Y-45066519D01*
X250393202Y-45056798D01*
X250383481Y-45046073D01*
X250374858Y-45034447D01*
X250367417Y-45022031D01*
X250361228Y-45008946D01*
X250356351Y-44995317D01*
X250352834Y-44981276D01*
X250350710Y-44966958D01*
X250350000Y-44952500D01*
X250350000Y-44657500D01*
X250350710Y-44643042D01*
X250352834Y-44628724D01*
X250356351Y-44614683D01*
X250361228Y-44601054D01*
X250367417Y-44587969D01*
X250374858Y-44575553D01*
X250383481Y-44563927D01*
X250393202Y-44553202D01*
X250403927Y-44543481D01*
X250415553Y-44534858D01*
X250427969Y-44527417D01*
X250441054Y-44521228D01*
X250454683Y-44516351D01*
X250468724Y-44512834D01*
X250483042Y-44510710D01*
X250497500Y-44510000D01*
X250842500Y-44510000D01*
X250856958Y-44510710D01*
G37*
G04 #@! TD.AperFunction*
G04 #@! TA.AperFunction,SMDPad,CuDef*
G36*
X250856958Y-45480710D02*
G01*
X250871276Y-45482834D01*
X250885317Y-45486351D01*
X250898946Y-45491228D01*
X250912031Y-45497417D01*
X250924447Y-45504858D01*
X250936073Y-45513481D01*
X250946798Y-45523202D01*
X250956519Y-45533927D01*
X250965142Y-45545553D01*
X250972583Y-45557969D01*
X250978772Y-45571054D01*
X250983649Y-45584683D01*
X250987166Y-45598724D01*
X250989290Y-45613042D01*
X250990000Y-45627500D01*
X250990000Y-45922500D01*
X250989290Y-45936958D01*
X250987166Y-45951276D01*
X250983649Y-45965317D01*
X250978772Y-45978946D01*
X250972583Y-45992031D01*
X250965142Y-46004447D01*
X250956519Y-46016073D01*
X250946798Y-46026798D01*
X250936073Y-46036519D01*
X250924447Y-46045142D01*
X250912031Y-46052583D01*
X250898946Y-46058772D01*
X250885317Y-46063649D01*
X250871276Y-46067166D01*
X250856958Y-46069290D01*
X250842500Y-46070000D01*
X250497500Y-46070000D01*
X250483042Y-46069290D01*
X250468724Y-46067166D01*
X250454683Y-46063649D01*
X250441054Y-46058772D01*
X250427969Y-46052583D01*
X250415553Y-46045142D01*
X250403927Y-46036519D01*
X250393202Y-46026798D01*
X250383481Y-46016073D01*
X250374858Y-46004447D01*
X250367417Y-45992031D01*
X250361228Y-45978946D01*
X250356351Y-45965317D01*
X250352834Y-45951276D01*
X250350710Y-45936958D01*
X250350000Y-45922500D01*
X250350000Y-45627500D01*
X250350710Y-45613042D01*
X250352834Y-45598724D01*
X250356351Y-45584683D01*
X250361228Y-45571054D01*
X250367417Y-45557969D01*
X250374858Y-45545553D01*
X250383481Y-45533927D01*
X250393202Y-45523202D01*
X250403927Y-45513481D01*
X250415553Y-45504858D01*
X250427969Y-45497417D01*
X250441054Y-45491228D01*
X250454683Y-45486351D01*
X250468724Y-45482834D01*
X250483042Y-45480710D01*
X250497500Y-45480000D01*
X250842500Y-45480000D01*
X250856958Y-45480710D01*
G37*
G04 #@! TD.AperFunction*
G04 #@! TA.AperFunction,SMDPad,CuDef*
G36*
X249356958Y-45470710D02*
G01*
X249371276Y-45472834D01*
X249385317Y-45476351D01*
X249398946Y-45481228D01*
X249412031Y-45487417D01*
X249424447Y-45494858D01*
X249436073Y-45503481D01*
X249446798Y-45513202D01*
X249456519Y-45523927D01*
X249465142Y-45535553D01*
X249472583Y-45547969D01*
X249478772Y-45561054D01*
X249483649Y-45574683D01*
X249487166Y-45588724D01*
X249489290Y-45603042D01*
X249490000Y-45617500D01*
X249490000Y-45912500D01*
X249489290Y-45926958D01*
X249487166Y-45941276D01*
X249483649Y-45955317D01*
X249478772Y-45968946D01*
X249472583Y-45982031D01*
X249465142Y-45994447D01*
X249456519Y-46006073D01*
X249446798Y-46016798D01*
X249436073Y-46026519D01*
X249424447Y-46035142D01*
X249412031Y-46042583D01*
X249398946Y-46048772D01*
X249385317Y-46053649D01*
X249371276Y-46057166D01*
X249356958Y-46059290D01*
X249342500Y-46060000D01*
X248997500Y-46060000D01*
X248983042Y-46059290D01*
X248968724Y-46057166D01*
X248954683Y-46053649D01*
X248941054Y-46048772D01*
X248927969Y-46042583D01*
X248915553Y-46035142D01*
X248903927Y-46026519D01*
X248893202Y-46016798D01*
X248883481Y-46006073D01*
X248874858Y-45994447D01*
X248867417Y-45982031D01*
X248861228Y-45968946D01*
X248856351Y-45955317D01*
X248852834Y-45941276D01*
X248850710Y-45926958D01*
X248850000Y-45912500D01*
X248850000Y-45617500D01*
X248850710Y-45603042D01*
X248852834Y-45588724D01*
X248856351Y-45574683D01*
X248861228Y-45561054D01*
X248867417Y-45547969D01*
X248874858Y-45535553D01*
X248883481Y-45523927D01*
X248893202Y-45513202D01*
X248903927Y-45503481D01*
X248915553Y-45494858D01*
X248927969Y-45487417D01*
X248941054Y-45481228D01*
X248954683Y-45476351D01*
X248968724Y-45472834D01*
X248983042Y-45470710D01*
X248997500Y-45470000D01*
X249342500Y-45470000D01*
X249356958Y-45470710D01*
G37*
G04 #@! TD.AperFunction*
G04 #@! TA.AperFunction,SMDPad,CuDef*
G36*
X249356958Y-44500710D02*
G01*
X249371276Y-44502834D01*
X249385317Y-44506351D01*
X249398946Y-44511228D01*
X249412031Y-44517417D01*
X249424447Y-44524858D01*
X249436073Y-44533481D01*
X249446798Y-44543202D01*
X249456519Y-44553927D01*
X249465142Y-44565553D01*
X249472583Y-44577969D01*
X249478772Y-44591054D01*
X249483649Y-44604683D01*
X249487166Y-44618724D01*
X249489290Y-44633042D01*
X249490000Y-44647500D01*
X249490000Y-44942500D01*
X249489290Y-44956958D01*
X249487166Y-44971276D01*
X249483649Y-44985317D01*
X249478772Y-44998946D01*
X249472583Y-45012031D01*
X249465142Y-45024447D01*
X249456519Y-45036073D01*
X249446798Y-45046798D01*
X249436073Y-45056519D01*
X249424447Y-45065142D01*
X249412031Y-45072583D01*
X249398946Y-45078772D01*
X249385317Y-45083649D01*
X249371276Y-45087166D01*
X249356958Y-45089290D01*
X249342500Y-45090000D01*
X248997500Y-45090000D01*
X248983042Y-45089290D01*
X248968724Y-45087166D01*
X248954683Y-45083649D01*
X248941054Y-45078772D01*
X248927969Y-45072583D01*
X248915553Y-45065142D01*
X248903927Y-45056519D01*
X248893202Y-45046798D01*
X248883481Y-45036073D01*
X248874858Y-45024447D01*
X248867417Y-45012031D01*
X248861228Y-44998946D01*
X248856351Y-44985317D01*
X248852834Y-44971276D01*
X248850710Y-44956958D01*
X248850000Y-44942500D01*
X248850000Y-44647500D01*
X248850710Y-44633042D01*
X248852834Y-44618724D01*
X248856351Y-44604683D01*
X248861228Y-44591054D01*
X248867417Y-44577969D01*
X248874858Y-44565553D01*
X248883481Y-44553927D01*
X248893202Y-44543202D01*
X248903927Y-44533481D01*
X248915553Y-44524858D01*
X248927969Y-44517417D01*
X248941054Y-44511228D01*
X248954683Y-44506351D01*
X248968724Y-44502834D01*
X248983042Y-44500710D01*
X248997500Y-44500000D01*
X249342500Y-44500000D01*
X249356958Y-44500710D01*
G37*
G04 #@! TD.AperFunction*
G04 #@! TA.AperFunction,SMDPad,CuDef*
G36*
X141966958Y-98980710D02*
G01*
X141981276Y-98982834D01*
X141995317Y-98986351D01*
X142008946Y-98991228D01*
X142022031Y-98997417D01*
X142034447Y-99004858D01*
X142046073Y-99013481D01*
X142056798Y-99023202D01*
X142066519Y-99033927D01*
X142075142Y-99045553D01*
X142082583Y-99057969D01*
X142088772Y-99071054D01*
X142093649Y-99084683D01*
X142097166Y-99098724D01*
X142099290Y-99113042D01*
X142100000Y-99127500D01*
X142100000Y-99472500D01*
X142099290Y-99486958D01*
X142097166Y-99501276D01*
X142093649Y-99515317D01*
X142088772Y-99528946D01*
X142082583Y-99542031D01*
X142075142Y-99554447D01*
X142066519Y-99566073D01*
X142056798Y-99576798D01*
X142046073Y-99586519D01*
X142034447Y-99595142D01*
X142022031Y-99602583D01*
X142008946Y-99608772D01*
X141995317Y-99613649D01*
X141981276Y-99617166D01*
X141966958Y-99619290D01*
X141952500Y-99620000D01*
X141657500Y-99620000D01*
X141643042Y-99619290D01*
X141628724Y-99617166D01*
X141614683Y-99613649D01*
X141601054Y-99608772D01*
X141587969Y-99602583D01*
X141575553Y-99595142D01*
X141563927Y-99586519D01*
X141553202Y-99576798D01*
X141543481Y-99566073D01*
X141534858Y-99554447D01*
X141527417Y-99542031D01*
X141521228Y-99528946D01*
X141516351Y-99515317D01*
X141512834Y-99501276D01*
X141510710Y-99486958D01*
X141510000Y-99472500D01*
X141510000Y-99127500D01*
X141510710Y-99113042D01*
X141512834Y-99098724D01*
X141516351Y-99084683D01*
X141521228Y-99071054D01*
X141527417Y-99057969D01*
X141534858Y-99045553D01*
X141543481Y-99033927D01*
X141553202Y-99023202D01*
X141563927Y-99013481D01*
X141575553Y-99004858D01*
X141587969Y-98997417D01*
X141601054Y-98991228D01*
X141614683Y-98986351D01*
X141628724Y-98982834D01*
X141643042Y-98980710D01*
X141657500Y-98980000D01*
X141952500Y-98980000D01*
X141966958Y-98980710D01*
G37*
G04 #@! TD.AperFunction*
G04 #@! TA.AperFunction,SMDPad,CuDef*
G36*
X142936958Y-98980710D02*
G01*
X142951276Y-98982834D01*
X142965317Y-98986351D01*
X142978946Y-98991228D01*
X142992031Y-98997417D01*
X143004447Y-99004858D01*
X143016073Y-99013481D01*
X143026798Y-99023202D01*
X143036519Y-99033927D01*
X143045142Y-99045553D01*
X143052583Y-99057969D01*
X143058772Y-99071054D01*
X143063649Y-99084683D01*
X143067166Y-99098724D01*
X143069290Y-99113042D01*
X143070000Y-99127500D01*
X143070000Y-99472500D01*
X143069290Y-99486958D01*
X143067166Y-99501276D01*
X143063649Y-99515317D01*
X143058772Y-99528946D01*
X143052583Y-99542031D01*
X143045142Y-99554447D01*
X143036519Y-99566073D01*
X143026798Y-99576798D01*
X143016073Y-99586519D01*
X143004447Y-99595142D01*
X142992031Y-99602583D01*
X142978946Y-99608772D01*
X142965317Y-99613649D01*
X142951276Y-99617166D01*
X142936958Y-99619290D01*
X142922500Y-99620000D01*
X142627500Y-99620000D01*
X142613042Y-99619290D01*
X142598724Y-99617166D01*
X142584683Y-99613649D01*
X142571054Y-99608772D01*
X142557969Y-99602583D01*
X142545553Y-99595142D01*
X142533927Y-99586519D01*
X142523202Y-99576798D01*
X142513481Y-99566073D01*
X142504858Y-99554447D01*
X142497417Y-99542031D01*
X142491228Y-99528946D01*
X142486351Y-99515317D01*
X142482834Y-99501276D01*
X142480710Y-99486958D01*
X142480000Y-99472500D01*
X142480000Y-99127500D01*
X142480710Y-99113042D01*
X142482834Y-99098724D01*
X142486351Y-99084683D01*
X142491228Y-99071054D01*
X142497417Y-99057969D01*
X142504858Y-99045553D01*
X142513481Y-99033927D01*
X142523202Y-99023202D01*
X142533927Y-99013481D01*
X142545553Y-99004858D01*
X142557969Y-98997417D01*
X142571054Y-98991228D01*
X142584683Y-98986351D01*
X142598724Y-98982834D01*
X142613042Y-98980710D01*
X142627500Y-98980000D01*
X142922500Y-98980000D01*
X142936958Y-98980710D01*
G37*
G04 #@! TD.AperFunction*
G04 #@! TA.AperFunction,SMDPad,CuDef*
G36*
X127246958Y-108670710D02*
G01*
X127261276Y-108672834D01*
X127275317Y-108676351D01*
X127288946Y-108681228D01*
X127302031Y-108687417D01*
X127314447Y-108694858D01*
X127326073Y-108703481D01*
X127336798Y-108713202D01*
X127346519Y-108723927D01*
X127355142Y-108735553D01*
X127362583Y-108747969D01*
X127368772Y-108761054D01*
X127373649Y-108774683D01*
X127377166Y-108788724D01*
X127379290Y-108803042D01*
X127380000Y-108817500D01*
X127380000Y-109112500D01*
X127379290Y-109126958D01*
X127377166Y-109141276D01*
X127373649Y-109155317D01*
X127368772Y-109168946D01*
X127362583Y-109182031D01*
X127355142Y-109194447D01*
X127346519Y-109206073D01*
X127336798Y-109216798D01*
X127326073Y-109226519D01*
X127314447Y-109235142D01*
X127302031Y-109242583D01*
X127288946Y-109248772D01*
X127275317Y-109253649D01*
X127261276Y-109257166D01*
X127246958Y-109259290D01*
X127232500Y-109260000D01*
X126887500Y-109260000D01*
X126873042Y-109259290D01*
X126858724Y-109257166D01*
X126844683Y-109253649D01*
X126831054Y-109248772D01*
X126817969Y-109242583D01*
X126805553Y-109235142D01*
X126793927Y-109226519D01*
X126783202Y-109216798D01*
X126773481Y-109206073D01*
X126764858Y-109194447D01*
X126757417Y-109182031D01*
X126751228Y-109168946D01*
X126746351Y-109155317D01*
X126742834Y-109141276D01*
X126740710Y-109126958D01*
X126740000Y-109112500D01*
X126740000Y-108817500D01*
X126740710Y-108803042D01*
X126742834Y-108788724D01*
X126746351Y-108774683D01*
X126751228Y-108761054D01*
X126757417Y-108747969D01*
X126764858Y-108735553D01*
X126773481Y-108723927D01*
X126783202Y-108713202D01*
X126793927Y-108703481D01*
X126805553Y-108694858D01*
X126817969Y-108687417D01*
X126831054Y-108681228D01*
X126844683Y-108676351D01*
X126858724Y-108672834D01*
X126873042Y-108670710D01*
X126887500Y-108670000D01*
X127232500Y-108670000D01*
X127246958Y-108670710D01*
G37*
G04 #@! TD.AperFunction*
G04 #@! TA.AperFunction,SMDPad,CuDef*
G36*
X127246958Y-109640710D02*
G01*
X127261276Y-109642834D01*
X127275317Y-109646351D01*
X127288946Y-109651228D01*
X127302031Y-109657417D01*
X127314447Y-109664858D01*
X127326073Y-109673481D01*
X127336798Y-109683202D01*
X127346519Y-109693927D01*
X127355142Y-109705553D01*
X127362583Y-109717969D01*
X127368772Y-109731054D01*
X127373649Y-109744683D01*
X127377166Y-109758724D01*
X127379290Y-109773042D01*
X127380000Y-109787500D01*
X127380000Y-110082500D01*
X127379290Y-110096958D01*
X127377166Y-110111276D01*
X127373649Y-110125317D01*
X127368772Y-110138946D01*
X127362583Y-110152031D01*
X127355142Y-110164447D01*
X127346519Y-110176073D01*
X127336798Y-110186798D01*
X127326073Y-110196519D01*
X127314447Y-110205142D01*
X127302031Y-110212583D01*
X127288946Y-110218772D01*
X127275317Y-110223649D01*
X127261276Y-110227166D01*
X127246958Y-110229290D01*
X127232500Y-110230000D01*
X126887500Y-110230000D01*
X126873042Y-110229290D01*
X126858724Y-110227166D01*
X126844683Y-110223649D01*
X126831054Y-110218772D01*
X126817969Y-110212583D01*
X126805553Y-110205142D01*
X126793927Y-110196519D01*
X126783202Y-110186798D01*
X126773481Y-110176073D01*
X126764858Y-110164447D01*
X126757417Y-110152031D01*
X126751228Y-110138946D01*
X126746351Y-110125317D01*
X126742834Y-110111276D01*
X126740710Y-110096958D01*
X126740000Y-110082500D01*
X126740000Y-109787500D01*
X126740710Y-109773042D01*
X126742834Y-109758724D01*
X126746351Y-109744683D01*
X126751228Y-109731054D01*
X126757417Y-109717969D01*
X126764858Y-109705553D01*
X126773481Y-109693927D01*
X126783202Y-109683202D01*
X126793927Y-109673481D01*
X126805553Y-109664858D01*
X126817969Y-109657417D01*
X126831054Y-109651228D01*
X126844683Y-109646351D01*
X126858724Y-109642834D01*
X126873042Y-109640710D01*
X126887500Y-109640000D01*
X127232500Y-109640000D01*
X127246958Y-109640710D01*
G37*
G04 #@! TD.AperFunction*
D18*
X129050000Y-97550000D03*
X129850000Y-97550000D03*
X130650000Y-97550000D03*
X131450000Y-97550000D03*
X132250000Y-97550000D03*
X133050000Y-97550000D03*
X133850000Y-97550000D03*
X134650000Y-97550000D03*
X135450000Y-97550000D03*
X136250000Y-97550000D03*
X137050000Y-97550000D03*
D19*
X138750000Y-99250000D03*
X138750000Y-100050000D03*
X138750000Y-100850000D03*
X138750000Y-101650000D03*
X138750000Y-102450000D03*
X138750000Y-103250000D03*
X138750000Y-104050000D03*
X138750000Y-104850000D03*
X138750000Y-105650000D03*
X138750000Y-106450000D03*
X138750000Y-107250000D03*
D18*
X137050000Y-108950000D03*
X136250000Y-108950000D03*
X135450000Y-108950000D03*
X134650000Y-108950000D03*
X133850000Y-108950000D03*
X133050000Y-108950000D03*
X132250000Y-108950000D03*
X131450000Y-108950000D03*
X130650000Y-108950000D03*
X129850000Y-108950000D03*
X129050000Y-108950000D03*
D19*
X127350000Y-107250000D03*
X127350000Y-106450000D03*
X127350000Y-105650000D03*
X127350000Y-104850000D03*
X127350000Y-104050000D03*
X127350000Y-103250000D03*
X127350000Y-102450000D03*
X127350000Y-101650000D03*
X127350000Y-100850000D03*
X127350000Y-100050000D03*
X127350000Y-99250000D03*
G04 #@! TA.AperFunction,SMDPad,CuDef*
D10*
G36*
X251866958Y-46575710D02*
G01*
X251881276Y-46577834D01*
X251895317Y-46581351D01*
X251908946Y-46586228D01*
X251922031Y-46592417D01*
X251934447Y-46599858D01*
X251946073Y-46608481D01*
X251956798Y-46618202D01*
X251966519Y-46628927D01*
X251975142Y-46640553D01*
X251982583Y-46652969D01*
X251988772Y-46666054D01*
X251993649Y-46679683D01*
X251997166Y-46693724D01*
X251999290Y-46708042D01*
X252000000Y-46722500D01*
X252000000Y-47017500D01*
X251999290Y-47031958D01*
X251997166Y-47046276D01*
X251993649Y-47060317D01*
X251988772Y-47073946D01*
X251982583Y-47087031D01*
X251975142Y-47099447D01*
X251966519Y-47111073D01*
X251956798Y-47121798D01*
X251946073Y-47131519D01*
X251934447Y-47140142D01*
X251922031Y-47147583D01*
X251908946Y-47153772D01*
X251895317Y-47158649D01*
X251881276Y-47162166D01*
X251866958Y-47164290D01*
X251852500Y-47165000D01*
X251507500Y-47165000D01*
X251493042Y-47164290D01*
X251478724Y-47162166D01*
X251464683Y-47158649D01*
X251451054Y-47153772D01*
X251437969Y-47147583D01*
X251425553Y-47140142D01*
X251413927Y-47131519D01*
X251403202Y-47121798D01*
X251393481Y-47111073D01*
X251384858Y-47099447D01*
X251377417Y-47087031D01*
X251371228Y-47073946D01*
X251366351Y-47060317D01*
X251362834Y-47046276D01*
X251360710Y-47031958D01*
X251360000Y-47017500D01*
X251360000Y-46722500D01*
X251360710Y-46708042D01*
X251362834Y-46693724D01*
X251366351Y-46679683D01*
X251371228Y-46666054D01*
X251377417Y-46652969D01*
X251384858Y-46640553D01*
X251393481Y-46628927D01*
X251403202Y-46618202D01*
X251413927Y-46608481D01*
X251425553Y-46599858D01*
X251437969Y-46592417D01*
X251451054Y-46586228D01*
X251464683Y-46581351D01*
X251478724Y-46577834D01*
X251493042Y-46575710D01*
X251507500Y-46575000D01*
X251852500Y-46575000D01*
X251866958Y-46575710D01*
G37*
G04 #@! TD.AperFunction*
G04 #@! TA.AperFunction,SMDPad,CuDef*
G36*
X251866958Y-47545710D02*
G01*
X251881276Y-47547834D01*
X251895317Y-47551351D01*
X251908946Y-47556228D01*
X251922031Y-47562417D01*
X251934447Y-47569858D01*
X251946073Y-47578481D01*
X251956798Y-47588202D01*
X251966519Y-47598927D01*
X251975142Y-47610553D01*
X251982583Y-47622969D01*
X251988772Y-47636054D01*
X251993649Y-47649683D01*
X251997166Y-47663724D01*
X251999290Y-47678042D01*
X252000000Y-47692500D01*
X252000000Y-47987500D01*
X251999290Y-48001958D01*
X251997166Y-48016276D01*
X251993649Y-48030317D01*
X251988772Y-48043946D01*
X251982583Y-48057031D01*
X251975142Y-48069447D01*
X251966519Y-48081073D01*
X251956798Y-48091798D01*
X251946073Y-48101519D01*
X251934447Y-48110142D01*
X251922031Y-48117583D01*
X251908946Y-48123772D01*
X251895317Y-48128649D01*
X251881276Y-48132166D01*
X251866958Y-48134290D01*
X251852500Y-48135000D01*
X251507500Y-48135000D01*
X251493042Y-48134290D01*
X251478724Y-48132166D01*
X251464683Y-48128649D01*
X251451054Y-48123772D01*
X251437969Y-48117583D01*
X251425553Y-48110142D01*
X251413927Y-48101519D01*
X251403202Y-48091798D01*
X251393481Y-48081073D01*
X251384858Y-48069447D01*
X251377417Y-48057031D01*
X251371228Y-48043946D01*
X251366351Y-48030317D01*
X251362834Y-48016276D01*
X251360710Y-48001958D01*
X251360000Y-47987500D01*
X251360000Y-47692500D01*
X251360710Y-47678042D01*
X251362834Y-47663724D01*
X251366351Y-47649683D01*
X251371228Y-47636054D01*
X251377417Y-47622969D01*
X251384858Y-47610553D01*
X251393481Y-47598927D01*
X251403202Y-47588202D01*
X251413927Y-47578481D01*
X251425553Y-47569858D01*
X251437969Y-47562417D01*
X251451054Y-47556228D01*
X251464683Y-47551351D01*
X251478724Y-47547834D01*
X251493042Y-47545710D01*
X251507500Y-47545000D01*
X251852500Y-47545000D01*
X251866958Y-47545710D01*
G37*
G04 #@! TD.AperFunction*
G04 #@! TA.AperFunction,SMDPad,CuDef*
G36*
X248046958Y-47520710D02*
G01*
X248061276Y-47522834D01*
X248075317Y-47526351D01*
X248088946Y-47531228D01*
X248102031Y-47537417D01*
X248114447Y-47544858D01*
X248126073Y-47553481D01*
X248136798Y-47563202D01*
X248146519Y-47573927D01*
X248155142Y-47585553D01*
X248162583Y-47597969D01*
X248168772Y-47611054D01*
X248173649Y-47624683D01*
X248177166Y-47638724D01*
X248179290Y-47653042D01*
X248180000Y-47667500D01*
X248180000Y-47962500D01*
X248179290Y-47976958D01*
X248177166Y-47991276D01*
X248173649Y-48005317D01*
X248168772Y-48018946D01*
X248162583Y-48032031D01*
X248155142Y-48044447D01*
X248146519Y-48056073D01*
X248136798Y-48066798D01*
X248126073Y-48076519D01*
X248114447Y-48085142D01*
X248102031Y-48092583D01*
X248088946Y-48098772D01*
X248075317Y-48103649D01*
X248061276Y-48107166D01*
X248046958Y-48109290D01*
X248032500Y-48110000D01*
X247687500Y-48110000D01*
X247673042Y-48109290D01*
X247658724Y-48107166D01*
X247644683Y-48103649D01*
X247631054Y-48098772D01*
X247617969Y-48092583D01*
X247605553Y-48085142D01*
X247593927Y-48076519D01*
X247583202Y-48066798D01*
X247573481Y-48056073D01*
X247564858Y-48044447D01*
X247557417Y-48032031D01*
X247551228Y-48018946D01*
X247546351Y-48005317D01*
X247542834Y-47991276D01*
X247540710Y-47976958D01*
X247540000Y-47962500D01*
X247540000Y-47667500D01*
X247540710Y-47653042D01*
X247542834Y-47638724D01*
X247546351Y-47624683D01*
X247551228Y-47611054D01*
X247557417Y-47597969D01*
X247564858Y-47585553D01*
X247573481Y-47573927D01*
X247583202Y-47563202D01*
X247593927Y-47553481D01*
X247605553Y-47544858D01*
X247617969Y-47537417D01*
X247631054Y-47531228D01*
X247644683Y-47526351D01*
X247658724Y-47522834D01*
X247673042Y-47520710D01*
X247687500Y-47520000D01*
X248032500Y-47520000D01*
X248046958Y-47520710D01*
G37*
G04 #@! TD.AperFunction*
G04 #@! TA.AperFunction,SMDPad,CuDef*
G36*
X248046958Y-46550710D02*
G01*
X248061276Y-46552834D01*
X248075317Y-46556351D01*
X248088946Y-46561228D01*
X248102031Y-46567417D01*
X248114447Y-46574858D01*
X248126073Y-46583481D01*
X248136798Y-46593202D01*
X248146519Y-46603927D01*
X248155142Y-46615553D01*
X248162583Y-46627969D01*
X248168772Y-46641054D01*
X248173649Y-46654683D01*
X248177166Y-46668724D01*
X248179290Y-46683042D01*
X248180000Y-46697500D01*
X248180000Y-46992500D01*
X248179290Y-47006958D01*
X248177166Y-47021276D01*
X248173649Y-47035317D01*
X248168772Y-47048946D01*
X248162583Y-47062031D01*
X248155142Y-47074447D01*
X248146519Y-47086073D01*
X248136798Y-47096798D01*
X248126073Y-47106519D01*
X248114447Y-47115142D01*
X248102031Y-47122583D01*
X248088946Y-47128772D01*
X248075317Y-47133649D01*
X248061276Y-47137166D01*
X248046958Y-47139290D01*
X248032500Y-47140000D01*
X247687500Y-47140000D01*
X247673042Y-47139290D01*
X247658724Y-47137166D01*
X247644683Y-47133649D01*
X247631054Y-47128772D01*
X247617969Y-47122583D01*
X247605553Y-47115142D01*
X247593927Y-47106519D01*
X247583202Y-47096798D01*
X247573481Y-47086073D01*
X247564858Y-47074447D01*
X247557417Y-47062031D01*
X247551228Y-47048946D01*
X247546351Y-47035317D01*
X247542834Y-47021276D01*
X247540710Y-47006958D01*
X247540000Y-46992500D01*
X247540000Y-46697500D01*
X247540710Y-46683042D01*
X247542834Y-46668724D01*
X247546351Y-46654683D01*
X247551228Y-46641054D01*
X247557417Y-46627969D01*
X247564858Y-46615553D01*
X247573481Y-46603927D01*
X247583202Y-46593202D01*
X247593927Y-46583481D01*
X247605553Y-46574858D01*
X247617969Y-46567417D01*
X247631054Y-46561228D01*
X247644683Y-46556351D01*
X247658724Y-46552834D01*
X247673042Y-46550710D01*
X247687500Y-46550000D01*
X248032500Y-46550000D01*
X248046958Y-46550710D01*
G37*
G04 #@! TD.AperFunction*
D20*
X143440000Y-102500000D03*
X143440000Y-104700000D03*
X141840000Y-104700000D03*
X141840000Y-102500000D03*
D21*
X114189994Y-52885000D03*
X132680006Y-92485000D03*
X251680000Y-50970000D03*
X248445000Y-50940000D03*
X128890000Y-100050000D03*
X132250000Y-99110000D03*
X137190000Y-101640000D03*
X137050000Y-107390000D03*
X128910000Y-106450000D03*
X131900000Y-106440000D03*
X137050000Y-104400000D03*
X134200000Y-101650000D03*
X132240000Y-102140000D03*
X130790000Y-101210000D03*
X132440549Y-112025066D03*
X131440566Y-112018817D03*
X130440566Y-112020693D03*
X129440645Y-112007973D03*
X116190000Y-52885000D03*
X130680000Y-92485000D03*
X115189997Y-52885000D03*
X131680003Y-92485000D03*
X122440814Y-101546120D03*
X123610000Y-101690000D03*
X135440000Y-112030000D03*
X134440092Y-112016303D03*
X133440228Y-111999672D03*
X113189991Y-52885000D03*
X128779989Y-92485000D03*
D22*
X114189994Y-52812001D02*
X114189994Y-52885000D01*
X115292006Y-51709989D02*
X114189994Y-52812001D01*
X244887191Y-51709989D02*
X115292006Y-51709989D01*
X246720000Y-41880000D02*
X246720000Y-49877180D01*
X246720000Y-49877180D02*
X244887191Y-51709989D01*
X132250000Y-93480691D02*
X132250000Y-96550000D01*
X132250000Y-96550000D02*
X132250000Y-97550000D01*
X132680006Y-93050685D02*
X132250000Y-93480691D01*
X132680006Y-92485000D02*
X132680006Y-93050685D01*
X133040000Y-93410679D02*
X133040000Y-94760000D01*
X132680006Y-93050685D02*
X133040000Y-93410679D01*
X141840000Y-101165000D02*
X142185000Y-100820000D01*
X141840000Y-102500000D02*
X141840000Y-101165000D01*
X143440000Y-106075000D02*
X143125000Y-106390000D01*
X143440000Y-104700000D02*
X143440000Y-106075000D01*
X139750000Y-101650000D02*
X138750000Y-101650000D01*
X139916410Y-101650000D02*
X139750000Y-101650000D01*
X140401410Y-101165000D02*
X139916410Y-101650000D01*
X141840000Y-101165000D02*
X140401410Y-101165000D01*
X144290000Y-104700000D02*
X143440000Y-104700000D01*
X144365001Y-101041769D02*
X144365001Y-104624999D01*
X144365001Y-104624999D02*
X144290000Y-104700000D01*
X143498222Y-100174990D02*
X144365001Y-101041769D01*
X142510010Y-100174990D02*
X143498222Y-100174990D01*
X142185000Y-100500000D02*
X142510010Y-100174990D01*
X142185000Y-100820000D02*
X142185000Y-100500000D01*
X151110000Y-105080000D02*
X151110000Y-106230000D01*
X150654999Y-104624999D02*
X151110000Y-105080000D01*
X144365001Y-104624999D02*
X150654999Y-104624999D01*
X247860000Y-48737180D02*
X247860000Y-47815000D01*
X246720000Y-49877180D02*
X247860000Y-48737180D01*
X251680000Y-47840000D02*
X251680000Y-48135000D01*
X251680000Y-48135000D02*
X251680000Y-50970000D01*
X247860000Y-50355000D02*
X248445000Y-50940000D01*
X247860000Y-48737180D02*
X247860000Y-50355000D01*
X126350000Y-106450000D02*
X127350000Y-106450000D01*
X126274999Y-106525001D02*
X126350000Y-106450000D01*
X126274999Y-107884999D02*
X126274999Y-106525001D01*
X127060000Y-108670000D02*
X126274999Y-107884999D01*
X127060000Y-108965000D02*
X127060000Y-108670000D01*
X127350000Y-100050000D02*
X128890000Y-100050000D01*
X132250000Y-97550000D02*
X132250000Y-99110000D01*
X138750000Y-101650000D02*
X137200000Y-101650000D01*
X137200000Y-101650000D02*
X137190000Y-101640000D01*
X137050000Y-108950000D02*
X137050000Y-107390000D01*
X127350000Y-106450000D02*
X128910000Y-106450000D01*
X133050000Y-95740000D02*
X133040000Y-95730000D01*
X133050000Y-97550000D02*
X133050000Y-95740000D01*
X143440000Y-101105000D02*
X143155000Y-100820000D01*
X143440000Y-102500000D02*
X143440000Y-101105000D01*
X140825001Y-103525001D02*
X139750000Y-102450000D01*
X139750000Y-102450000D02*
X138750000Y-102450000D01*
X143440000Y-103450000D02*
X143364999Y-103525001D01*
X143364999Y-103525001D02*
X140825001Y-103525001D01*
X143440000Y-102500000D02*
X143440000Y-103450000D01*
X141840000Y-106075000D02*
X142155000Y-106390000D01*
X141840000Y-104700000D02*
X141840000Y-106075000D01*
X139540000Y-103250000D02*
X138750000Y-103250000D01*
X140990000Y-104700000D02*
X139540000Y-103250000D01*
X141840000Y-104700000D02*
X140990000Y-104700000D01*
X140080000Y-100850000D02*
X139750000Y-100850000D01*
X139750000Y-100850000D02*
X138750000Y-100850000D01*
X138710000Y-100890000D02*
X138750000Y-100850000D01*
X127380000Y-99220000D02*
X127350000Y-99250000D01*
X141610010Y-99489990D02*
X141440010Y-99489990D01*
X141800000Y-99300000D02*
X141610010Y-99489990D01*
X141440010Y-99489990D02*
X140080000Y-100850000D01*
X141805000Y-99300000D02*
X141800000Y-99300000D01*
X135550000Y-107250000D02*
X136250000Y-107950000D01*
X136250000Y-107950000D02*
X136250000Y-108950000D01*
X127350000Y-107250000D02*
X135550000Y-107250000D01*
X135550000Y-102206998D02*
X135550000Y-107250000D01*
X136906998Y-100850000D02*
X135550000Y-102206998D01*
X138750000Y-100850000D02*
X136906998Y-100850000D01*
X133850000Y-98550000D02*
X133850000Y-97550000D01*
X136150000Y-100850000D02*
X133850000Y-98550000D01*
X136906998Y-100850000D02*
X136150000Y-100850000D01*
X129163002Y-99250000D02*
X128350000Y-99250000D01*
X128350000Y-99250000D02*
X127350000Y-99250000D01*
X129748003Y-99835001D02*
X129163002Y-99250000D01*
X132564999Y-99835001D02*
X129748003Y-99835001D01*
X133850000Y-98550000D02*
X132564999Y-99835001D01*
X130790000Y-105330000D02*
X131900000Y-106440000D01*
X130790000Y-101210000D02*
X130790000Y-105330000D01*
X135000000Y-100850000D02*
X134200000Y-101650000D01*
X136150000Y-100850000D02*
X135000000Y-100850000D01*
X132240000Y-100160000D02*
X132240000Y-102140000D01*
X132564999Y-99835001D02*
X132240000Y-100160000D01*
X135550000Y-102900000D02*
X137050000Y-104400000D01*
X135550000Y-102206998D02*
X135550000Y-102900000D01*
X131310000Y-101210000D02*
X132240000Y-102140000D01*
X130790000Y-101210000D02*
X131310000Y-101210000D01*
X52360000Y-53710000D02*
X52370000Y-53700000D01*
X33320000Y-53710000D02*
X52360000Y-53710000D01*
X71400000Y-53700000D02*
X71410000Y-53690000D01*
X52370000Y-53700000D02*
X71400000Y-53700000D01*
X90300000Y-53690000D02*
X90400000Y-53590000D01*
X71410000Y-53690000D02*
X90300000Y-53690000D01*
X109500000Y-53590000D02*
X109520000Y-53610000D01*
X90400000Y-53590000D02*
X109500000Y-53590000D01*
X128540000Y-53610000D02*
X128570000Y-53640000D01*
X109520000Y-53610000D02*
X128540000Y-53610000D01*
X147600000Y-53640000D02*
X147640000Y-53680000D01*
X128570000Y-53640000D02*
X147600000Y-53640000D01*
X148590000Y-53680000D02*
X166700000Y-53680000D01*
X147640000Y-53680000D02*
X148590000Y-53680000D01*
X167650000Y-53680000D02*
X185750000Y-53680000D01*
X166700000Y-53680000D02*
X167650000Y-53680000D01*
X204670000Y-53680000D02*
X204730000Y-53620000D01*
X185750000Y-53680000D02*
X204670000Y-53680000D01*
X223780000Y-53620000D02*
X223840000Y-53680000D01*
X204730000Y-53620000D02*
X223780000Y-53620000D01*
X242820000Y-53680000D02*
X242880000Y-53620000D01*
X223840000Y-53680000D02*
X242820000Y-53680000D01*
X242880000Y-53620000D02*
X269070000Y-53620000D01*
X136250000Y-96550000D02*
X136250000Y-97550000D01*
X139159990Y-93640010D02*
X136250000Y-96550000D01*
X276931402Y-93640010D02*
X139159990Y-93640010D01*
X277725011Y-92846401D02*
X276931402Y-93640010D01*
X270020000Y-53620000D02*
X277725011Y-61325011D01*
X277725011Y-61325011D02*
X277725011Y-92846401D01*
X269070000Y-53620000D02*
X270020000Y-53620000D01*
X32370000Y-50310000D02*
X33320000Y-50310000D01*
X29840000Y-47780000D02*
X32370000Y-50310000D01*
X29840000Y-42510000D02*
X29840000Y-47780000D01*
X51420000Y-50300000D02*
X52370000Y-50300000D01*
X48890000Y-47770000D02*
X51420000Y-50300000D01*
X48890000Y-42510000D02*
X48890000Y-47770000D01*
X70460000Y-50290000D02*
X71410000Y-50290000D01*
X67940000Y-47770000D02*
X70460000Y-50290000D01*
X67940000Y-42510000D02*
X67940000Y-47770000D01*
X89450000Y-50190000D02*
X90400000Y-50190000D01*
X86990000Y-47730000D02*
X89450000Y-50190000D01*
X86990000Y-42510000D02*
X86990000Y-47730000D01*
X108570000Y-50210000D02*
X109520000Y-50210000D01*
X106090000Y-47730000D02*
X108570000Y-50210000D01*
X106090000Y-42510000D02*
X106090000Y-47730000D01*
X127620000Y-50240000D02*
X128570000Y-50240000D01*
X125140000Y-47760000D02*
X127620000Y-50240000D01*
X125140000Y-42510000D02*
X125140000Y-47760000D01*
X146690000Y-50280000D02*
X147640000Y-50280000D01*
X144190000Y-47780000D02*
X146690000Y-50280000D01*
X144190000Y-42510000D02*
X144190000Y-47780000D01*
X165750000Y-50280000D02*
X166700000Y-50280000D01*
X163240000Y-47770000D02*
X165750000Y-50280000D01*
X163240000Y-42510000D02*
X163240000Y-47770000D01*
X184800000Y-50280000D02*
X185750000Y-50280000D01*
X182290000Y-47770000D02*
X184800000Y-50280000D01*
X182290000Y-42510000D02*
X182290000Y-47770000D01*
X203780000Y-50220000D02*
X204730000Y-50220000D01*
X201340000Y-47780000D02*
X203780000Y-50220000D01*
X201340000Y-42510000D02*
X201340000Y-47780000D01*
X222890000Y-50280000D02*
X223840000Y-50280000D01*
X220390000Y-47780000D02*
X222890000Y-50280000D01*
X220390000Y-42510000D02*
X220390000Y-47780000D01*
X239440000Y-47730000D02*
X241930000Y-50220000D01*
X241930000Y-50220000D02*
X242880000Y-50220000D01*
X239440000Y-42510000D02*
X239440000Y-47730000D01*
X268120000Y-50220000D02*
X269070000Y-50220000D01*
X265640000Y-47740000D02*
X268120000Y-50220000D01*
X265640000Y-42510000D02*
X265640000Y-47740000D01*
X32220000Y-66810000D02*
X34740000Y-69330000D01*
X34740000Y-69330000D02*
X35690000Y-69330000D01*
X32220000Y-61560000D02*
X32220000Y-66810000D01*
X247650000Y-72730000D02*
X247640000Y-72720000D01*
X271450000Y-72730000D02*
X247650000Y-72730000D01*
X228610000Y-72720000D02*
X228600000Y-72710000D01*
X247640000Y-72720000D02*
X228610000Y-72720000D01*
X209570000Y-72710000D02*
X209550000Y-72730000D01*
X228600000Y-72710000D02*
X209570000Y-72710000D01*
X190500000Y-72730000D02*
X190490000Y-72740000D01*
X209550000Y-72730000D02*
X190500000Y-72730000D01*
X171480000Y-72740000D02*
X171470000Y-72730000D01*
X190490000Y-72740000D02*
X171480000Y-72740000D01*
X152440000Y-72730000D02*
X152420000Y-72750000D01*
X171470000Y-72730000D02*
X152440000Y-72730000D01*
X133340000Y-72750000D02*
X133330000Y-72740000D01*
X152420000Y-72750000D02*
X133340000Y-72750000D01*
X114280000Y-72740000D02*
X114270000Y-72730000D01*
X133330000Y-72740000D02*
X114280000Y-72740000D01*
X95250000Y-72730000D02*
X95230000Y-72750000D01*
X114270000Y-72730000D02*
X95250000Y-72730000D01*
X76210000Y-72750000D02*
X76190000Y-72730000D01*
X95230000Y-72750000D02*
X76210000Y-72750000D01*
X57120000Y-72730000D02*
X57090000Y-72700000D01*
X76190000Y-72730000D02*
X57120000Y-72730000D01*
X35720000Y-72700000D02*
X35690000Y-72730000D01*
X57090000Y-72700000D02*
X35720000Y-72700000D01*
X277275001Y-77605001D02*
X272400000Y-72730000D01*
X277275001Y-92660001D02*
X277275001Y-77605001D01*
X276745002Y-93190000D02*
X277275001Y-92660001D01*
X138810000Y-93190000D02*
X276745002Y-93190000D01*
X272400000Y-72730000D02*
X271450000Y-72730000D01*
X135450000Y-96550000D02*
X138810000Y-93190000D01*
X135450000Y-97550000D02*
X135450000Y-96550000D01*
X56140000Y-69300000D02*
X57090000Y-69300000D01*
X53650000Y-66810000D02*
X56140000Y-69300000D01*
X53650000Y-61560000D02*
X53650000Y-66810000D01*
X75240000Y-69330000D02*
X76190000Y-69330000D01*
X72720000Y-66810000D02*
X75240000Y-69330000D01*
X72720000Y-61560000D02*
X72720000Y-66810000D01*
X94280000Y-69350000D02*
X95230000Y-69350000D01*
X91770000Y-66840000D02*
X94280000Y-69350000D01*
X91770000Y-61560000D02*
X91770000Y-66840000D01*
X113320000Y-69330000D02*
X114270000Y-69330000D01*
X110830000Y-66840000D02*
X113320000Y-69330000D01*
X110830000Y-61560000D02*
X110830000Y-66840000D01*
X132380000Y-69340000D02*
X133330000Y-69340000D01*
X129880000Y-66840000D02*
X132380000Y-69340000D01*
X129880000Y-61560000D02*
X129880000Y-66840000D01*
X151470000Y-69350000D02*
X152420000Y-69350000D01*
X148940000Y-66820000D02*
X151470000Y-69350000D01*
X148940000Y-61570000D02*
X148940000Y-66820000D01*
X170520000Y-69330000D02*
X171470000Y-69330000D01*
X168010000Y-66820000D02*
X170520000Y-69330000D01*
X168010000Y-61570000D02*
X168010000Y-66820000D01*
X189540000Y-69340000D02*
X190490000Y-69340000D01*
X187060000Y-66860000D02*
X189540000Y-69340000D01*
X187060000Y-61580000D02*
X187060000Y-66860000D01*
X206100000Y-66830000D02*
X208600000Y-69330000D01*
X208600000Y-69330000D02*
X209550000Y-69330000D01*
X206100000Y-61580000D02*
X206100000Y-66830000D01*
X225150000Y-66810000D02*
X227650000Y-69310000D01*
X227650000Y-69310000D02*
X228600000Y-69310000D01*
X225150000Y-61570000D02*
X225150000Y-66810000D01*
X246690000Y-69320000D02*
X247640000Y-69320000D01*
X244210000Y-66840000D02*
X246690000Y-69320000D01*
X244210000Y-61570000D02*
X244210000Y-66840000D01*
X268030000Y-66860000D02*
X270500000Y-69330000D01*
X270500000Y-69330000D02*
X271450000Y-69330000D01*
X268030000Y-61580000D02*
X268030000Y-66860000D01*
X66610000Y-91780000D02*
X66630000Y-91760000D01*
X40440000Y-91780000D02*
X66610000Y-91780000D01*
X85660000Y-91760000D02*
X85690000Y-91790000D01*
X66630000Y-91760000D02*
X85660000Y-91760000D01*
X104720000Y-91790000D02*
X104760000Y-91750000D01*
X85690000Y-91790000D02*
X104720000Y-91790000D01*
X123770000Y-91750000D02*
X123780000Y-91760000D01*
X104760000Y-91750000D02*
X123770000Y-91750000D01*
X142820000Y-91760000D02*
X142850000Y-91790000D01*
X123780000Y-91760000D02*
X142820000Y-91760000D01*
X160950000Y-91790000D02*
X142850000Y-91790000D01*
X161900000Y-91790000D02*
X160950000Y-91790000D01*
X161940000Y-91750000D02*
X161900000Y-91790000D01*
X181000000Y-91750000D02*
X161940000Y-91750000D01*
X181030000Y-91780000D02*
X181000000Y-91750000D01*
X200040000Y-91780000D02*
X181030000Y-91780000D01*
X200080000Y-91740000D02*
X200040000Y-91780000D01*
X219080000Y-91740000D02*
X200080000Y-91740000D01*
X237170000Y-91740000D02*
X219080000Y-91740000D01*
X238120000Y-91740000D02*
X237170000Y-91740000D01*
X238180000Y-91800000D02*
X238120000Y-91740000D01*
X257220000Y-91800000D02*
X238180000Y-91800000D01*
X275300000Y-91800000D02*
X257220000Y-91800000D01*
X276250000Y-91800000D02*
X275300000Y-91800000D01*
X124730000Y-91760000D02*
X123780000Y-91760000D01*
X129860000Y-91760000D02*
X124730000Y-91760000D01*
X134650000Y-96713590D02*
X138623600Y-92739990D01*
X134650000Y-97550000D02*
X134650000Y-96713590D01*
X138623600Y-92739990D02*
X142850000Y-92739990D01*
X142850000Y-92739990D02*
X142850000Y-91790000D01*
X36980000Y-85870000D02*
X39490000Y-88380000D01*
X39490000Y-88380000D02*
X40440000Y-88380000D01*
X36980000Y-80610000D02*
X36980000Y-85870000D01*
X65680000Y-88360000D02*
X66630000Y-88360000D01*
X63180000Y-85860000D02*
X65680000Y-88360000D01*
X63180000Y-80610000D02*
X63180000Y-85860000D01*
X84740000Y-88390000D02*
X85690000Y-88390000D01*
X82240000Y-85890000D02*
X84740000Y-88390000D01*
X82240000Y-80610000D02*
X82240000Y-85890000D01*
X103810000Y-88350000D02*
X104760000Y-88350000D01*
X101290000Y-85830000D02*
X103810000Y-88350000D01*
X101290000Y-80610000D02*
X101290000Y-85830000D01*
X122830000Y-88360000D02*
X123780000Y-88360000D01*
X120340000Y-85870000D02*
X122830000Y-88360000D01*
X120340000Y-80610000D02*
X120340000Y-85870000D01*
X139390000Y-85880000D02*
X141900000Y-88390000D01*
X141900000Y-88390000D02*
X142850000Y-88390000D01*
X139390000Y-80630000D02*
X139390000Y-85880000D01*
X160950000Y-88390000D02*
X161900000Y-88390000D01*
X158460000Y-85900000D02*
X160950000Y-88390000D01*
X158460000Y-80620000D02*
X158460000Y-85900000D01*
X180050000Y-88350000D02*
X181000000Y-88350000D01*
X177550000Y-85850000D02*
X180050000Y-88350000D01*
X177550000Y-80630000D02*
X177550000Y-85850000D01*
X196600000Y-85890000D02*
X199090000Y-88380000D01*
X199090000Y-88380000D02*
X200040000Y-88380000D01*
X196600000Y-80630000D02*
X196600000Y-85890000D01*
X218130000Y-88340000D02*
X219080000Y-88340000D01*
X215660000Y-85870000D02*
X218130000Y-88340000D01*
X215660000Y-80630000D02*
X215660000Y-85870000D01*
X237170000Y-88340000D02*
X238120000Y-88340000D01*
X234710000Y-85880000D02*
X237170000Y-88340000D01*
X234710000Y-80630000D02*
X234710000Y-85880000D01*
X256270000Y-88400000D02*
X257220000Y-88400000D01*
X253760000Y-85890000D02*
X256270000Y-88400000D01*
X253760000Y-80640000D02*
X253760000Y-85890000D01*
X275300000Y-88400000D02*
X276250000Y-88400000D01*
X272800000Y-85900000D02*
X275300000Y-88400000D01*
X272800000Y-80640000D02*
X272800000Y-85900000D01*
X257190000Y-110840000D02*
X257180000Y-110830000D01*
X276200000Y-110840000D02*
X257190000Y-110840000D01*
X238150000Y-110830000D02*
X238130000Y-110850000D01*
X257180000Y-110830000D02*
X238150000Y-110830000D01*
X238130000Y-110850000D02*
X219060000Y-110850000D01*
X219060000Y-110850000D02*
X199960000Y-110850000D01*
X164250000Y-111710000D02*
X164250000Y-110860000D01*
X166124001Y-113584001D02*
X164250000Y-111710000D01*
X196275999Y-113584001D02*
X166124001Y-113584001D01*
X199010000Y-110850000D02*
X196275999Y-113584001D01*
X199960000Y-110850000D02*
X199010000Y-110850000D01*
X116610000Y-111650000D02*
X116610000Y-110800000D01*
X118544001Y-113584001D02*
X116610000Y-111650000D01*
X160575999Y-113584001D02*
X118544001Y-113584001D01*
X163300000Y-110860000D02*
X160575999Y-113584001D01*
X164250000Y-110860000D02*
X163300000Y-110860000D01*
X83250000Y-111650000D02*
X83250000Y-110800000D01*
X85164001Y-113564001D02*
X83250000Y-111650000D01*
X112895999Y-113564001D02*
X85164001Y-113564001D01*
X115660000Y-110800000D02*
X112895999Y-113564001D01*
X116610000Y-110800000D02*
X115660000Y-110800000D01*
X59480000Y-110800000D02*
X59470000Y-110810000D01*
X83250000Y-110800000D02*
X59480000Y-110800000D01*
X35650000Y-110810000D02*
X35630000Y-110790000D01*
X59470000Y-110810000D02*
X35650000Y-110810000D01*
X137050000Y-96550000D02*
X137050000Y-97550000D01*
X139423901Y-94176099D02*
X137050000Y-96550000D01*
X277225001Y-101998999D02*
X269402101Y-94176099D01*
X277225001Y-110764999D02*
X277225001Y-101998999D01*
X269402101Y-94176099D02*
X139423901Y-94176099D01*
X277150000Y-110840000D02*
X277225001Y-110764999D01*
X276200000Y-110840000D02*
X277150000Y-110840000D01*
X34680000Y-107390000D02*
X35630000Y-107390000D01*
X32210000Y-104920000D02*
X34680000Y-107390000D01*
X32210000Y-99650000D02*
X32210000Y-104920000D01*
X56020000Y-104910000D02*
X58520000Y-107410000D01*
X58520000Y-107410000D02*
X59470000Y-107410000D01*
X56020000Y-99650000D02*
X56020000Y-104910000D01*
X82300000Y-107400000D02*
X83250000Y-107400000D01*
X79830000Y-104930000D02*
X82300000Y-107400000D01*
X79830000Y-99670000D02*
X79830000Y-104930000D01*
X115660000Y-107400000D02*
X116610000Y-107400000D01*
X113170000Y-104910000D02*
X115660000Y-107400000D01*
X113170000Y-99650000D02*
X113170000Y-104910000D01*
X163300000Y-107460000D02*
X164250000Y-107460000D01*
X160800000Y-104960000D02*
X163300000Y-107460000D01*
X160800000Y-99670000D02*
X160800000Y-104960000D01*
X199010000Y-107450000D02*
X199960000Y-107450000D01*
X196520000Y-104960000D02*
X199010000Y-107450000D01*
X196520000Y-99680000D02*
X196520000Y-104960000D01*
X218110000Y-107450000D02*
X219060000Y-107450000D01*
X215610000Y-104950000D02*
X218110000Y-107450000D01*
X215610000Y-99680000D02*
X215610000Y-104950000D01*
X237180000Y-107450000D02*
X238130000Y-107450000D01*
X234670000Y-104940000D02*
X237180000Y-107450000D01*
X234670000Y-99670000D02*
X234670000Y-104940000D01*
X256230000Y-107430000D02*
X257180000Y-107430000D01*
X253730000Y-104930000D02*
X256230000Y-107430000D01*
X253730000Y-99680000D02*
X253730000Y-104930000D01*
X275250000Y-107440000D02*
X276200000Y-107440000D01*
X272780000Y-104970000D02*
X275250000Y-107440000D01*
X272780000Y-99700000D02*
X272780000Y-104970000D01*
X26984999Y-101065001D02*
X25860000Y-102190000D01*
X34793921Y-93256079D02*
X26984999Y-101065001D01*
X110831311Y-93256079D02*
X34793921Y-93256079D01*
X120825232Y-103250000D02*
X110831311Y-93256079D01*
X127350000Y-103250000D02*
X120825232Y-103250000D01*
X133050000Y-109950000D02*
X133050000Y-108950000D01*
X133050000Y-110849930D02*
X133050000Y-109950000D01*
X132440549Y-111459381D02*
X133050000Y-110849930D01*
X132440549Y-112025066D02*
X132440549Y-111459381D01*
X132250000Y-109950000D02*
X132250000Y-108950000D01*
X131715548Y-110484452D02*
X132250000Y-109950000D01*
X131715548Y-111844452D02*
X131715548Y-110484452D01*
X131541183Y-112018817D02*
X131715548Y-111844452D01*
X131440566Y-112018817D02*
X131541183Y-112018817D01*
X130440566Y-110769436D02*
X131450000Y-109760002D01*
X131450000Y-109760002D02*
X131450000Y-108950000D01*
X130440566Y-112020693D02*
X130440566Y-110769436D01*
X129840644Y-110569358D02*
X130650000Y-109760002D01*
X130650000Y-109760002D02*
X130650000Y-108950000D01*
X129840644Y-111607974D02*
X129840644Y-110569358D01*
X129440645Y-112007973D02*
X129840644Y-111607974D01*
X130680000Y-97520000D02*
X130650000Y-97550000D01*
X130680000Y-92485000D02*
X130680000Y-97520000D01*
X250670000Y-52680000D02*
X250670000Y-45775000D01*
X250680000Y-52690000D02*
X250670000Y-52680000D01*
X116190000Y-52700000D02*
X116195001Y-52694999D01*
X249281411Y-52694999D02*
X249286410Y-52690000D01*
X116190000Y-52885000D02*
X116190000Y-52700000D01*
X249286410Y-52690000D02*
X250680000Y-52690000D01*
X116195001Y-52694999D02*
X249281411Y-52694999D01*
X131450000Y-96550000D02*
X131450000Y-97550000D01*
X131680003Y-93050685D02*
X131450000Y-93280688D01*
X131450000Y-93280688D02*
X131450000Y-96550000D01*
X131680003Y-92485000D02*
X131680003Y-93050685D01*
X115841999Y-52159999D02*
X115189997Y-52812001D01*
X115189997Y-52812001D02*
X115189997Y-52885000D01*
X245073591Y-52159999D02*
X115841999Y-52159999D01*
X249170000Y-45765000D02*
X249170000Y-52170000D01*
X245083592Y-52170000D02*
X245073591Y-52159999D01*
X249170000Y-52170000D02*
X245083592Y-52170000D01*
X147410000Y-99680000D02*
X146574980Y-98844980D01*
X147410000Y-100030000D02*
X147410000Y-99680000D01*
X146574980Y-98844980D02*
X143794980Y-98844980D01*
X143339960Y-99300000D02*
X142775000Y-99300000D01*
X143794980Y-98844980D02*
X143339960Y-99300000D01*
X139750000Y-100050000D02*
X138750000Y-100050000D01*
X143624990Y-98654990D02*
X141145010Y-98654990D01*
X141145010Y-98654990D02*
X139750000Y-100050000D01*
X143794980Y-98824980D02*
X143624990Y-98654990D01*
X143794980Y-98844980D02*
X143794980Y-98824980D01*
X128065000Y-109935000D02*
X127060000Y-109935000D01*
X129050000Y-108950000D02*
X128065000Y-109935000D01*
X50794999Y-101065001D02*
X49670000Y-102190000D01*
X58153911Y-93706089D02*
X50794999Y-101065001D01*
X110644911Y-93706089D02*
X58153911Y-93706089D01*
X120988822Y-104050000D02*
X110644911Y-93706089D01*
X127350000Y-104050000D02*
X120988822Y-104050000D01*
X121152412Y-104850000D02*
X127350000Y-104850000D01*
X110458511Y-94156099D02*
X121152412Y-104850000D01*
X73480000Y-102210000D02*
X81533901Y-94156099D01*
X81533901Y-94156099D02*
X110458511Y-94156099D01*
X126350000Y-105650000D02*
X127350000Y-105650000D01*
X121316002Y-105650000D02*
X126350000Y-105650000D01*
X113866001Y-98199999D02*
X121316002Y-105650000D01*
X110810001Y-98199999D02*
X113866001Y-98199999D01*
X106820000Y-102190000D02*
X110810001Y-98199999D01*
X123344694Y-102450000D02*
X127350000Y-102450000D01*
X122440814Y-101546120D02*
X123344694Y-102450000D01*
X127310000Y-101690000D02*
X127350000Y-101650000D01*
X123610000Y-101690000D02*
X127310000Y-101690000D01*
X135440000Y-108960000D02*
X135450000Y-108950000D01*
X135440000Y-112030000D02*
X135440000Y-108960000D01*
X134650000Y-111240710D02*
X134650000Y-109950000D01*
X134650000Y-109950000D02*
X134650000Y-108950000D01*
X134440092Y-111450618D02*
X134650000Y-111240710D01*
X134440092Y-112016303D02*
X134440092Y-111450618D01*
X133850000Y-111589900D02*
X133850000Y-108950000D01*
X133440228Y-111999672D02*
X133850000Y-111589900D01*
X129850000Y-93555011D02*
X129850000Y-97550000D01*
X128779989Y-92485000D02*
X129850000Y-93555011D01*
X113189991Y-52812001D02*
X113189991Y-52885000D01*
X114796991Y-51205001D02*
X113189991Y-52812001D01*
X244824990Y-51075010D02*
X244694999Y-51205001D01*
X244694999Y-51205001D02*
X114796991Y-51205001D01*
X244820000Y-46060000D02*
X244824990Y-46064990D01*
X244820000Y-45765000D02*
X244820000Y-46060000D01*
X244820000Y-51070020D02*
X244820000Y-46067500D01*
X244824990Y-51075010D02*
X244820000Y-51070020D01*
X247655001Y-41744999D02*
X247655001Y-40519999D01*
X247655001Y-40519999D02*
X247109992Y-39974990D01*
X247109992Y-39974990D02*
X245278981Y-39974990D01*
X245278981Y-39974990D02*
X244820000Y-40433971D01*
X247520000Y-41880000D02*
X247655001Y-41744999D01*
X244820000Y-44492500D02*
X244820000Y-40433971D01*
X249490000Y-44795000D02*
X249170000Y-44795000D01*
X249670000Y-44615000D02*
X249490000Y-44795000D01*
X249670000Y-41880000D02*
X249670000Y-44615000D01*
X250350000Y-44805000D02*
X250670000Y-44805000D01*
X250170000Y-44625000D02*
X250350000Y-44805000D01*
X250170000Y-41880000D02*
X250170000Y-44625000D01*
X248670000Y-42695002D02*
X248670000Y-41880000D01*
X247860000Y-43505002D02*
X248670000Y-42695002D01*
X247860000Y-46845000D02*
X247860000Y-43505002D01*
X251670000Y-46860000D02*
X251680000Y-46870000D01*
X251670000Y-41880000D02*
X251670000Y-46860000D01*
M02*
