M48
; DRILL file {KiCad (5.1.5)-3} date 19/05/2020 14:28:30
; FORMAT={-:-/ absolute / metric / decimal}
; #@! TF.CreationDate,2020-05-19T14:28:30+02:00
; #@! TF.GenerationSoftware,Kicad,Pcbnew,(5.1.5)-3
; #@! TF.FileFunction,Plated,1,2,PTH
FMAT,2
METRIC
T1C0.400
T2C0.600
T3C1.470
%
G90
G05
T1
X113.19Y-52.885
X114.19Y-52.885
X115.19Y-52.885
X116.19Y-52.885
X122.441Y-101.546
X123.61Y-101.69
X128.78Y-92.485
X128.89Y-100.05
X128.91Y-106.45
X129.441Y-112.008
X130.441Y-112.021
X130.68Y-92.485
X130.79Y-101.21
X131.441Y-112.019
X131.68Y-92.485
X131.9Y-106.44
X132.24Y-102.14
X132.25Y-99.11
X132.441Y-112.025
X132.68Y-92.485
X133.44Y-112.0
X134.2Y-101.65
X134.44Y-112.016
X135.44Y-112.03
X137.05Y-104.4
X137.05Y-107.39
X137.19Y-101.64
X248.445Y-50.94
X251.68Y-50.97
T3
X156.89Y-45.05
X163.24Y-42.51
X49.67Y-102.19
X56.02Y-99.65
X25.86Y-102.19
X32.21Y-99.65
X247.38Y-102.22
X253.73Y-99.68
X175.94Y-45.05
X182.29Y-42.51
X25.87Y-64.1
X32.22Y-61.56
X23.49Y-45.05
X29.84Y-42.51
X75.89Y-83.15
X82.24Y-80.61
X266.45Y-83.18
X272.8Y-80.64
X228.32Y-102.21
X234.67Y-99.67
X180.71Y-64.12
X187.06Y-61.58
X142.59Y-64.11
X148.94Y-61.57
X237.86Y-64.11
X244.21Y-61.57
X61.59Y-45.05
X67.94Y-42.51
X209.31Y-83.17
X215.66Y-80.63
X80.64Y-45.05
X86.99Y-42.51
X152.11Y-83.16
X158.46Y-80.62
X30.63Y-83.15
X36.98Y-80.61
X66.37Y-64.1
X72.72Y-61.56
X104.48Y-64.1
X110.83Y-61.56
X85.42Y-64.1
X91.77Y-61.56
X42.54Y-45.05
X48.89Y-42.51
X94.94Y-83.15
X101.29Y-80.61
X209.26Y-102.22
X215.61Y-99.68
X56.83Y-83.15
X63.18Y-80.61
X106.82Y-102.19
X113.17Y-99.65
X47.3Y-64.1
X53.65Y-61.56
X259.29Y-45.05
X265.64Y-42.51
X199.75Y-64.12
X206.1Y-61.58
X137.84Y-45.05
X144.19Y-42.51
X190.17Y-102.22
X196.52Y-99.68
X73.48Y-102.21
X79.83Y-99.67
X113.99Y-83.15
X120.34Y-80.61
X266.43Y-102.24
X272.78Y-99.7
X214.04Y-45.05
X220.39Y-42.51
X218.8Y-64.11
X225.15Y-61.57
X161.66Y-64.11
X168.01Y-61.57
X118.79Y-45.05
X125.14Y-42.51
X190.25Y-83.17
X196.6Y-80.63
X171.2Y-83.17
X177.55Y-80.63
X228.36Y-83.17
X234.71Y-80.63
X233.09Y-45.05
X239.44Y-42.51
X123.53Y-64.1
X129.88Y-61.56
X99.74Y-45.05
X106.09Y-42.51
X247.41Y-83.18
X253.76Y-80.64
X133.04Y-83.17
X139.39Y-80.63
X194.99Y-45.05
X201.34Y-42.51
X261.68Y-64.12
X268.03Y-61.58
X154.45Y-102.21
X160.8Y-99.67
T2
G00X245.6Y-36.73
M15
G01X245.6Y-37.53
M16
G05
G00X245.6Y-40.75
M15
G01X245.6Y-41.85
M16
G05
G00X254.24Y-36.73
M15
G01X254.24Y-37.53
M16
G05
G00X254.24Y-40.75
M15
G01X254.24Y-41.85
M16
G05
T0
M30
