M48
; DRILL file {KiCad (5.1.5)-3} date 19/05/2020 14:28:30
; FORMAT={-:-/ absolute / metric / decimal}
; #@! TF.CreationDate,2020-05-19T14:28:30+02:00
; #@! TF.GenerationSoftware,Kicad,Pcbnew,(5.1.5)-3
; #@! TF.FileFunction,NonPlated,1,2,NPTH
FMAT,2
METRIC
T1C0.600
T2C1.750
T3C3.048
T4C3.988
%
G90
G05
T1
X247.03Y-40.82
X252.81Y-40.82
T2
X22.22Y-47.59
X32.38Y-47.59
X74.62Y-85.69
X84.78Y-85.69
X265.18Y-85.72
X275.34Y-85.72
X227.05Y-104.75
X237.21Y-104.75
X179.44Y-66.66
X189.6Y-66.66
X141.32Y-66.65
X151.48Y-66.65
X236.59Y-66.65
X246.75Y-66.65
X60.32Y-47.59
X70.48Y-47.59
X208.04Y-85.71
X218.2Y-85.71
X79.37Y-47.59
X89.53Y-47.59
X150.84Y-85.7
X161.0Y-85.7
X29.36Y-85.69
X39.52Y-85.69
X65.1Y-66.64
X75.26Y-66.64
X103.21Y-66.64
X113.37Y-66.64
X84.15Y-66.64
X94.31Y-66.64
X41.27Y-47.59
X51.43Y-47.59
X93.67Y-85.69
X103.83Y-85.69
X207.99Y-104.76
X218.15Y-104.76
X55.56Y-85.69
X65.72Y-85.69
X105.55Y-104.73
X115.71Y-104.73
X46.03Y-66.64
X56.19Y-66.64
X258.02Y-47.59
X268.18Y-47.59
X198.48Y-66.66
X208.64Y-66.66
X136.57Y-47.59
X146.73Y-47.59
X188.9Y-104.76
X199.06Y-104.76
X72.21Y-104.75
X82.37Y-104.75
X112.72Y-85.69
X122.88Y-85.69
X265.16Y-104.78
X275.32Y-104.78
X212.77Y-47.59
X222.93Y-47.59
X217.53Y-66.65
X227.69Y-66.65
X160.39Y-66.65
X170.55Y-66.65
X117.52Y-47.59
X127.68Y-47.59
X188.98Y-85.71
X199.14Y-85.71
X169.93Y-85.71
X180.09Y-85.71
X227.09Y-85.71
X237.25Y-85.71
X231.82Y-47.59
X241.98Y-47.59
X122.26Y-66.64
X132.42Y-66.64
X98.47Y-47.59
X108.63Y-47.59
X246.14Y-85.72
X256.3Y-85.72
X131.77Y-85.71
X141.93Y-85.71
X193.72Y-47.59
X203.88Y-47.59
X260.41Y-66.66
X270.57Y-66.66
X153.18Y-104.75
X163.34Y-104.75
X155.62Y-47.59
X165.78Y-47.59
X48.4Y-104.73
X58.56Y-104.73
X24.59Y-104.73
X34.75Y-104.73
X246.11Y-104.76
X256.27Y-104.76
X174.67Y-47.59
X184.83Y-47.59
X24.6Y-66.64
X34.76Y-66.64
T3
X98.724Y-111.715
X122.536Y-111.715
X146.354Y-111.735
X170.166Y-111.735
T4
X122.6Y-47.59
X194.06Y-85.71
X175.01Y-85.71
X232.17Y-85.71
X236.9Y-47.59
X127.34Y-66.64
X103.55Y-47.59
X251.22Y-85.72
X136.85Y-85.71
X198.8Y-47.59
X265.49Y-66.66
X146.354Y-96.495
X158.26Y-104.75
X170.166Y-96.495
X160.7Y-47.59
X53.48Y-104.73
X29.67Y-104.73
X251.19Y-104.76
X179.75Y-47.59
X29.68Y-66.64
X27.3Y-47.59
X79.7Y-85.69
X270.26Y-85.72
X232.13Y-104.75
X184.52Y-66.66
X146.4Y-66.65
X241.67Y-66.65
X65.4Y-47.59
X213.12Y-85.71
X84.45Y-47.59
X155.92Y-85.7
X34.44Y-85.69
X70.18Y-66.64
X108.29Y-66.64
X89.23Y-66.64
X46.35Y-47.59
X98.75Y-85.69
X213.07Y-104.76
X60.64Y-85.69
X98.724Y-96.475
X110.63Y-104.73
X122.536Y-96.475
X51.11Y-66.64
X263.1Y-47.59
X203.56Y-66.66
X141.65Y-47.59
X193.98Y-104.76
X77.29Y-104.75
X117.8Y-85.69
X270.24Y-104.78
X217.85Y-47.59
X222.61Y-66.65
X165.47Y-66.65
T0
M30
